<?xml version="1.0" encoding="utf-8"?>
<!-- Generator: Adobe Illustrator 28.0.0, SVG Export Plug-In . SVG Version: 6.00 Build 0)  -->
<svg version="1.1" id="Layer_1" xmlns="http://www.w3.org/2000/svg" xmlns:xlink="http://www.w3.org/1999/xlink" x="0px" y="0px"
	 viewBox="0 0 585 585" style="enable-background:new 0 0 585 585;" xml:space="preserve">
<style type="text/css">
	.st0{fill:#8CC63F;}
	.st1{fill:#FFFFFF;}
	.st2{fill:#86BD40;}
</style>
<g>
	<path class="st0" d="M570,449.2H140.8c-3,0-5.4-2.4-5.4-5.4V366c0-3,2.4-5.4,5.4-5.4H570c3,0,5.4,2.4,5.4,5.4v77.8
		C575.4,446.8,573,449.2,570,449.2z"/>
	<circle class="st1" cx="88.7" cy="404.9" r="81.3"/>
	<path class="st2" d="M79.1,398.3H55.8v-23.1H79C79.1,375.2,79.1,398.3,79.1,398.3z M60.8,393.3H74v-13.2H60.8V393.3z M128.1,395.8
		v-3.7c0-0.7-0.6-1.1-1.1-1.1H86.2c-0.7,0-1.1,0.6-1.1,1.1v3.7c0,0.7,0.6,1.1,1.1,1.1h40.7C127.5,396.9,128.1,396.5,128.1,395.8z
		 M128.1,382.6v-3.7c0-0.7-0.6-1.1-1.1-1.1H86.2c-0.7,0-1.1,0.6-1.1,1.1v3.7c0,0.7,0.6,1.1,1.1,1.1h40.7
		C127.5,383.8,128.1,383.3,128.1,382.6z M79.1,434.4H55.8v-23.1H79C79.1,411.3,79.1,434.4,79.1,434.4z M60.8,429.5H74v-13.2H60.8
		V429.5z M128.1,431.9v-3.7c0-0.7-0.6-1.1-1.1-1.1H86.2c-0.7,0-1.1,0.6-1.1,1.1v3.7c0,0.7,0.6,1.1,1.1,1.1h40.7
		C127.5,433,128.1,432.6,128.1,431.9z M128.1,418.7V415c0-0.7-0.6-1.1-1.1-1.1H86.2c-0.7,0-1.1,0.6-1.1,1.1v3.7
		c0,0.7,0.6,1.1,1.1,1.1h40.7C127.5,419.8,128.1,419.4,128.1,418.7z"/>
	<path class="st0" d="M88.7,482.2c-42.6,0-77.3-34.7-77.3-77.3s34.7-77.3,77.3-77.3s77.3,34.7,77.3,77.3S131.3,482.2,88.7,482.2z
		 M88.7,350c-30.3,0-54.8,24.6-54.8,54.8c0,30.3,24.6,54.8,54.8,54.8s54.8-24.6,54.8-54.8S119,350,88.7,350z"/>
	<path class="st1" d="M296,415.9v-16.8h2.6l10.5,13h-1.3v-13h3.1v16.8h-2.6l-10.5-13h1.3v13H296z M320.9,416.1
		c-1.3,0-2.5-0.3-3.5-0.9s-1.8-1.3-2.4-2.3s-0.9-2.1-0.9-3.4s0.3-2.4,0.9-3.4s1.4-1.7,2.4-2.3c1-0.6,2.2-0.9,3.5-0.9
		s2.5,0.3,3.5,0.9s1.8,1.3,2.4,2.3s0.9,2.1,0.9,3.4s-0.3,2.4-0.9,3.4s-1.4,1.8-2.4,2.3C323.4,415.8,322.3,416.1,320.9,416.1z
		 M320.9,413.5c0.7,0,1.4-0.2,2-0.5s1-0.8,1.4-1.4c0.3-0.6,0.5-1.3,0.5-2.1c0-0.8-0.2-1.5-0.5-2.1s-0.8-1.1-1.4-1.4
		s-1.2-0.5-1.9-0.5c-0.7,0-1.4,0.2-1.9,0.5c-0.6,0.3-1,0.8-1.4,1.4c-0.3,0.6-0.5,1.3-0.5,2.1c0,0.8,0.2,1.5,0.5,2.1s0.8,1.1,1.4,1.4
		C319.6,413.4,320.2,413.5,320.9,413.5z M346.8,402.9c1,0,1.9,0.2,2.7,0.6s1.4,1,1.9,1.8s0.7,1.9,0.7,3.2v7.3h-3v-7
		c0-1.1-0.3-2-0.8-2.5c-0.5-0.6-1.2-0.8-2.1-0.8c-0.7,0-1.2,0.1-1.7,0.4s-0.9,0.7-1.2,1.3c-0.3,0.6-0.4,1.3-0.4,2.1v6.5h-3v-7
		c0-1.1-0.3-2-0.8-2.5c-0.5-0.6-1.2-0.8-2.1-0.8c-0.7,0-1.2,0.1-1.7,0.4s-0.9,0.7-1.2,1.3c-0.3,0.6-0.4,1.3-0.4,2.1v6.5h-3V403h2.9
		v3.4l-0.5-1c0.4-0.8,1.1-1.4,1.9-1.9c0.8-0.4,1.8-0.7,2.8-0.7c1.2,0,2.2,0.3,3.1,0.9s1.5,1.5,1.8,2.7l-1.2-0.4
		c0.4-0.9,1.1-1.7,2-2.3S345.6,402.9,346.8,402.9z M357.5,401c-0.6,0-1-0.2-1.4-0.5c-0.4-0.4-0.5-0.8-0.5-1.3s0.2-0.9,0.5-1.2
		c0.4-0.4,0.8-0.5,1.4-0.5s1,0.2,1.4,0.5s0.5,0.7,0.5,1.3c0,0.5-0.2,0.9-0.5,1.3C358.5,400.8,358,401,357.5,401z M356,415.9v-12.8h3
		v12.8H356z M370.2,402.9c1,0,2,0.2,2.7,0.6s1.4,1,1.9,1.8s0.7,1.9,0.7,3.2v7.3h-3v-7c0-1.1-0.3-2-0.8-2.5c-0.5-0.6-1.3-0.8-2.3-0.8
		c-0.7,0-1.3,0.1-1.9,0.4s-1,0.7-1.3,1.3c-0.3,0.6-0.4,1.3-0.4,2.1v6.5h-3V403h2.9v3.5l-0.5-1.1c0.4-0.8,1.1-1.4,1.9-1.9
		C368.1,403.1,369.1,402.9,370.2,402.9z M383.2,416.1c-1,0-1.8-0.2-2.5-0.5s-1.3-0.8-1.7-1.4c-0.4-0.6-0.6-1.2-0.6-2
		c0-0.7,0.2-1.4,0.5-1.9c0.3-0.6,0.9-1,1.7-1.4c0.8-0.3,1.8-0.5,3.1-0.5h3.7v2H384c-1,0-1.7,0.2-2.1,0.5s-0.5,0.7-0.5,1.2
		s0.2,1,0.6,1.3s1,0.5,1.8,0.5c0.7,0,1.4-0.2,2-0.5s1-0.8,1.3-1.5l0.5,1.8c-0.3,0.8-0.8,1.3-1.5,1.8S384.4,416.1,383.2,416.1z
		 M387.2,415.9v-2.6l-0.1-0.5v-4.5c0-0.9-0.3-1.6-0.8-2.1s-1.3-0.7-2.4-0.7c-0.7,0-1.4,0.1-2.1,0.3c-0.7,0.2-1.3,0.5-1.8,0.9
		l-1.2-2.2c0.7-0.5,1.5-0.9,2.5-1.2c0.9-0.3,1.9-0.4,3-0.4c1.9,0,3.3,0.4,4.3,1.3s1.5,2.3,1.5,4.1v7.5h-2.9V415.9z M392.2,405.6
		v-2.4h8.5v2.4H392.2z M398.7,416.1c-1.4,0-2.5-0.4-3.3-1.1s-1.2-1.8-1.2-3.2v-11.5h3v11.4c0,0.6,0.2,1.1,0.5,1.4s0.8,0.5,1.3,0.5
		c0.7,0,1.2-0.2,1.6-0.5l0.9,2.1c-0.4,0.3-0.8,0.5-1.3,0.6C399.8,416,399.2,416.1,398.7,416.1z M410.1,416.1c-1.4,0-2.7-0.3-3.7-0.9
		c-1.1-0.6-1.9-1.3-2.5-2.3s-0.9-2.1-0.9-3.4s0.3-2.4,0.9-3.4s1.4-1.8,2.4-2.3s2.1-0.9,3.4-0.9c1.2,0,2.4,0.3,3.3,0.8
		c1,0.6,1.7,1.3,2.3,2.3c0.6,1,0.8,2.2,0.8,3.5c0,0.1,0,0.3,0,0.4s0,0.3,0,0.4h-10.7v-2h9.1l-1.2,0.6c0-0.7-0.1-1.4-0.4-1.9
		c-0.3-0.6-0.7-1-1.3-1.3c-0.5-0.3-1.2-0.5-1.9-0.5c-0.7,0-1.4,0.2-1.9,0.5c-0.6,0.3-1,0.8-1.3,1.3c-0.3,0.6-0.5,1.2-0.5,2v0.5
		c0,0.8,0.2,1.4,0.5,2s0.8,1.1,1.5,1.4s1.4,0.5,2.2,0.5c0.7,0,1.4-0.1,1.9-0.4c0.6-0.2,1.1-0.6,1.5-1.1l1.6,1.9
		c-0.6,0.7-1.3,1.2-2.2,1.5C412.2,415.9,411.2,416.1,410.1,416.1z"/>
	<path d="M340.5,172.1c1.7,1.9,4,3.3,6.3,3.3s5-1.3,6.3-3.3l17.7-23.7c1.9-2.3,1.9-5.6,0.6-8.2c-1.3-2.7-4-4.2-7.3-4.2h-34.9
		c-2.9,0-5.9,1.7-7.3,4.2c-1.3,2.7-1,5.9,0.6,8.2L340.5,172.1z M328,143.3c0-0.4,0.6-0.6,1.3-0.6h35.5c0.6,0,1,0.4,1.3,0.6
		c0,0.4,0.4,1,0,1.7l-17.7,23.7c-0.4,0.6-1,0.6-1,0.6s-0.6,0-1-0.6L328.7,145C327.7,143.9,328,143.5,328,143.3z M399.1,98.9H186.6
		v6.6h103v94.7h-103v6.6h130.6l10.5,53.2c0.4,1,1,1.9,1.9,2.3c1,0.4,2.3,0.4,2.9-0.4l10.2-6.3l10.2,17.5c0.4,0.6,1.3,1.3,1.9,1.7
		c0.4,0,0.4,0,0.6,0c0.6,0,1.3-0.4,1.7-0.6l14.8-9.6c0.6-0.6,1.3-1.3,1.3-2.3c0.4-1,0-1.7-0.6-2.7l-11.9-17.1l8.6-5.2
		c1-0.6,1.3-1.7,1.7-2.7c0-1-0.4-1.9-1-2.7l-29.6-25.3H399L399.1,98.9L399.1,98.9z M362.6,234.7l-7.3,5c-0.6,0.4-1.3,1.3-1.3,1.9
		c-0.4,1,0,1.7,0.4,2.7l11.9,17.1l-8.9,5.9l-10.2-17.5c-0.4-0.6-1.3-1.3-1.9-1.7c-0.4,0-0.6,0-0.6,0c-0.6,0-1.3,0.4-1.7,0.4
		l-8.9,5.6l-9.8-47.4h6.6L362.6,234.7z M392.5,200.1H333l-13.1-11.5c-1-1-2.7-1-4-0.4s-1.9,1.9-1.7,3.6l1.7,8.2h-19.8v-94.7h96.4
		V200.1z"/>
</g>
</svg>
