<?xml version="1.0" encoding="utf-8"?>
<!-- Generator: Adobe Illustrator 28.0.0, SVG Export Plug-In . SVG Version: 6.00 Build 0)  -->
<svg version="1.1" id="Layer_1" xmlns="http://www.w3.org/2000/svg" xmlns:xlink="http://www.w3.org/1999/xlink" x="0px" y="0px"
	 viewBox="0 0 585 585" style="enable-background:new 0 0 585 585;" xml:space="preserve">
<style type="text/css">
	.st0{fill:#8CC63F;}
	.st1{fill:#FFFFFF;}
	.st2{fill:#86BD40;}
</style>
<g>
	<path d="M342.7,199c1.8,2.1,4.3,3.6,6.8,3.6s5.4-1.4,6.8-3.6l19.3-25.8c2.1-2.5,2.1-6.1,0.7-8.9c-1.4-2.9-4.3-4.6-7.9-4.6h-37.9
		c-3.2,0-6.4,1.8-7.9,4.6c-1.4,2.9-1.1,6.4,0.7,8.9L342.7,199z M329.1,167.6c0-0.4,0.7-0.7,1.4-0.7h38.6c0.7,0,1.1,0.4,1.4,0.7
		c0,0.4,0.4,1.1,0,1.8l-19.3,25.8c-0.4,0.7-1.1,0.7-1.1,0.7s-0.7,0-1.1-0.7l-19.3-25.8C328.7,168.3,329.1,167.9,329.1,167.6z
		 M406.4,119.3H175.3v7.2h112v103h-112v7.2h142l11.4,57.9c0.4,1.1,1.1,2.1,2.1,2.5c1.1,0.4,2.5,0.4,3.2-0.4l11.1-6.8l11.1,19
		c0.4,0.7,1.4,1.4,2.1,1.8c0.4,0,0.4,0,0.7,0c0.7,0,1.4-0.4,1.8-0.7l16.1-10.4c0.7-0.7,1.4-1.4,1.4-2.5c0.4-1.1,0-1.8-0.7-2.9
		l-12.9-18.6l9.3-5.7c1.1-0.7,1.4-1.8,1.8-2.9c0-1.1-0.4-2.1-1.1-2.9l-32.2-27.5h63.7V119.3H406.4z M366.7,267l-7.9,5.4
		c-0.7,0.4-1.4,1.4-1.4,2.1c-0.4,1.1,0,1.8,0.4,2.9l12.9,18.6l-9.7,6.4l-11.1-19c-0.4-0.7-1.4-1.4-2.1-1.8c-0.4,0-0.7,0-0.7,0
		c-0.7,0-1.4,0.4-1.8,0.4l-9.7,6.1l-10.7-51.5h7.2L366.7,267z M399.2,229.4h-64.7l-14.3-12.5c-1.1-1.1-2.9-1.1-4.3-0.4
		c-1.4,0.7-2.1,2.1-1.8,3.9l1.8,8.9h-21.5v-103h104.8V229.4z"/>
	<path class="st0" d="M570,429.6H140.8c-3,0-5.4-2.4-5.4-5.4v-77.8c0-3,2.4-5.4,5.4-5.4H570c3,0,5.4,2.4,5.4,5.4v77.8
		C575.4,427.2,573,429.6,570,429.6z"/>
	<circle class="st1" cx="88.7" cy="385.3" r="81.3"/>
	<path class="st2" d="M79.1,378.7H55.8v-23.1H79C79.1,355.6,79.1,378.7,79.1,378.7z M60.8,373.7H74v-13.2H60.8V373.7z M128.1,376.2
		v-3.7c0-0.7-0.6-1.1-1.1-1.1H86.2c-0.7,0-1.1,0.6-1.1,1.1v3.7c0,0.7,0.6,1.1,1.1,1.1h40.7C127.5,377.3,128.1,376.9,128.1,376.2z
		 M128.1,363v-3.7c0-0.7-0.6-1.1-1.1-1.1H86.2c-0.7,0-1.1,0.6-1.1,1.1v3.7c0,0.7,0.6,1.1,1.1,1.1h40.7
		C127.5,364.2,128.1,363.7,128.1,363z M79.1,414.8H55.8v-23.1H79C79.1,391.7,79.1,414.8,79.1,414.8z M60.8,409.9H74v-13.2H60.8
		V409.9z M128.1,412.3v-3.7c0-0.7-0.6-1.1-1.1-1.1H86.2c-0.7,0-1.1,0.6-1.1,1.1v3.7c0,0.7,0.6,1.1,1.1,1.1h40.7
		C127.5,413.4,128.1,413,128.1,412.3z M128.1,399.1v-3.7c0-0.7-0.6-1.1-1.1-1.1H86.2c-0.7,0-1.1,0.6-1.1,1.1v3.7
		c0,0.7,0.6,1.1,1.1,1.1h40.7C127.5,400.2,128.1,399.8,128.1,399.1z"/>
	<path class="st0" d="M88.7,462.6c-42.6,0-77.3-34.7-77.3-77.3S46.1,308,88.7,308s77.3,34.7,77.3,77.3S131.3,462.6,88.7,462.6z
		 M88.7,330.4c-30.3,0-54.8,24.6-54.8,54.8c0,30.3,24.6,54.8,54.8,54.8s54.8-24.6,54.8-54.8S119,330.4,88.7,330.4z"/>
	<path class="st1" d="M296,396.3v-16.8h2.6l10.5,13h-1.3v-13h3.1v16.8h-2.6l-10.5-13h1.3v13H296z M320.9,396.5
		c-1.3,0-2.5-0.3-3.5-0.9c-1-0.6-1.8-1.3-2.4-2.3c-0.6-1-0.9-2.1-0.9-3.4c0-1.3,0.3-2.4,0.9-3.4c0.6-1,1.4-1.7,2.4-2.3
		c1-0.6,2.2-0.9,3.5-0.9c1.3,0,2.5,0.3,3.5,0.9c1,0.6,1.8,1.3,2.4,2.3c0.6,1,0.9,2.1,0.9,3.4c0,1.3-0.3,2.4-0.9,3.4
		c-0.6,1-1.4,1.8-2.4,2.3C323.4,396.2,322.3,396.5,320.9,396.5z M320.9,393.9c0.7,0,1.4-0.2,2-0.5c0.6-0.3,1-0.8,1.4-1.4
		c0.3-0.6,0.5-1.3,0.5-2.1c0-0.8-0.2-1.5-0.5-2.1c-0.3-0.6-0.8-1.1-1.4-1.4s-1.2-0.5-1.9-0.5c-0.7,0-1.4,0.2-1.9,0.5
		c-0.6,0.3-1,0.8-1.4,1.4c-0.3,0.6-0.5,1.3-0.5,2.1c0,0.8,0.2,1.5,0.5,2.1c0.3,0.6,0.8,1.1,1.4,1.4
		C319.6,393.8,320.2,393.9,320.9,393.9z M346.8,383.3c1,0,1.9,0.2,2.7,0.6s1.4,1,1.9,1.8s0.7,1.9,0.7,3.2v7.3h-3v-7
		c0-1.1-0.3-2-0.8-2.5c-0.5-0.6-1.2-0.8-2.1-0.8c-0.7,0-1.2,0.1-1.7,0.4c-0.5,0.3-0.9,0.7-1.2,1.3c-0.3,0.6-0.4,1.3-0.4,2.1v6.5h-3
		v-7c0-1.1-0.3-2-0.8-2.5c-0.5-0.6-1.2-0.8-2.1-0.8c-0.7,0-1.2,0.1-1.7,0.4s-0.9,0.7-1.2,1.3c-0.3,0.6-0.4,1.3-0.4,2.1v6.5h-3v-12.8
		h2.9v3.4l-0.5-1c0.4-0.8,1.1-1.4,1.9-1.9c0.8-0.4,1.8-0.7,2.8-0.7c1.2,0,2.2,0.3,3.1,0.9s1.5,1.5,1.8,2.7l-1.2-0.4
		c0.4-0.9,1.1-1.7,2-2.3S345.6,383.3,346.8,383.3z M357.5,381.4c-0.6,0-1-0.2-1.4-0.5c-0.4-0.4-0.5-0.8-0.5-1.3
		c0-0.5,0.2-0.9,0.5-1.2c0.4-0.4,0.8-0.5,1.4-0.5c0.6,0,1,0.2,1.4,0.5c0.4,0.3,0.5,0.7,0.5,1.3c0,0.5-0.2,0.9-0.5,1.3
		C358.5,381.2,358,381.4,357.5,381.4z M356,396.3v-12.8h3v12.8H356z M370.2,383.3c1,0,2,0.2,2.7,0.6s1.4,1,1.9,1.8s0.7,1.9,0.7,3.2
		v7.3h-3v-7c0-1.1-0.3-2-0.8-2.5c-0.5-0.6-1.3-0.8-2.3-0.8c-0.7,0-1.3,0.1-1.9,0.4s-1,0.7-1.3,1.3c-0.3,0.6-0.4,1.3-0.4,2.1v6.5h-3
		v-12.8h2.9v3.5l-0.5-1.1c0.4-0.8,1.1-1.4,1.9-1.9C368.1,383.5,369.1,383.3,370.2,383.3z M383.2,396.5c-1,0-1.8-0.2-2.5-0.5
		c-0.7-0.3-1.3-0.8-1.7-1.4c-0.4-0.6-0.6-1.2-0.6-2c0-0.7,0.2-1.4,0.5-1.9c0.3-0.6,0.9-1,1.7-1.4c0.8-0.3,1.8-0.5,3.1-0.5h3.7v2H384
		c-1,0-1.7,0.2-2.1,0.5c-0.4,0.3-0.5,0.7-0.5,1.2c0,0.5,0.2,1,0.6,1.3c0.4,0.3,1,0.5,1.8,0.5c0.7,0,1.4-0.2,2-0.5
		c0.6-0.3,1-0.8,1.3-1.5l0.5,1.8c-0.3,0.8-0.8,1.3-1.5,1.8S384.4,396.5,383.2,396.5z M387.2,396.3v-2.6l-0.1-0.5v-4.5
		c0-0.9-0.3-1.6-0.8-2.1c-0.5-0.5-1.3-0.7-2.4-0.7c-0.7,0-1.4,0.1-2.1,0.3c-0.7,0.2-1.3,0.5-1.8,0.9l-1.2-2.2
		c0.7-0.5,1.5-0.9,2.5-1.2c0.9-0.3,1.9-0.4,3-0.4c1.9,0,3.3,0.4,4.3,1.3c1,0.9,1.5,2.3,1.5,4.1v7.5H387.2z M392.2,386v-2.4h8.5v2.4
		H392.2z M398.7,396.5c-1.4,0-2.5-0.4-3.3-1.1c-0.8-0.7-1.2-1.8-1.2-3.2v-11.5h3v11.4c0,0.6,0.2,1.1,0.5,1.4
		c0.3,0.3,0.8,0.5,1.3,0.5c0.7,0,1.2-0.2,1.6-0.5l0.9,2.1c-0.4,0.3-0.8,0.5-1.3,0.6C399.8,396.4,399.2,396.5,398.7,396.5z
		 M410.1,396.5c-1.4,0-2.7-0.3-3.7-0.9c-1.1-0.6-1.9-1.3-2.5-2.3c-0.6-1-0.9-2.1-0.9-3.4c0-1.3,0.3-2.4,0.9-3.4
		c0.6-1,1.4-1.8,2.4-2.3s2.1-0.9,3.4-0.9c1.2,0,2.4,0.3,3.3,0.8c1,0.6,1.7,1.3,2.3,2.3c0.6,1,0.8,2.2,0.8,3.5c0,0.1,0,0.3,0,0.4
		s0,0.3,0,0.4h-10.7v-2h9.1l-1.2,0.6c0-0.7-0.1-1.4-0.4-1.9c-0.3-0.6-0.7-1-1.3-1.3c-0.5-0.3-1.2-0.5-1.9-0.5
		c-0.7,0-1.4,0.2-1.9,0.5c-0.6,0.3-1,0.8-1.3,1.3c-0.3,0.6-0.5,1.2-0.5,2v0.5c0,0.8,0.2,1.4,0.5,2c0.3,0.6,0.8,1.1,1.5,1.4
		s1.4,0.5,2.2,0.5c0.7,0,1.4-0.1,1.9-0.4c0.6-0.2,1.1-0.6,1.5-1.1l1.6,1.9c-0.6,0.7-1.3,1.2-2.2,1.5
		C412.2,396.3,411.2,396.5,410.1,396.5z"/>
</g>
</svg>
