<?xml version="1.0" encoding="utf-8"?>
<!-- Generator: Adobe Illustrator 28.0.0, SVG Export Plug-In . SVG Version: 6.00 Build 0)  -->
<svg version="1.1" id="Layer_1" xmlns="http://www.w3.org/2000/svg" xmlns:xlink="http://www.w3.org/1999/xlink" x="0px" y="0px"
	 viewBox="0 0 66 66" style="enable-background:new 0 0 66 66;" xml:space="preserve">
<path d="M47.5,28.5c0.5,0.6,1.2,1,1.9,1s1.5-0.4,1.9-1l5.4-7.2c0.6-0.7,0.6-1.7,0.2-2.5c-0.4-0.8-1.2-1.3-2.2-1.3H44.1
	c-0.9,0-1.8,0.5-2.2,1.3s-0.3,1.8,0.2,2.5L47.5,28.5z M43.7,19.7c0-0.1,0.2-0.2,0.4-0.2h10.8c0.2,0,0.3,0.1,0.4,0.2
	c0,0.1,0.1,0.3,0,0.5l-5.4,7.2c-0.1,0.2-0.3,0.2-0.3,0.2s-0.2,0-0.3-0.2l-5.4-7.2C43.6,19.9,43.7,19.8,43.7,19.7z M65.3,6.2H0.7v2
	H32V37H0.7v2h39.7l3.2,16.2c0.1,0.3,0.3,0.6,0.6,0.7s0.7,0.1,0.9-0.1l3.1-1.9l3.1,5.3c0.1,0.2,0.4,0.4,0.6,0.5c0.1,0,0.1,0,0.2,0
	c0.2,0,0.4-0.1,0.5-0.2l4.5-2.9c0.2-0.2,0.4-0.4,0.4-0.7c0.1-0.3,0-0.5-0.2-0.8l-3.6-5.2l2.6-1.6c0.3-0.2,0.4-0.5,0.5-0.8
	c0-0.3-0.1-0.6-0.3-0.8l-9-7.7h17.8V6.2z M54.2,47.5L52,49c-0.2,0.1-0.4,0.4-0.4,0.6c-0.1,0.3,0,0.5,0.1,0.8l3.6,5.2l-2.7,1.8
	l-3.1-5.3c-0.1-0.2-0.4-0.4-0.6-0.5c-0.1,0-0.2,0-0.2,0c-0.2,0-0.4,0.1-0.5,0.1l-2.7,1.7l-3-14.4h2L54.2,47.5z M63.3,37H45.2l-4-3.5
	c-0.3-0.3-0.8-0.3-1.2-0.1s-0.6,0.6-0.5,1.1L40,37h-6V8.2h29.3V37z"/>
</svg>
