<?xml version="1.0" encoding="utf-8"?>
<!-- Generator: Adobe Illustrator 28.0.0, SVG Export Plug-In . SVG Version: 6.00 Build 0)  -->
<svg version="1.1" id="Layer_1" xmlns="http://www.w3.org/2000/svg" xmlns:xlink="http://www.w3.org/1999/xlink" x="0px" y="0px"
	 viewBox="0 0 585 585" style="enable-background:new 0 0 585 585;" xml:space="preserve">
<style type="text/css">
	.st0{fill:#8CC63F;}
	.st1{fill:#FFFFFF;}
	.st2{fill:#86BD40;}
</style>
<path d="M202.8,129v176h176V129H202.8z M372.2,298.3H209.8V135.9h162.4V298.3z M243.6,220.9c-1.7-1.7-1.7-4.4,0-6
	c1.7-1.7,4.4-1.7,6,0l21.3,26.9l64.4-69c1.7-1.6,4.4-1.6,6,0.1s1.6,4.4-0.1,6L274,250.8l-0.1,0.1c-0.8,0.8-1.9,1.2-3,1.2
	c-0.6,0-1.2-0.1-1.7-0.3c-0.2-0.1-0.5-0.2-0.7-0.3s-0.5-0.3-0.7-0.6L243.6,220.9z"/>
<path class="st0" d="M570.7,429.6H141.5c-3,0-5.4-2.4-5.4-5.4v-77.8c0-3,2.4-5.4,5.4-5.4h429.2c3,0,5.4,2.4,5.4,5.4v77.8
	C576.1,427.2,573.7,429.6,570.7,429.6z"/>
<circle class="st1" cx="88" cy="385.3" r="80.3"/>
<path class="st0" d="M87.9,461.6c-42.1,0-76.3-34.2-76.3-76.3S45.8,309,87.9,309s76.3,34.2,76.3,76.3S130,461.6,87.9,461.6z
	 M87.9,331.1c-29.9,0-54.2,24.3-54.2,54.2s24.3,54.2,54.2,54.2s54.2-24.3,54.2-54.2S117.8,331.1,87.9,331.1z"/>
<path class="st2" d="M75.6,352.4c-0.7-0.7-1.7-0.7-2.3-0.1l0.6-0.6v-1.1H52.4V372h21.5v-15.6l1.7-1.7
	C76.3,354.1,76.3,353.1,75.6,352.4z M71.4,369.6H54.9v-16.5h16.5v1.1l-8.3,8.1l-3.2-3.2c-0.7-0.7-1.7-0.7-2.3,0
	c-0.7,0.7-0.7,1.8,0,2.3l4.3,4.3c0.1,0.1,0.2,0.1,0.2,0.2c0.1,0.1,0.2,0.1,0.3,0.1c0.2,0.1,0.4,0.1,0.7,0.1c0.4,0,0.8-0.1,1.1-0.4
	l0,0l7.1-7L71.4,369.6L71.4,369.6z M122.6,367.1H79.9c-0.4,0-0.8-0.3-0.8-0.8v-2.7c0-0.4,0.3-0.8,0.8-0.8h42.6
	c0.4,0,0.8,0.3,0.8,0.8v2.7C123.3,366.8,123,367.1,122.6,367.1z M75.6,376.3c-0.7-0.7-1.7-0.7-2.3-0.1l0.6-0.6v-1.1H52.4V396h21.5
	v-15.6l1.7-1.7C76.3,378.1,76.3,377,75.6,376.3z M71.4,393.6H54.9V377h16.5v1.1l-8.3,8.1l-3.2-3.1c-0.7-0.7-1.7-0.7-2.3,0
	c-0.7,0.7-0.7,1.7,0,2.3l4.3,4.3c0.1,0.1,0.2,0.1,0.2,0.2c0.1,0.1,0.2,0.1,0.3,0.1c0.2,0.1,0.4,0.1,0.7,0.1c0.4,0,0.8-0.1,1.1-0.4
	l0,0l7.1-7L71.4,393.6C71.3,393.6,71.4,393.6,71.4,393.6z M122.6,391.2H79.9c-0.4,0-0.8-0.3-0.8-0.8v-2.7c0-0.4,0.3-0.8,0.8-0.8
	h42.6c0.4,0,0.8,0.3,0.8,0.8v2.7C123.3,390.7,123,391.2,122.6,391.2z M75.6,400.4c-0.7-0.7-1.7-0.7-2.3-0.1l0.6-0.6v-1.1H52.4v21.5
	h21.5v-15.7l1.7-1.7C76.3,402.1,76.3,401,75.6,400.4z M71.4,417.5H54.9V401h16.5v1.1l-8.3,8.1l-3.2-3.2c-0.7-0.7-1.7-0.7-2.3,0
	c-0.7,0.7-0.7,1.7,0,2.3l4.3,4.3c0.1,0.1,0.2,0.1,0.2,0.2c0.1,0.2,0.2,0.2,0.3,0.2c0.2,0.1,0.4,0.1,0.7,0.1c0.4,0,0.8-0.1,1.1-0.4
	l0,0l7.1-7L71.4,417.5L71.4,417.5z M122.6,415.1H79.9c-0.4,0-0.8-0.3-0.8-0.8v-2.7c0-0.4,0.3-0.8,0.8-0.8h42.6
	c0.4,0,0.8,0.3,0.8,0.8v2.7C123.3,414.8,123,415.1,122.6,415.1z"/>
<path class="st1" d="M177.7,379.3l7.6-16.8h3.1l7.6,16.8h-3.3l-6.5-15.1h1.2l-6.5,15.1H177.7z M181.1,375.4l0.9-2.4h9l0.8,2.4H181.1
	z M197.7,384v-17.5h2.9v3l-0.1,3.4l0.2,3.4v7.6h-3V384z M204.8,379.5c-1.1,0-2-0.2-2.9-0.7s-1.5-1.2-2-2.2s-0.7-2.2-0.7-3.7
	s0.2-2.7,0.7-3.7s1.1-1.7,2-2.2s1.8-0.7,2.9-0.7c1.2,0,2.4,0.3,3.3,0.8c1,0.5,1.7,1.3,2.3,2.3s0.9,2.1,0.9,3.5
	c0,1.3-0.3,2.5-0.9,3.5c-0.6,1-1.3,1.7-2.3,2.3C207.2,379.2,206,379.5,204.8,379.5z M204.4,376.9c0.7,0,1.4-0.2,2-0.5s1-0.8,1.4-1.4
	s0.5-1.3,0.5-2.1c0-0.8-0.2-1.5-0.5-2.1s-0.8-1.1-1.4-1.4s-1.2-0.5-2-0.5c-0.7,0-1.3,0.2-1.9,0.5s-1,0.8-1.4,1.4
	c-0.3,0.6-0.5,1.3-0.5,2.1c0,0.8,0.2,1.5,0.5,2.1s0.8,1.1,1.4,1.4S203.7,376.9,204.4,376.9z M214.2,384v-17.5h2.9v3l-0.1,3.4
	l0.2,3.4v7.6h-3V384z M221.3,379.5c-1.1,0-2-0.2-2.9-0.7s-1.5-1.2-2-2.2s-0.7-2.2-0.7-3.7s0.2-2.7,0.7-3.7s1.1-1.7,2-2.2
	s1.8-0.7,2.9-0.7c1.2,0,2.4,0.3,3.3,0.8c1,0.5,1.7,1.3,2.3,2.3s0.9,2.1,0.9,3.5c0,1.3-0.3,2.5-0.9,3.5c-0.6,1-1.3,1.7-2.3,2.3
	C223.6,379.2,222.5,379.5,221.3,379.5z M220.9,376.9c0.7,0,1.4-0.2,2-0.5s1-0.8,1.4-1.4s0.5-1.3,0.5-2.1c0-0.8-0.2-1.5-0.5-2.1
	s-0.8-1.1-1.4-1.4s-1.2-0.5-2-0.5c-0.7,0-1.3,0.2-1.9,0.5s-1,0.8-1.4,1.4c-0.3,0.6-0.5,1.3-0.5,2.1c0,0.8,0.2,1.5,0.5,2.1
	s0.8,1.1,1.4,1.4S220.2,376.9,220.9,376.9z M230.6,379.3v-12.8h2.9v3.5l-0.3-1c0.4-0.9,1-1.5,1.8-2s1.8-0.7,3-0.7v2.9
	c-0.1,0-0.2,0-0.3,0s-0.2,0-0.3,0c-1.2,0-2.1,0.3-2.7,1c-0.7,0.7-1,1.7-1,3v6.2h-3.1V379.3z M246.5,379.5c-1.3,0-2.5-0.3-3.5-0.9
	s-1.8-1.3-2.4-2.3c-0.6-1-0.9-2.1-0.9-3.4s0.3-2.4,0.9-3.4c0.6-1,1.4-1.7,2.4-2.3c1-0.6,2.2-0.9,3.5-0.9s2.5,0.3,3.5,0.9
	s1.8,1.3,2.4,2.3c0.6,1,0.9,2.1,0.9,3.4s-0.3,2.4-0.9,3.4c-0.6,1-1.4,1.8-2.4,2.3C248.9,379.2,247.8,379.5,246.5,379.5z
	 M246.5,376.9c0.7,0,1.4-0.2,2-0.5s1-0.8,1.4-1.4c0.3-0.6,0.5-1.3,0.5-2.1c0-0.8-0.2-1.5-0.5-2.1s-0.8-1.1-1.4-1.4
	c-0.6-0.3-1.2-0.5-1.9-0.5s-1.4,0.2-1.9,0.5c-0.6,0.3-1,0.8-1.4,1.4c-0.3,0.6-0.5,1.3-0.5,2.1c0,0.8,0.2,1.5,0.5,2.1
	s0.8,1.1,1.4,1.4C245.1,376.8,245.8,376.9,246.5,376.9z M259.6,379.3l-5.5-12.8h3.1l4.8,11.3h-1.5l4.9-11.3h2.9l-5.5,12.8H259.6z
	 M276.1,379.5c-1.4,0-2.7-0.3-3.7-0.9c-1.1-0.6-1.9-1.3-2.5-2.3s-0.9-2.1-0.9-3.4s0.3-2.4,0.9-3.4s1.4-1.8,2.4-2.3
	c1-0.6,2.1-0.9,3.4-0.9c1.2,0,2.4,0.3,3.3,0.8c1,0.6,1.7,1.3,2.3,2.3s0.8,2.2,0.8,3.5c0,0.1,0,0.3,0,0.4c0,0.2,0,0.3,0,0.4h-10.7v-2
	h9.1l-1.2,0.6c0-0.7-0.1-1.4-0.4-1.9c-0.3-0.6-0.7-1-1.3-1.3c-0.5-0.3-1.2-0.5-1.9-0.5c-0.7,0-1.4,0.2-1.9,0.5
	c-0.6,0.3-1,0.8-1.3,1.3c-0.3,0.6-0.5,1.2-0.5,2v0.5c0,0.8,0.2,1.4,0.5,2s0.8,1.1,1.5,1.4c0.6,0.3,1.4,0.5,2.2,0.5
	c0.7,0,1.4-0.1,1.9-0.4c0.6-0.2,1.1-0.6,1.5-1.1l1.6,1.9c-0.6,0.7-1.3,1.2-2.2,1.5C278.2,379.3,277.2,379.5,276.1,379.5z
	 M342.5,379.3v-16.8h6.9c1.5,0,2.8,0.2,3.8,0.7s1.9,1.2,2.5,2.1s0.9,2,0.9,3.2s-0.3,2.3-0.9,3.2c-0.6,0.9-1.4,1.6-2.5,2
	c-1.1,0.5-2.3,0.7-3.8,0.7h-5.2l1.4-1.4v6.3L342.5,379.3L342.5,379.3z M345.6,373.3l-1.4-1.5h5c1.4,0,2.4-0.3,3.1-0.9s1-1.4,1-2.5
	s-0.3-1.9-1-2.5s-1.7-0.9-3.1-0.9h-5l1.4-1.5V373.3z M353.5,379.3l-4.2-6.1h3.3l4.3,6.1H353.5z M363.6,379.5c-1,0-1.8-0.2-2.5-0.5
	s-1.3-0.8-1.7-1.4c-0.4-0.6-0.6-1.2-0.6-2c0-0.7,0.2-1.4,0.5-1.9c0.3-0.6,0.9-1,1.7-1.4c0.8-0.3,1.8-0.5,3.1-0.5h3.7v2h-3.5
	c-1,0-1.7,0.2-2.1,0.5s-0.5,0.7-0.5,1.2s0.2,1,0.6,1.3s1,0.5,1.8,0.5c0.7,0,1.4-0.2,2-0.5s1-0.8,1.3-1.5l0.5,1.8
	c-0.3,0.8-0.8,1.3-1.5,1.8S364.8,379.5,363.6,379.5z M367.7,379.3v-2.6l-0.1-0.5v-4.5c0-0.9-0.3-1.6-0.8-2.1s-1.3-0.7-2.4-0.7
	c-0.7,0-1.4,0.1-2.1,0.3c-0.7,0.2-1.3,0.5-1.8,0.9l-1.2-2.2c0.7-0.5,1.5-0.9,2.5-1.2c0.9-0.3,1.9-0.4,3-0.4c1.9,0,3.3,0.4,4.3,1.3
	s1.5,2.3,1.5,4.1v7.5h-2.9V379.3z M372.6,369v-2.4h8.5v2.4H372.6z M379.2,379.5c-1.4,0-2.5-0.4-3.3-1.1s-1.2-1.8-1.2-3.2v-11.5h3
	v11.4c0,0.6,0.2,1.1,0.5,1.4s0.8,0.5,1.3,0.5c0.7,0,1.2-0.2,1.6-0.5l0.9,2.1c-0.4,0.3-0.8,0.5-1.3,0.6
	C380.2,379.4,379.7,379.5,379.2,379.5z M390.5,379.5c-1.4,0-2.7-0.3-3.7-0.9c-1.1-0.6-1.9-1.3-2.5-2.3s-0.9-2.1-0.9-3.4
	s0.3-2.4,0.9-3.4s1.4-1.8,2.4-2.3s2.1-0.9,3.4-0.9c1.2,0,2.4,0.3,3.3,0.8c1,0.6,1.7,1.3,2.3,2.3c0.6,1,0.8,2.2,0.8,3.5
	c0,0.1,0,0.3,0,0.4s0,0.3,0,0.4h-10.7v-2h9.1l-1.2,0.6c0-0.7-0.1-1.4-0.4-1.9c-0.3-0.6-0.7-1-1.3-1.3c-0.5-0.3-1.2-0.5-1.9-0.5
	c-0.7,0-1.4,0.2-1.9,0.5c-0.6,0.3-1,0.8-1.3,1.3c-0.3,0.6-0.5,1.2-0.5,2v0.5c0,0.8,0.2,1.4,0.5,2s0.8,1.1,1.5,1.4s1.4,0.5,2.2,0.5
	c0.7,0,1.4-0.1,1.9-0.4c0.6-0.2,1.1-0.6,1.5-1.1l1.6,1.9c-0.6,0.7-1.3,1.2-2.2,1.5C392.6,379.3,391.6,379.5,390.5,379.5z
	 M399.5,379.3v-12.8h2.9v3.5l-0.3-1c0.4-0.9,1-1.5,1.8-2s1.8-0.7,3-0.7v2.9c-0.1,0-0.2,0-0.3,0c-0.1,0-0.2,0-0.3,0
	c-1.2,0-2.1,0.3-2.7,1c-0.7,0.7-1,1.7-1,3v6.2h-3.1V379.3z M416.4,379.3v-16.8h3.1v14.2h8.8v2.6L416.4,379.3L416.4,379.3z
	 M432,364.4c-0.6,0-1-0.2-1.4-0.5c-0.4-0.4-0.5-0.8-0.5-1.3s0.2-0.9,0.5-1.2c0.4-0.4,0.8-0.5,1.4-0.5s1,0.2,1.4,0.5s0.5,0.7,0.5,1.3
	c0,0.5-0.2,0.9-0.5,1.3C433,364.2,432.6,364.4,432,364.4z M430.5,379.3v-12.8h3v12.8H430.5z M441.4,379.5c-1.1,0-2.1-0.1-3.1-0.4
	s-1.8-0.6-2.4-1l1.2-2.3c0.6,0.4,1.3,0.7,2.1,0.9c0.8,0.2,1.6,0.3,2.4,0.3c0.9,0,1.6-0.1,2-0.4s0.6-0.6,0.6-1s-0.1-0.6-0.4-0.8
	c-0.3-0.2-0.7-0.3-1.1-0.4s-1-0.2-1.5-0.3c-0.6-0.1-1.1-0.2-1.7-0.3s-1.1-0.3-1.5-0.6c-0.5-0.3-0.8-0.6-1.1-1.1s-0.4-1-0.4-1.8
	s0.2-1.5,0.7-2.1s1.1-1.1,2-1.4c0.8-0.3,1.8-0.5,3-0.5c0.8,0,1.7,0.1,2.6,0.3c0.9,0.2,1.6,0.5,2.2,0.8l-1.2,2.3
	c-0.6-0.4-1.2-0.6-1.8-0.7s-1.2-0.2-1.8-0.2c-0.9,0-1.6,0.1-2,0.4s-0.7,0.6-0.7,1s0.1,0.7,0.4,0.9c0.3,0.2,0.7,0.3,1.1,0.4
	c0.5,0.1,1,0.2,1.5,0.3c0.6,0.1,1.1,0.2,1.7,0.3c0.6,0.1,1.1,0.3,1.5,0.6s0.9,0.6,1.1,1c0.3,0.4,0.4,1,0.4,1.8s-0.2,1.5-0.7,2.1
	s-1.1,1-2,1.4C443.7,379.3,442.6,379.5,441.4,379.5z M448.1,369v-2.4h8.5v2.4H448.1z M454.6,379.5c-1.4,0-2.5-0.4-3.3-1.1
	s-1.2-1.8-1.2-3.2v-11.5h3v11.4c0,0.6,0.2,1.1,0.5,1.4s0.8,0.5,1.3,0.5c0.7,0,1.2-0.2,1.6-0.5l0.9,2.1c-0.4,0.3-0.8,0.5-1.3,0.6
	C455.7,379.4,455.2,379.5,454.6,379.5z M464.9,369v-2.4h8.5v2.4H464.9z M467,379.3v-13.5c0-1.4,0.4-2.4,1.2-3.3s1.9-1.2,3.4-1.2
	c0.5,0,1,0.1,1.5,0.2s0.9,0.3,1.2,0.5l-0.8,2.2c-0.2-0.1-0.5-0.3-0.7-0.4c-0.3-0.1-0.6-0.1-0.9-0.1c-0.6,0-1.1,0.2-1.4,0.5
	s-0.5,0.9-0.5,1.5v1.5l0.1,1.3v10.7L467,379.3L467,379.3z M481.2,379.5c-1.3,0-2.5-0.3-3.5-0.9s-1.8-1.3-2.4-2.3s-0.9-2.1-0.9-3.4
	s0.3-2.4,0.9-3.4s1.4-1.7,2.4-2.3c1-0.6,2.2-0.9,3.5-0.9s2.5,0.3,3.5,0.9s1.8,1.3,2.4,2.3s0.9,2.1,0.9,3.4s-0.3,2.4-0.9,3.4
	s-1.4,1.8-2.4,2.3C483.7,379.2,482.5,379.5,481.2,379.5z M481.2,376.9c0.7,0,1.4-0.2,2-0.5s1-0.8,1.4-1.4c0.3-0.6,0.5-1.3,0.5-2.1
	c0-0.8-0.2-1.5-0.5-2.1s-0.8-1.1-1.4-1.4s-1.2-0.5-1.9-0.5c-0.7,0-1.4,0.2-1.9,0.5c-0.6,0.3-1,0.8-1.4,1.4c-0.3,0.6-0.5,1.3-0.5,2.1
	c0,0.8,0.2,1.5,0.5,2.1s0.8,1.1,1.4,1.4C479.9,376.8,480.5,376.9,481.2,376.9z M491,379.3v-12.8h2.9v3.5l-0.3-1c0.4-0.9,1-1.5,1.8-2
	s1.8-0.7,3-0.7v2.9c-0.1,0-0.2,0-0.3,0c-0.1,0-0.2,0-0.3,0c-1.2,0-2.1,0.3-2.7,1c-0.7,0.7-1,1.7-1,3v6.2H491V379.3z M508.7,384.1
	c-0.6,0-1.3-0.1-1.9-0.3s-1.1-0.5-1.5-0.9l1.2-2.2c0.3,0.3,0.6,0.5,1,0.6s0.8,0.2,1.2,0.2c0.5,0,1-0.1,1.3-0.4s0.6-0.7,0.9-1.4
	l0.7-1.6l0.3-0.4l4.8-11.3h2.9l-6,13.9c-0.4,0.9-0.8,1.7-1.3,2.2s-1,0.9-1.6,1.2C510.1,384,509.4,384.1,508.7,384.1z M511.3,379.8
	l-5.8-13.3h3.1l4.7,11.1L511.3,379.8z M527.3,379.5c-1.3,0-2.5-0.3-3.5-0.9s-1.8-1.3-2.4-2.3c-0.6-1-0.9-2.1-0.9-3.4
	s0.3-2.4,0.9-3.4c0.6-1,1.4-1.7,2.4-2.3c1-0.6,2.2-0.9,3.5-0.9s2.5,0.3,3.5,0.9s1.8,1.3,2.4,2.3c0.6,1,0.9,2.1,0.9,3.4
	s-0.3,2.4-0.9,3.4c-0.6,1-1.4,1.8-2.4,2.3C529.7,379.2,528.6,379.5,527.3,379.5z M527.3,376.9c0.7,0,1.4-0.2,2-0.5s1-0.8,1.4-1.4
	c0.3-0.6,0.5-1.3,0.5-2.1c0-0.8-0.2-1.5-0.5-2.1s-0.8-1.1-1.4-1.4s-1.2-0.5-1.9-0.5s-1.4,0.2-1.9,0.5c-0.6,0.3-1,0.8-1.4,1.4
	c-0.3,0.6-0.5,1.3-0.5,2.1c0,0.8,0.2,1.5,0.5,2.1s0.8,1.1,1.4,1.4C525.9,376.8,526.5,376.9,527.3,376.9z M542.4,379.5
	c-1.1,0-2-0.2-2.9-0.6c-0.8-0.4-1.5-1-2-1.9c-0.5-0.8-0.7-1.9-0.7-3.2v-7.3h3v6.9c0,1.1,0.3,2,0.8,2.6s1.3,0.9,2.2,0.9
	c0.7,0,1.3-0.1,1.8-0.4s0.9-0.7,1.2-1.3s0.4-1.3,0.4-2.1v-6.5h3v12.8h-2.9v-3.5l0.5,1.1c-0.4,0.8-1.1,1.4-1.9,1.9
	S543.4,379.5,542.4,379.5z M553.3,379.3v-12.8h2.9v3.5l-0.3-1c0.4-0.9,1-1.5,1.8-2s1.8-0.7,3-0.7v2.9c-0.1,0-0.2,0-0.3,0
	s-0.2,0-0.3,0c-1.2,0-2.1,0.3-2.7,1c-0.7,0.7-1,1.7-1,3v6.2h-3.1V379.3z M278.9,408.1v-14.2h-5.6v-2.6h14.3v2.6H282v14.2H278.9z
	 M295.7,408.3c-1.4,0-2.7-0.3-3.7-0.9c-1.1-0.6-1.9-1.3-2.5-2.3s-0.9-2.1-0.9-3.4s0.3-2.4,0.9-3.4s1.4-1.8,2.4-2.3
	c1-0.6,2.1-0.9,3.4-0.9c1.2,0,2.4,0.3,3.3,0.8c1,0.6,1.7,1.3,2.3,2.3c0.6,1,0.8,2.2,0.8,3.5c0,0.1,0,0.3,0,0.4c0,0.2,0,0.3,0,0.4
	H291v-2h9.1l-1.2,0.6c0-0.7-0.1-1.4-0.4-1.9c-0.3-0.6-0.7-1-1.3-1.3c-0.5-0.3-1.2-0.5-1.9-0.5c-0.7,0-1.4,0.2-1.9,0.5
	c-0.6,0.3-1,0.8-1.3,1.3c-0.3,0.6-0.5,1.2-0.5,2v0.5c0,0.8,0.2,1.4,0.5,2s0.8,1.1,1.5,1.4c0.6,0.3,1.4,0.5,2.2,0.5
	c0.7,0,1.4-0.1,1.9-0.4s1.1-0.6,1.5-1.1l1.6,1.9c-0.6,0.7-1.3,1.2-2.2,1.5C297.8,408.1,296.8,408.3,295.7,408.3z M308.4,408.3
	c-1,0-1.8-0.2-2.5-0.5s-1.3-0.8-1.7-1.4c-0.4-0.6-0.6-1.2-0.6-2c0-0.7,0.2-1.4,0.5-1.9c0.3-0.6,0.9-1,1.7-1.4s1.8-0.5,3.1-0.5h3.7v2
	h-3.5c-1,0-1.7,0.2-2.1,0.5s-0.5,0.7-0.5,1.2s0.2,1,0.6,1.3s1,0.5,1.8,0.5c0.7,0,1.4-0.2,2-0.5s1-0.8,1.3-1.5l0.5,1.8
	c-0.3,0.8-0.8,1.3-1.5,1.8C310.5,408.1,309.6,408.3,308.4,408.3z M312.5,408.1v-2.6l-0.1-0.5v-4.5c0-0.9-0.3-1.6-0.8-2.1
	s-1.3-0.7-2.4-0.7c-0.7,0-1.4,0.1-2.1,0.3c-0.7,0.2-1.3,0.5-1.8,0.9l-1.2-2.2c0.7-0.5,1.5-0.9,2.5-1.2c0.9-0.3,1.9-0.4,3-0.4
	c1.9,0,3.3,0.4,4.3,1.3s1.5,2.3,1.5,4.1v7.5h-2.9V408.1z M335.3,395.1c1,0,1.9,0.2,2.7,0.6s1.4,1,1.9,1.8s0.7,1.9,0.7,3.2v7.3h-3v-7
	c0-1.1-0.3-2-0.8-2.5c-0.5-0.6-1.2-0.8-2.1-0.8c-0.7,0-1.2,0.1-1.7,0.4s-0.9,0.7-1.2,1.3c-0.3,0.6-0.4,1.3-0.4,2.1v6.5h-3v-7
	c0-1.1-0.3-2-0.8-2.5c-0.5-0.6-1.2-0.8-2.1-0.8c-0.7,0-1.2,0.1-1.7,0.4s-0.9,0.7-1.2,1.3c-0.3,0.6-0.4,1.3-0.4,2.1v6.5h-3v-12.8h2.9
	v3.4l-0.5-1c0.4-0.8,1.1-1.4,1.9-1.9c0.8-0.4,1.8-0.7,2.8-0.7c1.2,0,2.2,0.3,3.1,0.9s1.5,1.5,1.8,2.7l-1.2-0.4
	c0.4-0.9,1.1-1.7,2-2.3S334,395.1,335.3,395.1z M351.3,408.1v-16.8h2.6l7.3,12.3h-1.3l7.2-12.3h2.6v16.8h-3v-12.2h0.6l-6.1,10.3
	h-1.4l-6.2-10.3h0.7v12.2H351.3z M379.9,408.3c-1.4,0-2.7-0.3-3.7-0.9c-1.1-0.6-1.9-1.3-2.5-2.3s-0.9-2.1-0.9-3.4s0.3-2.4,0.9-3.4
	s1.4-1.8,2.4-2.3s2.1-0.9,3.4-0.9c1.2,0,2.4,0.3,3.3,0.8c1,0.6,1.7,1.3,2.3,2.3c0.6,1,0.8,2.2,0.8,3.5c0,0.1,0,0.3,0,0.4
	s0,0.3,0,0.4h-10.7v-2h9.1l-1.2,0.6c0-0.7-0.1-1.4-0.4-1.9c-0.3-0.6-0.7-1-1.3-1.3c-0.5-0.3-1.2-0.5-1.9-0.5c-0.7,0-1.4,0.2-1.9,0.5
	c-0.6,0.3-1,0.8-1.3,1.3c-0.3,0.6-0.5,1.2-0.5,2v0.5c0,0.8,0.2,1.4,0.5,2s0.8,1.1,1.5,1.4s1.4,0.5,2.2,0.5c0.7,0,1.4-0.1,1.9-0.4
	c0.6-0.2,1.1-0.6,1.5-1.1l1.6,1.9c-0.6,0.7-1.3,1.2-2.2,1.5C382,408.1,381.1,408.3,379.9,408.3z M405,395.1c1,0,1.9,0.2,2.7,0.6
	s1.4,1,1.9,1.8c0.4,0.8,0.7,1.9,0.7,3.2v7.3h-3v-7c0-1.1-0.3-2-0.8-2.5c-0.5-0.6-1.2-0.8-2.1-0.8c-0.7,0-1.2,0.1-1.7,0.4
	s-0.9,0.7-1.2,1.3c-0.3,0.6-0.4,1.3-0.4,2.1v6.5h-3v-7c0-1.1-0.3-2-0.8-2.5c-0.5-0.6-1.2-0.8-2.1-0.8c-0.7,0-1.2,0.1-1.7,0.4
	s-0.9,0.7-1.2,1.3c-0.3,0.6-0.4,1.3-0.4,2.1v6.5h-3v-12.8h2.9v3.4l-0.5-1c0.4-0.8,1.1-1.4,1.9-1.9c0.8-0.4,1.8-0.7,2.8-0.7
	c1.2,0,2.2,0.3,3.1,0.9s1.5,1.5,1.8,2.7l-1.2-0.4c0.4-0.9,1.1-1.7,2-2.3S403.7,395.1,405,395.1z M414.1,408.1v-17.8h3v8l-0.2,3.4
	l0.1,3.4v3H414.1z M421.2,408.3c-1.1,0-2-0.2-2.9-0.7s-1.5-1.2-2-2.2s-0.7-2.2-0.7-3.7s0.2-2.7,0.7-3.7s1.2-1.7,2-2.2
	s1.8-0.7,2.9-0.7c1.2,0,2.4,0.3,3.3,0.8c1,0.5,1.7,1.3,2.3,2.3c0.6,1,0.9,2.1,0.9,3.5c0,1.3-0.3,2.5-0.9,3.5s-1.3,1.7-2.3,2.3
	C423.6,408,422.5,408.3,421.2,408.3z M420.9,405.7c0.7,0,1.4-0.2,2-0.5s1-0.8,1.4-1.4c0.3-0.6,0.5-1.3,0.5-2.1
	c0-0.8-0.2-1.5-0.5-2.1s-0.8-1.1-1.4-1.4s-1.2-0.5-2-0.5c-0.7,0-1.3,0.2-1.9,0.5s-1,0.8-1.4,1.4c-0.3,0.6-0.5,1.3-0.5,2.1
	c0,0.8,0.2,1.5,0.5,2.1s0.8,1.1,1.4,1.4C419.5,405.6,420.1,405.7,420.9,405.7z M436.6,408.3c-1.4,0-2.7-0.3-3.7-0.9
	c-1.1-0.6-1.9-1.3-2.5-2.3s-0.9-2.1-0.9-3.4s0.3-2.4,0.9-3.4s1.4-1.8,2.4-2.3s2.1-0.9,3.4-0.9c1.2,0,2.4,0.3,3.3,0.8
	c1,0.6,1.7,1.3,2.3,2.3c0.6,1,0.8,2.2,0.8,3.5c0,0.1,0,0.3,0,0.4s0,0.3,0,0.4h-10.7v-2h9.1l-1.2,0.6c0-0.7-0.1-1.4-0.4-1.9
	c-0.3-0.6-0.7-1-1.3-1.3c-0.5-0.3-1.2-0.5-1.9-0.5c-0.7,0-1.4,0.2-1.9,0.5c-0.6,0.3-1,0.8-1.3,1.3c-0.3,0.6-0.5,1.2-0.5,2v0.5
	c0,0.8,0.2,1.4,0.5,2s0.8,1.1,1.5,1.4s1.4,0.5,2.2,0.5c0.7,0,1.4-0.1,1.9-0.4c0.6-0.2,1.1-0.6,1.5-1.1l1.6,1.9
	c-0.6,0.7-1.3,1.2-2.2,1.5C438.7,408.1,437.7,408.3,436.6,408.3z M445.5,408.1v-12.8h2.9v3.5l-0.3-1c0.4-0.9,1-1.5,1.8-2
	s1.8-0.7,3-0.7v2.9c-0.1,0-0.2,0-0.3,0c-0.1,0-0.2,0-0.3,0c-1.2,0-2.1,0.3-2.7,1c-0.7,0.7-1,1.7-1,3v6.2h-3.1V408.1z M459.6,408.3
	c-1.1,0-2.1-0.1-3.1-0.4s-1.8-0.6-2.4-1l1.2-2.3c0.6,0.4,1.3,0.7,2.1,0.9c0.8,0.2,1.6,0.3,2.4,0.3c0.9,0,1.6-0.1,2-0.4
	s0.6-0.6,0.6-1s-0.1-0.6-0.4-0.8c-0.3-0.2-0.7-0.3-1.1-0.4s-1-0.2-1.5-0.3c-0.6-0.1-1.1-0.2-1.7-0.3s-1.1-0.3-1.5-0.6
	c-0.5-0.3-0.8-0.6-1.1-1.1s-0.4-1-0.4-1.8s0.2-1.5,0.7-2.1s1.1-1.1,2-1.4c0.8-0.3,1.8-0.5,3-0.5c0.8,0,1.7,0.1,2.6,0.3
	c0.9,0.2,1.6,0.5,2.2,0.8l-1.2,2.3c-0.6-0.4-1.2-0.6-1.8-0.7s-1.2-0.2-1.8-0.2c-0.9,0-1.6,0.1-2,0.4s-0.7,0.6-0.7,1s0.1,0.7,0.4,0.9
	c0.3,0.2,0.7,0.3,1.1,0.4c0.5,0.1,1,0.2,1.5,0.3c0.6,0.1,1.1,0.2,1.7,0.3c0.6,0.1,1.1,0.3,1.5,0.6s0.9,0.6,1.1,1
	c0.3,0.4,0.4,1,0.4,1.8s-0.2,1.5-0.7,2.1s-1.1,1-2,1.4C461.8,408.1,460.8,408.3,459.6,408.3z M295.8,379.8c-1.2,0-2.3-0.2-3.4-0.5
	s-2.1-0.8-2.8-1.4l1.3-2.4c0.6,0.5,1.4,0.9,2.2,1.2c0.9,0.3,1.8,0.5,2.7,0.5c1.1,0,2-0.2,2.6-0.7c0.6-0.5,1-1.1,1-1.9
	c0-0.8-0.3-1.4-0.9-1.8s-1.5-0.7-2.8-0.7h-1.5v-2.1l4.8-5.7l0.4,1.2h-9v-2.6h11.4v2.1l-4.8,5.7l-1.6-0.9h1c2,0,3.6,0.5,4.6,1.4
	s1.5,2.1,1.5,3.5c0,0.9-0.2,1.8-0.7,2.6c-0.5,0.8-1.2,1.5-2.2,1.9C298.6,379.5,297.3,379.8,295.8,379.8z M311.8,379.8
	c-1.5,0-2.8-0.3-3.9-1c-1.1-0.6-1.9-1.6-2.5-2.8c-0.6-1.2-0.9-2.8-0.9-4.5c0-1.9,0.3-3.6,1-4.9c0.7-1.3,1.7-2.3,2.9-3
	c1.2-0.7,2.7-1,4.3-1c0.8,0,1.6,0.1,2.4,0.3c0.8,0.2,1.5,0.4,2,0.8l-1.2,2.4c-0.5-0.3-1-0.5-1.5-0.6c-0.5-0.1-1.1-0.2-1.7-0.2
	c-1.6,0-2.8,0.5-3.8,1.5c-0.9,1-1.4,2.4-1.4,4.3c0,0.3,0,0.7,0,1.1c0,0.4,0.1,0.8,0.2,1.2l-1-1c0.3-0.7,0.7-1.2,1.2-1.6
	c0.5-0.4,1.1-0.8,1.8-1c0.7-0.2,1.5-0.3,2.3-0.3c1.1,0,2.1,0.2,3,0.6c0.9,0.4,1.6,1,2.1,1.8c0.5,0.8,0.8,1.7,0.8,2.7
	c0,1.1-0.3,2-0.8,2.9c-0.5,0.8-1.3,1.5-2.2,1.9C314,379.5,312.9,379.8,311.8,379.8z M311.6,377.3c0.6,0,1.2-0.1,1.7-0.3
	c0.5-0.2,0.9-0.6,1.2-1c0.3-0.4,0.4-0.9,0.4-1.5c0-0.9-0.3-1.6-0.9-2.1c-0.6-0.5-1.4-0.8-2.4-0.8c-0.7,0-1.3,0.1-1.8,0.4
	c-0.5,0.2-0.9,0.6-1.2,1c-0.3,0.4-0.4,0.9-0.4,1.5c0,0.5,0.1,1,0.4,1.4s0.7,0.8,1.2,1C310.3,377.2,310.9,377.3,311.6,377.3z
	 M326.6,379.8c-1.3,0-2.5-0.3-3.6-1c-1.1-0.7-1.9-1.7-2.5-2.9s-0.9-2.9-0.9-4.7c0-1.8,0.3-3.4,0.9-4.7s1.5-2.3,2.5-2.9
	c1.1-0.7,2.3-1,3.6-1c1.3,0,2.5,0.3,3.6,1c1.1,0.7,1.9,1.7,2.5,2.9c0.6,1.3,0.9,2.9,0.9,4.7c0,1.8-0.3,3.4-0.9,4.7
	c-0.6,1.3-1.5,2.3-2.5,2.9C329.1,379.4,327.9,379.8,326.6,379.8z M326.6,377c0.8,0,1.4-0.2,2-0.6c0.6-0.4,1-1.1,1.4-2
	c0.3-0.9,0.5-2,0.5-3.3c0-1.3-0.2-2.5-0.5-3.3c-0.3-0.9-0.8-1.5-1.4-2c-0.6-0.4-1.2-0.6-2-0.6c-0.8,0-1.4,0.2-2,0.6
	c-0.6,0.4-1,1.1-1.4,2c-0.3,0.9-0.5,2-0.5,3.3c0,1.3,0.2,2.5,0.5,3.3c0.3,0.9,0.8,1.5,1.4,2C325.2,376.8,325.8,377,326.6,377z"/>
</svg>
