<?xml version="1.0" encoding="utf-8"?>
<!-- Generator: Adobe Illustrator 28.0.0, SVG Export Plug-In . SVG Version: 6.00 Build 0)  -->
<svg version="1.1" id="Layer_1" xmlns="http://www.w3.org/2000/svg" xmlns:xlink="http://www.w3.org/1999/xlink" x="0px" y="0px"
	 viewBox="0 0 585 585" style="enable-background:new 0 0 585 585;" xml:space="preserve">
<style type="text/css">
	.st0{fill:#8CC63F;}
	.st1{fill:#FFFFFF;}
	.st2{fill:#86BD40;}
</style>
<g>
	<path class="st0" d="M570,449.2H140.8c-3,0-5.4-2.4-5.4-5.4V366c0-3,2.4-5.4,5.4-5.4H570c3,0,5.4,2.4,5.4,5.4v77.8
		C575.4,446.8,573,449.2,570,449.2z"/>
	<circle class="st1" cx="88.7" cy="404.9" r="81.3"/>
	<path class="st0" d="M88.7,482.2c-42.6,0-77.3-34.7-77.3-77.3s34.7-77.3,77.3-77.3s77.3,34.7,77.3,77.3S131.3,482.2,88.7,482.2z
		 M88.7,350c-30.3,0-54.8,24.6-54.8,54.8c0,30.3,24.6,54.8,54.8,54.8s54.8-24.6,54.8-54.8S119,350,88.7,350z"/>
	<path class="st2" d="M75.7,372.5c-0.7-0.7-1.7-0.7-2.3-0.1l0.6-0.6v-1.1H52.5v21.4H74v-15.6l1.7-1.7
		C76.4,374.2,76.4,373.2,75.7,372.5z M71.5,389.7H55v-16.5h16.5v1.1l-8.3,8.1l-3.2-3.2c-0.7-0.7-1.7-0.7-2.3,0
		c-0.7,0.7-0.7,1.8,0,2.3l4.3,4.3c0.1,0.1,0.2,0.1,0.2,0.2c0.1,0.1,0.2,0.1,0.3,0.1c0.2,0.1,0.4,0.1,0.7,0.1c0.4,0,0.8-0.1,1.1-0.4
		l0,0l7.1-7L71.5,389.7L71.5,389.7z M122.7,387.2H80c-0.4,0-0.8-0.3-0.8-0.8v-2.7c0-0.4,0.3-0.8,0.8-0.8h42.6c0.4,0,0.8,0.3,0.8,0.8
		v2.7C123.4,386.9,123.1,387.2,122.7,387.2z M75.7,396.4c-0.7-0.7-1.7-0.7-2.3-0.1l0.6-0.6v-1.1H52.5v21.5H74v-15.6l1.7-1.7
		C76.4,398.2,76.4,397.1,75.7,396.4z M71.5,413.7H55v-16.6h16.5v1.1l-8.3,8.1l-3.2-3.1c-0.7-0.7-1.7-0.7-2.3,0
		c-0.7,0.7-0.7,1.7,0,2.3l4.3,4.3c0.1,0.1,0.2,0.1,0.2,0.2c0.1,0.1,0.2,0.1,0.3,0.1c0.2,0.1,0.4,0.1,0.7,0.1c0.4,0,0.8-0.1,1.1-0.4
		l0,0l7.1-7L71.5,413.7C71.4,413.7,71.5,413.7,71.5,413.7z M122.7,411.3H80c-0.4,0-0.8-0.3-0.8-0.8v-2.7c0-0.4,0.3-0.8,0.8-0.8h42.6
		c0.4,0,0.8,0.3,0.8,0.8v2.7C123.4,410.8,123.1,411.3,122.7,411.3z M75.7,420.5c-0.7-0.7-1.7-0.7-2.3-0.1l0.6-0.6v-1.1H52.5v21.5H74
		v-15.7l1.7-1.7C76.4,422.2,76.4,421.1,75.7,420.5z M71.5,437.6H55v-16.5h16.5v1.1l-8.3,8.1l-3.2-3.2c-0.7-0.7-1.7-0.7-2.3,0
		c-0.7,0.7-0.7,1.7,0,2.3l4.3,4.3c0.1,0.1,0.2,0.1,0.2,0.2c0.1,0.2,0.2,0.2,0.3,0.2c0.2,0.1,0.4,0.1,0.7,0.1c0.4,0,0.8-0.1,1.1-0.4
		l0,0l7.1-7L71.5,437.6L71.5,437.6z M122.7,435.2H80c-0.4,0-0.8-0.3-0.8-0.8v-2.7c0-0.4,0.3-0.8,0.8-0.8h42.6c0.4,0,0.8,0.3,0.8,0.8
		v2.7C123.4,434.9,123.1,435.2,122.7,435.2z"/>
	<path class="st1" d="M179.6,398.8l7.6-16.8h3.1l7.6,16.8h-3.3l-6.5-15.1h1.2l-6.5,15.1H179.6z M183,394.9l0.9-2.4h9l0.8,2.4H183z
		 M199.6,403.5V386h2.9v3l-0.1,3.4l0.2,3.4v7.6h-3L199.6,403.5L199.6,403.5z M206.7,399c-1.1,0-2-0.2-2.9-0.7s-1.5-1.2-2-2.2
		s-0.7-2.2-0.7-3.7s0.2-2.7,0.7-3.7s1.1-1.7,2-2.2s1.8-0.7,2.9-0.7c1.2,0,2.4,0.3,3.3,0.8c1,0.5,1.7,1.3,2.3,2.3s0.9,2.1,0.9,3.5
		c0,1.3-0.3,2.5-0.9,3.5c-0.6,1-1.3,1.7-2.3,2.3C209.1,398.7,207.9,399,206.7,399z M206.3,396.4c0.7,0,1.4-0.2,2-0.5s1-0.8,1.4-1.4
		s0.5-1.3,0.5-2.1c0-0.8-0.2-1.5-0.5-2.1s-0.8-1.1-1.4-1.4s-1.2-0.5-2-0.5c-0.7,0-1.3,0.2-1.9,0.5s-1,0.8-1.4,1.4
		c-0.3,0.6-0.5,1.3-0.5,2.1c0,0.8,0.2,1.5,0.5,2.1s0.8,1.1,1.4,1.4S205.6,396.4,206.3,396.4z M216.1,403.5V386h2.9v3l-0.1,3.4
		l0.2,3.4v7.6h-3L216.1,403.5L216.1,403.5z M223.2,399c-1.1,0-2-0.2-2.9-0.7s-1.5-1.2-2-2.2s-0.7-2.2-0.7-3.7s0.2-2.7,0.7-3.7
		s1.1-1.7,2-2.2s1.8-0.7,2.9-0.7c1.2,0,2.4,0.3,3.3,0.8c1,0.5,1.7,1.3,2.3,2.3s0.9,2.1,0.9,3.5c0,1.3-0.3,2.5-0.9,3.5
		c-0.6,1-1.3,1.7-2.3,2.3C225.5,398.7,224.4,399,223.2,399z M222.8,396.4c0.7,0,1.4-0.2,2-0.5s1-0.8,1.4-1.4s0.5-1.3,0.5-2.1
		c0-0.8-0.2-1.5-0.5-2.1s-0.8-1.1-1.4-1.4s-1.2-0.5-2-0.5c-0.7,0-1.3,0.2-1.9,0.5s-1,0.8-1.4,1.4c-0.3,0.6-0.5,1.3-0.5,2.1
		c0,0.8,0.2,1.5,0.5,2.1s0.8,1.1,1.4,1.4S222.1,396.4,222.8,396.4z M232.5,398.8V386h2.9v3.5l-0.3-1c0.4-0.9,1-1.5,1.8-2
		s1.8-0.7,3-0.7v2.9c-0.1,0-0.2,0-0.3,0s-0.2,0-0.3,0c-1.2,0-2.1,0.3-2.7,1c-0.7,0.7-1,1.7-1,3v6.2h-3.1L232.5,398.8L232.5,398.8z
		 M248.4,399c-1.3,0-2.5-0.3-3.5-0.9s-1.8-1.3-2.4-2.3c-0.6-1-0.9-2.1-0.9-3.4s0.3-2.4,0.9-3.4c0.6-1,1.4-1.7,2.4-2.3
		c1-0.6,2.2-0.9,3.5-0.9s2.5,0.3,3.5,0.9s1.8,1.3,2.4,2.3c0.6,1,0.9,2.1,0.9,3.4s-0.3,2.4-0.9,3.4c-0.6,1-1.4,1.8-2.4,2.3
		C250.8,398.7,249.7,399,248.4,399z M248.4,396.4c0.7,0,1.4-0.2,2-0.5s1-0.8,1.4-1.4c0.3-0.6,0.5-1.3,0.5-2.1c0-0.8-0.2-1.5-0.5-2.1
		s-0.8-1.1-1.4-1.4c-0.6-0.3-1.2-0.5-1.9-0.5s-1.4,0.2-1.9,0.5c-0.6,0.3-1,0.8-1.4,1.4c-0.3,0.6-0.5,1.3-0.5,2.1
		c0,0.8,0.2,1.5,0.5,2.1s0.8,1.1,1.4,1.4C247,396.3,247.7,396.4,248.4,396.4z M261.5,398.8L256,386h3.1l4.8,11.3h-1.5l4.9-11.3h2.9
		l-5.5,12.8H261.5z M278,399c-1.4,0-2.7-0.3-3.7-0.9c-1.1-0.6-1.9-1.3-2.5-2.3s-0.9-2.1-0.9-3.4s0.3-2.4,0.9-3.4s1.4-1.8,2.4-2.3
		c1-0.6,2.1-0.9,3.4-0.9c1.2,0,2.4,0.3,3.3,0.8c1,0.6,1.7,1.3,2.3,2.3s0.8,2.2,0.8,3.5c0,0.1,0,0.3,0,0.4c0,0.2,0,0.3,0,0.4h-10.7
		v-2h9.1l-1.2,0.6c0-0.7-0.1-1.4-0.4-1.9c-0.3-0.6-0.7-1-1.3-1.3c-0.5-0.3-1.2-0.5-1.9-0.5c-0.7,0-1.4,0.2-1.9,0.5
		c-0.6,0.3-1,0.8-1.3,1.3c-0.3,0.6-0.5,1.2-0.5,2v0.5c0,0.8,0.2,1.4,0.5,2s0.8,1.1,1.5,1.4c0.6,0.3,1.4,0.5,2.2,0.5
		c0.7,0,1.4-0.1,1.9-0.4c0.6-0.2,1.1-0.6,1.5-1.1l1.6,1.9c-0.6,0.7-1.3,1.2-2.2,1.5C280.1,398.8,279.1,399,278,399z M344.4,398.8
		V382h6.9c1.5,0,2.8,0.2,3.8,0.7s1.9,1.2,2.5,2.1s0.9,2,0.9,3.2s-0.3,2.3-0.9,3.2c-0.6,0.9-1.4,1.6-2.5,2c-1.1,0.5-2.3,0.7-3.8,0.7
		h-5.2l1.4-1.4v6.3L344.4,398.8L344.4,398.8z M347.5,392.8l-1.4-1.5h5c1.4,0,2.4-0.3,3.1-0.9s1-1.4,1-2.5s-0.3-1.9-1-2.5
		s-1.7-0.9-3.1-0.9h-5l1.4-1.5V392.8z M355.4,398.8l-4.2-6.1h3.3l4.3,6.1H355.4z M365.5,399c-1,0-1.8-0.2-2.5-0.5s-1.3-0.8-1.7-1.4
		c-0.4-0.6-0.6-1.2-0.6-2c0-0.7,0.2-1.4,0.5-1.9c0.3-0.6,0.9-1,1.7-1.4c0.8-0.3,1.8-0.5,3.1-0.5h3.7v2h-3.5c-1,0-1.7,0.2-2.1,0.5
		s-0.5,0.7-0.5,1.2s0.2,1,0.6,1.3s1,0.5,1.8,0.5c0.7,0,1.4-0.2,2-0.5s1-0.8,1.3-1.5l0.5,1.8c-0.3,0.8-0.8,1.3-1.5,1.8
		S366.7,399,365.5,399z M369.6,398.8v-2.6l-0.1-0.5v-4.5c0-0.9-0.3-1.6-0.8-2.1s-1.3-0.7-2.4-0.7c-0.7,0-1.4,0.1-2.1,0.3
		c-0.7,0.2-1.3,0.5-1.8,0.9l-1.2-2.2c0.7-0.5,1.5-0.9,2.5-1.2c0.9-0.3,1.9-0.4,3-0.4c1.9,0,3.3,0.4,4.3,1.3s1.5,2.3,1.5,4.1v7.5
		h-2.9V398.8z M374.5,388.5v-2.4h8.5v2.4H374.5z M381.1,399c-1.4,0-2.5-0.4-3.3-1.1s-1.2-1.8-1.2-3.2v-11.5h3v11.4
		c0,0.6,0.2,1.1,0.5,1.4s0.8,0.5,1.3,0.5c0.7,0,1.2-0.2,1.6-0.5l0.9,2.1c-0.4,0.3-0.8,0.5-1.3,0.6C382.1,398.9,381.6,399,381.1,399z
		 M392.4,399c-1.4,0-2.7-0.3-3.7-0.9c-1.1-0.6-1.9-1.3-2.5-2.3s-0.9-2.1-0.9-3.4s0.3-2.4,0.9-3.4s1.4-1.8,2.4-2.3s2.1-0.9,3.4-0.9
		c1.2,0,2.4,0.3,3.3,0.8c1,0.6,1.7,1.3,2.3,2.3c0.6,1,0.8,2.2,0.8,3.5c0,0.1,0,0.3,0,0.4s0,0.3,0,0.4h-10.7v-2h9.1l-1.2,0.6
		c0-0.7-0.1-1.4-0.4-1.9c-0.3-0.6-0.7-1-1.3-1.3c-0.5-0.3-1.2-0.5-1.9-0.5c-0.7,0-1.4,0.2-1.9,0.5c-0.6,0.3-1,0.8-1.3,1.3
		c-0.3,0.6-0.5,1.2-0.5,2v0.5c0,0.8,0.2,1.4,0.5,2s0.8,1.1,1.5,1.4s1.4,0.5,2.2,0.5c0.7,0,1.4-0.1,1.9-0.4c0.6-0.2,1.1-0.6,1.5-1.1
		l1.6,1.9c-0.6,0.7-1.3,1.2-2.2,1.5C394.5,398.8,393.5,399,392.4,399z M401.4,398.8V386h2.9v3.5l-0.3-1c0.4-0.9,1-1.5,1.8-2
		s1.8-0.7,3-0.7v2.9c-0.1,0-0.2,0-0.3,0c-0.1,0-0.2,0-0.3,0c-1.2,0-2.1,0.3-2.7,1c-0.7,0.7-1,1.7-1,3v6.2h-3.1V398.8z M418.3,398.8
		V382h3.1v14.2h8.8v2.6L418.3,398.8L418.3,398.8z M433.9,383.9c-0.6,0-1-0.2-1.4-0.5c-0.4-0.4-0.5-0.8-0.5-1.3s0.2-0.9,0.5-1.2
		c0.4-0.4,0.8-0.5,1.4-0.5s1,0.2,1.4,0.5s0.5,0.7,0.5,1.3c0,0.5-0.2,0.9-0.5,1.3C434.9,383.7,434.5,383.9,433.9,383.9z M432.4,398.8
		V386h3v12.8H432.4z M443.3,399c-1.1,0-2.1-0.1-3.1-0.4s-1.8-0.6-2.4-1l1.2-2.3c0.6,0.4,1.3,0.7,2.1,0.9c0.8,0.2,1.6,0.3,2.4,0.3
		c0.9,0,1.6-0.1,2-0.4s0.6-0.6,0.6-1s-0.1-0.6-0.4-0.8c-0.3-0.2-0.7-0.3-1.1-0.4s-1-0.2-1.5-0.3c-0.6-0.1-1.1-0.2-1.7-0.3
		s-1.1-0.3-1.5-0.6c-0.5-0.3-0.8-0.6-1.1-1.1s-0.4-1-0.4-1.8s0.2-1.5,0.7-2.1s1.1-1.1,2-1.4c0.8-0.3,1.8-0.5,3-0.5
		c0.8,0,1.7,0.1,2.6,0.3c0.9,0.2,1.6,0.5,2.2,0.8l-1.2,2.3c-0.6-0.4-1.2-0.6-1.8-0.7s-1.2-0.2-1.8-0.2c-0.9,0-1.6,0.1-2,0.4
		s-0.7,0.6-0.7,1s0.1,0.7,0.4,0.9c0.3,0.2,0.7,0.3,1.1,0.4c0.5,0.1,1,0.2,1.5,0.3c0.6,0.1,1.1,0.2,1.7,0.3c0.6,0.1,1.1,0.3,1.5,0.6
		s0.9,0.6,1.1,1c0.3,0.4,0.4,1,0.4,1.8s-0.2,1.5-0.7,2.1s-1.1,1-2,1.4C445.6,398.8,444.5,399,443.3,399z M450,388.5v-2.4h8.5v2.4
		H450z M456.5,399c-1.4,0-2.5-0.4-3.3-1.1s-1.2-1.8-1.2-3.2v-11.5h3v11.4c0,0.6,0.2,1.1,0.5,1.4s0.8,0.5,1.3,0.5
		c0.7,0,1.2-0.2,1.6-0.5l0.9,2.1c-0.4,0.3-0.8,0.5-1.3,0.6C457.6,398.9,457.1,399,456.5,399z M466.8,388.5v-2.4h8.5v2.4H466.8z
		 M468.9,398.8v-13.5c0-1.4,0.4-2.4,1.2-3.3s1.9-1.2,3.4-1.2c0.5,0,1,0.1,1.5,0.2s0.9,0.3,1.2,0.5l-0.8,2.2
		c-0.2-0.1-0.5-0.3-0.7-0.4c-0.3-0.1-0.6-0.1-0.9-0.1c-0.6,0-1.1,0.2-1.4,0.5s-0.5,0.9-0.5,1.5v1.5l0.1,1.3v10.7L468.9,398.8
		L468.9,398.8z M483.1,399c-1.3,0-2.5-0.3-3.5-0.9s-1.8-1.3-2.4-2.3s-0.9-2.1-0.9-3.4s0.3-2.4,0.9-3.4s1.4-1.7,2.4-2.3
		c1-0.6,2.2-0.9,3.5-0.9s2.5,0.3,3.5,0.9s1.8,1.3,2.4,2.3s0.9,2.1,0.9,3.4s-0.3,2.4-0.9,3.4s-1.4,1.8-2.4,2.3
		C485.6,398.7,484.4,399,483.1,399z M483.1,396.4c0.7,0,1.4-0.2,2-0.5s1-0.8,1.4-1.4c0.3-0.6,0.5-1.3,0.5-2.1c0-0.8-0.2-1.5-0.5-2.1
		s-0.8-1.1-1.4-1.4s-1.2-0.5-1.9-0.5c-0.7,0-1.4,0.2-1.9,0.5c-0.6,0.3-1,0.8-1.4,1.4c-0.3,0.6-0.5,1.3-0.5,2.1
		c0,0.8,0.2,1.5,0.5,2.1s0.8,1.1,1.4,1.4C481.8,396.3,482.4,396.4,483.1,396.4z M492.9,398.8V386h2.9v3.5l-0.3-1
		c0.4-0.9,1-1.5,1.8-2s1.8-0.7,3-0.7v2.9c-0.1,0-0.2,0-0.3,0c-0.1,0-0.2,0-0.3,0c-1.2,0-2.1,0.3-2.7,1c-0.7,0.7-1,1.7-1,3v6.2h-3.1
		V398.8z M510.6,403.6c-0.6,0-1.3-0.1-1.9-0.3s-1.1-0.5-1.5-0.9l1.2-2.2c0.3,0.3,0.6,0.5,1,0.6s0.8,0.2,1.2,0.2c0.5,0,1-0.1,1.3-0.4
		s0.6-0.7,0.9-1.4l0.7-1.6l0.3-0.4l4.8-11.3h2.9l-6,13.9c-0.4,0.9-0.8,1.7-1.3,2.2s-1,0.9-1.6,1.2
		C512,403.5,511.3,403.6,510.6,403.6z M513.2,399.3l-5.8-13.3h3.1l4.7,11.1L513.2,399.3z M529.2,399c-1.3,0-2.5-0.3-3.5-0.9
		s-1.8-1.3-2.4-2.3c-0.6-1-0.9-2.1-0.9-3.4s0.3-2.4,0.9-3.4c0.6-1,1.4-1.7,2.4-2.3c1-0.6,2.2-0.9,3.5-0.9s2.5,0.3,3.5,0.9
		s1.8,1.3,2.4,2.3c0.6,1,0.9,2.1,0.9,3.4s-0.3,2.4-0.9,3.4c-0.6,1-1.4,1.8-2.4,2.3C531.6,398.7,530.5,399,529.2,399z M529.2,396.4
		c0.7,0,1.4-0.2,2-0.5s1-0.8,1.4-1.4c0.3-0.6,0.5-1.3,0.5-2.1c0-0.8-0.2-1.5-0.5-2.1s-0.8-1.1-1.4-1.4s-1.2-0.5-1.9-0.5
		s-1.4,0.2-1.9,0.5c-0.6,0.3-1,0.8-1.4,1.4c-0.3,0.6-0.5,1.3-0.5,2.1c0,0.8,0.2,1.5,0.5,2.1s0.8,1.1,1.4,1.4
		C527.8,396.3,528.4,396.4,529.2,396.4z M544.3,399c-1.1,0-2-0.2-2.9-0.6c-0.8-0.4-1.5-1-2-1.9c-0.5-0.8-0.7-1.9-0.7-3.2V386h3v6.9
		c0,1.1,0.3,2,0.8,2.6s1.3,0.9,2.2,0.9c0.7,0,1.3-0.1,1.8-0.4s0.9-0.7,1.2-1.3s0.4-1.3,0.4-2.1v-6.5h3v12.8h-2.9v-3.5l0.5,1.1
		c-0.4,0.8-1.1,1.4-1.9,1.9S545.3,399,544.3,399z M555.2,398.8V386h2.9v3.5l-0.3-1c0.4-0.9,1-1.5,1.8-2s1.8-0.7,3-0.7v2.9
		c-0.1,0-0.2,0-0.3,0s-0.2,0-0.3,0c-1.2,0-2.1,0.3-2.7,1c-0.7,0.7-1,1.7-1,3v6.2h-3.1L555.2,398.8L555.2,398.8z M280.8,427.6v-14.2
		h-5.6v-2.6h14.3v2.6h-5.6v14.2H280.8z M297.6,427.8c-1.4,0-2.7-0.3-3.7-0.9c-1.1-0.6-1.9-1.3-2.5-2.3s-0.9-2.1-0.9-3.4
		s0.3-2.4,0.9-3.4s1.4-1.8,2.4-2.3c1-0.6,2.1-0.9,3.4-0.9c1.2,0,2.4,0.3,3.3,0.8c1,0.6,1.7,1.3,2.3,2.3c0.6,1,0.8,2.2,0.8,3.5
		c0,0.1,0,0.3,0,0.4c0,0.2,0,0.3,0,0.4h-10.7v-2h9.1l-1.2,0.6c0-0.7-0.1-1.4-0.4-1.9c-0.3-0.6-0.7-1-1.3-1.3
		c-0.5-0.3-1.2-0.5-1.9-0.5c-0.7,0-1.4,0.2-1.9,0.5c-0.6,0.3-1,0.8-1.3,1.3c-0.3,0.6-0.5,1.2-0.5,2v0.5c0,0.8,0.2,1.4,0.5,2
		s0.8,1.1,1.5,1.4c0.6,0.3,1.4,0.5,2.2,0.5c0.7,0,1.4-0.1,1.9-0.4s1.1-0.6,1.5-1.1l1.6,1.9c-0.6,0.7-1.3,1.2-2.2,1.5
		C299.7,427.6,298.7,427.8,297.6,427.8z M310.3,427.8c-1,0-1.8-0.2-2.5-0.5s-1.3-0.8-1.7-1.4c-0.4-0.6-0.6-1.2-0.6-2
		c0-0.7,0.2-1.4,0.5-1.9c0.3-0.6,0.9-1,1.7-1.4s1.8-0.5,3.1-0.5h3.7v2H311c-1,0-1.7,0.2-2.1,0.5s-0.5,0.7-0.5,1.2s0.2,1,0.6,1.3
		s1,0.5,1.8,0.5c0.7,0,1.4-0.2,2-0.5s1-0.8,1.3-1.5l0.5,1.8c-0.3,0.8-0.8,1.3-1.5,1.8C312.4,427.6,311.5,427.8,310.3,427.8z
		 M314.4,427.6V425l-0.1-0.5V420c0-0.9-0.3-1.6-0.8-2.1s-1.3-0.7-2.4-0.7c-0.7,0-1.4,0.1-2.1,0.3c-0.7,0.2-1.3,0.5-1.8,0.9l-1.2-2.2
		c0.7-0.5,1.5-0.9,2.5-1.2c0.9-0.3,1.9-0.4,3-0.4c1.9,0,3.3,0.4,4.3,1.3s1.5,2.3,1.5,4.1v7.5h-2.9V427.6z M337.2,414.6
		c1,0,1.9,0.2,2.7,0.6s1.4,1,1.9,1.8s0.7,1.9,0.7,3.2v7.3h-3v-7c0-1.1-0.3-2-0.8-2.5c-0.5-0.6-1.2-0.8-2.1-0.8
		c-0.7,0-1.2,0.1-1.7,0.4s-0.9,0.7-1.2,1.3c-0.3,0.6-0.4,1.3-0.4,2.1v6.5h-3v-7c0-1.1-0.3-2-0.8-2.5c-0.5-0.6-1.2-0.8-2.1-0.8
		c-0.7,0-1.2,0.1-1.7,0.4s-0.9,0.7-1.2,1.3c-0.3,0.6-0.4,1.3-0.4,2.1v6.5h-3v-12.8h2.9v3.4l-0.5-1c0.4-0.8,1.1-1.4,1.9-1.9
		c0.8-0.4,1.8-0.7,2.8-0.7c1.2,0,2.2,0.3,3.1,0.9s1.5,1.5,1.8,2.7l-1.2-0.4c0.4-0.9,1.1-1.7,2-2.3S335.9,414.6,337.2,414.6z
		 M353.2,427.6v-16.8h2.6l7.3,12.3h-1.3l7.2-12.3h2.6v16.8h-3v-12.2h0.6l-6.1,10.3h-1.4l-6.2-10.3h0.7v12.2H353.2z M381.8,427.8
		c-1.4,0-2.7-0.3-3.7-0.9c-1.1-0.6-1.9-1.3-2.5-2.3s-0.9-2.1-0.9-3.4s0.3-2.4,0.9-3.4s1.4-1.8,2.4-2.3s2.1-0.9,3.4-0.9
		c1.2,0,2.4,0.3,3.3,0.8c1,0.6,1.7,1.3,2.3,2.3c0.6,1,0.8,2.2,0.8,3.5c0,0.1,0,0.3,0,0.4s0,0.3,0,0.4h-10.7v-2h9.1l-1.2,0.6
		c0-0.7-0.1-1.4-0.4-1.9c-0.3-0.6-0.7-1-1.3-1.3c-0.5-0.3-1.2-0.5-1.9-0.5c-0.7,0-1.4,0.2-1.9,0.5c-0.6,0.3-1,0.8-1.3,1.3
		c-0.3,0.6-0.5,1.2-0.5,2v0.5c0,0.8,0.2,1.4,0.5,2s0.8,1.1,1.5,1.4s1.4,0.5,2.2,0.5c0.7,0,1.4-0.1,1.9-0.4c0.6-0.2,1.1-0.6,1.5-1.1
		l1.6,1.9c-0.6,0.7-1.3,1.2-2.2,1.5C383.9,427.6,383,427.8,381.8,427.8z M406.9,414.6c1,0,1.9,0.2,2.7,0.6s1.4,1,1.9,1.8
		c0.4,0.8,0.7,1.9,0.7,3.2v7.3h-3v-7c0-1.1-0.3-2-0.8-2.5c-0.5-0.6-1.2-0.8-2.1-0.8c-0.7,0-1.2,0.1-1.7,0.4s-0.9,0.7-1.2,1.3
		c-0.3,0.6-0.4,1.3-0.4,2.1v6.5h-3v-7c0-1.1-0.3-2-0.8-2.5c-0.5-0.6-1.2-0.8-2.1-0.8c-0.7,0-1.2,0.1-1.7,0.4s-0.9,0.7-1.2,1.3
		c-0.3,0.6-0.4,1.3-0.4,2.1v6.5h-3v-12.8h2.9v3.4l-0.5-1c0.4-0.8,1.1-1.4,1.9-1.9c0.8-0.4,1.8-0.7,2.8-0.7c1.2,0,2.2,0.3,3.1,0.9
		s1.5,1.5,1.8,2.7l-1.2-0.4c0.4-0.9,1.1-1.7,2-2.3S405.6,414.6,406.9,414.6z M416,427.6v-17.8h3v8l-0.2,3.4l0.1,3.4v3H416z
		 M423.1,427.8c-1.1,0-2-0.2-2.9-0.7s-1.5-1.2-2-2.2s-0.7-2.2-0.7-3.7s0.2-2.7,0.7-3.7s1.2-1.7,2-2.2s1.8-0.7,2.9-0.7
		c1.2,0,2.4,0.3,3.3,0.8c1,0.5,1.7,1.3,2.3,2.3c0.6,1,0.9,2.1,0.9,3.5c0,1.3-0.3,2.5-0.9,3.5s-1.3,1.7-2.3,2.3
		C425.5,427.5,424.4,427.8,423.1,427.8z M422.8,425.2c0.7,0,1.4-0.2,2-0.5s1-0.8,1.4-1.4c0.3-0.6,0.5-1.3,0.5-2.1
		c0-0.8-0.2-1.5-0.5-2.1s-0.8-1.1-1.4-1.4s-1.2-0.5-2-0.5c-0.7,0-1.3,0.2-1.9,0.5s-1,0.8-1.4,1.4c-0.3,0.6-0.5,1.3-0.5,2.1
		c0,0.8,0.2,1.5,0.5,2.1s0.8,1.1,1.4,1.4C421.4,425.1,422,425.2,422.8,425.2z M438.5,427.8c-1.4,0-2.7-0.3-3.7-0.9
		c-1.1-0.6-1.9-1.3-2.5-2.3s-0.9-2.1-0.9-3.4s0.3-2.4,0.9-3.4s1.4-1.8,2.4-2.3s2.1-0.9,3.4-0.9c1.2,0,2.4,0.3,3.3,0.8
		c1,0.6,1.7,1.3,2.3,2.3c0.6,1,0.8,2.2,0.8,3.5c0,0.1,0,0.3,0,0.4s0,0.3,0,0.4h-10.7v-2h9.1l-1.2,0.6c0-0.7-0.1-1.4-0.4-1.9
		c-0.3-0.6-0.7-1-1.3-1.3c-0.5-0.3-1.2-0.5-1.9-0.5c-0.7,0-1.4,0.2-1.9,0.5c-0.6,0.3-1,0.8-1.3,1.3c-0.3,0.6-0.5,1.2-0.5,2v0.5
		c0,0.8,0.2,1.4,0.5,2s0.8,1.1,1.5,1.4s1.4,0.5,2.2,0.5c0.7,0,1.4-0.1,1.9-0.4c0.6-0.2,1.1-0.6,1.5-1.1l1.6,1.9
		c-0.6,0.7-1.3,1.2-2.2,1.5C440.6,427.6,439.6,427.8,438.5,427.8z M447.4,427.6v-12.8h2.9v3.5l-0.3-1c0.4-0.9,1-1.5,1.8-2
		s1.8-0.7,3-0.7v2.9c-0.1,0-0.2,0-0.3,0c-0.1,0-0.2,0-0.3,0c-1.2,0-2.1,0.3-2.7,1c-0.7,0.7-1,1.7-1,3v6.2h-3.1V427.6z M461.5,427.8
		c-1.1,0-2.1-0.1-3.1-0.4s-1.8-0.6-2.4-1l1.2-2.3c0.6,0.4,1.3,0.7,2.1,0.9c0.8,0.2,1.6,0.3,2.4,0.3c0.9,0,1.6-0.1,2-0.4
		s0.6-0.6,0.6-1s-0.1-0.6-0.4-0.8c-0.3-0.2-0.7-0.3-1.1-0.4s-1-0.2-1.5-0.3c-0.6-0.1-1.1-0.2-1.7-0.3s-1.1-0.3-1.5-0.6
		c-0.5-0.3-0.8-0.6-1.1-1.1s-0.4-1-0.4-1.8s0.2-1.5,0.7-2.1s1.1-1.1,2-1.4c0.8-0.3,1.8-0.5,3-0.5c0.8,0,1.7,0.1,2.6,0.3
		c0.9,0.2,1.6,0.5,2.2,0.8l-1.2,2.3c-0.6-0.4-1.2-0.6-1.8-0.7s-1.2-0.2-1.8-0.2c-0.9,0-1.6,0.1-2,0.4s-0.7,0.6-0.7,1
		s0.1,0.7,0.4,0.9c0.3,0.2,0.7,0.3,1.1,0.4c0.5,0.1,1,0.2,1.5,0.3c0.6,0.1,1.1,0.2,1.7,0.3c0.6,0.1,1.1,0.3,1.5,0.6s0.9,0.6,1.1,1
		c0.3,0.4,0.4,1,0.4,1.8s-0.2,1.5-0.7,2.1s-1.1,1-2,1.4C463.7,427.6,462.7,427.8,461.5,427.8z M297.7,399.3c-1.2,0-2.3-0.2-3.4-0.5
		s-2.1-0.8-2.8-1.4l1.3-2.4c0.6,0.5,1.4,0.9,2.2,1.2c0.9,0.3,1.8,0.5,2.7,0.5c1.1,0,2-0.2,2.6-0.7s1-1.1,1-1.9s-0.3-1.4-0.9-1.8
		s-1.5-0.7-2.8-0.7h-1.5v-2.1l4.8-5.7l0.4,1.2h-9v-2.6h11.4v2.1l-4.8,5.7l-1.6-0.9h1c2,0,3.6,0.5,4.6,1.4s1.5,2.1,1.5,3.5
		c0,0.9-0.2,1.8-0.7,2.6c-0.5,0.8-1.2,1.5-2.2,1.9C300.5,399,299.2,399.3,297.7,399.3z M313.7,399.3c-1.5,0-2.8-0.3-3.9-1
		c-1.1-0.6-1.9-1.6-2.5-2.8c-0.6-1.2-0.9-2.8-0.9-4.5c0-1.9,0.3-3.6,1-4.9s1.7-2.3,2.9-3c1.2-0.7,2.7-1,4.3-1c0.8,0,1.6,0.1,2.4,0.3
		c0.8,0.2,1.5,0.4,2,0.8l-1.2,2.4c-0.5-0.3-1-0.5-1.5-0.6s-1.1-0.2-1.7-0.2c-1.6,0-2.8,0.5-3.8,1.5c-0.9,1-1.4,2.4-1.4,4.3
		c0,0.3,0,0.7,0,1.1s0.1,0.8,0.2,1.2l-1-1c0.3-0.7,0.7-1.2,1.2-1.6s1.1-0.8,1.8-1c0.7-0.2,1.5-0.3,2.3-0.3c1.1,0,2.1,0.2,3,0.6
		s1.6,1,2.1,1.8s0.8,1.7,0.8,2.7c0,1.1-0.3,2-0.8,2.9c-0.5,0.8-1.3,1.5-2.2,1.9C315.9,399,314.8,399.3,313.7,399.3z M313.5,396.8
		c0.6,0,1.2-0.1,1.7-0.3c0.5-0.2,0.9-0.6,1.2-1c0.3-0.4,0.4-0.9,0.4-1.5c0-0.9-0.3-1.6-0.9-2.1s-1.4-0.8-2.4-0.8
		c-0.7,0-1.3,0.1-1.8,0.4c-0.5,0.2-0.9,0.6-1.2,1c-0.3,0.4-0.4,0.9-0.4,1.5c0,0.5,0.1,1,0.4,1.4s0.7,0.8,1.2,1
		C312.2,396.7,312.8,396.8,313.5,396.8z M328.5,399.3c-1.3,0-2.5-0.3-3.6-1s-1.9-1.7-2.5-2.9s-0.9-2.9-0.9-4.7
		c0-1.8,0.3-3.4,0.9-4.7s1.5-2.3,2.5-2.9c1.1-0.7,2.3-1,3.6-1c1.3,0,2.5,0.3,3.6,1s1.9,1.7,2.5,2.9c0.6,1.3,0.9,2.9,0.9,4.7
		c0,1.8-0.3,3.4-0.9,4.7c-0.6,1.3-1.5,2.3-2.5,2.9C331,398.9,329.8,399.3,328.5,399.3z M328.5,396.5c0.8,0,1.4-0.2,2-0.6
		s1-1.1,1.4-2c0.3-0.9,0.5-2,0.5-3.3s-0.2-2.5-0.5-3.3c-0.3-0.9-0.8-1.5-1.4-2c-0.6-0.4-1.2-0.6-2-0.6s-1.4,0.2-2,0.6s-1,1.1-1.4,2
		c-0.3,0.9-0.5,2-0.5,3.3s0.2,2.5,0.5,3.3c0.3,0.9,0.8,1.5,1.4,2C327.1,396.3,327.7,396.5,328.5,396.5z"/>
	<path d="M204.9,98.9v176h176v-176C380.9,98.9,204.9,98.9,204.9,98.9z M374.3,268.1H211.9V105.8h162.4V268.1z M245.7,190.8
		c-1.7-1.7-1.7-4.4,0-6c1.7-1.7,4.4-1.7,6,0l21.3,26.9l64.4-69c1.7-1.6,4.4-1.6,6,0.1s1.6,4.4-0.1,6l-67.2,71.9l-0.1,0.1
		c-0.8,0.8-1.9,1.2-3,1.2c-0.6,0-1.2-0.1-1.7-0.3c-0.2-0.1-0.5-0.2-0.7-0.3s-0.5-0.3-0.7-0.6L245.7,190.8z"/>
</g>
</svg>
