<?xml version="1.0" encoding="utf-8"?>
<!-- Generator: Adobe Illustrator 28.0.0, SVG Export Plug-In . SVG Version: 6.00 Build 0)  -->
<svg version="1.1" id="Layer_1" xmlns="http://www.w3.org/2000/svg" xmlns:xlink="http://www.w3.org/1999/xlink" x="0px" y="0px"
	 viewBox="0 0 66 66" style="enable-background:new 0 0 66 66;" xml:space="preserve">
<style type="text/css">
	.st0{fill:#86BD40;}
</style>
<path class="st0" d="M21.5,27.2H0.8V6.6h20.7V27.2z M3.2,24.8H19V9H3.2V24.8z M65.2,25v-3.3c0-0.6-0.5-1-1-1H27.9c-0.6,0-1,0.5-1,1
	V25c0,0.6,0.5,1,1,1h36.3C64.7,26,65.2,25.6,65.2,25z M65.2,13.2V9.9c0-0.6-0.5-1-1-1H27.9c-0.6,0-1,0.5-1,1v3.3c0,0.6,0.5,1,1,1
	h36.3C64.7,14.3,65.2,13.8,65.2,13.2z M21.5,59.4H0.8V38.8h20.7V59.4z M3.2,57H19V41.2H3.2V57z M65.2,57.2v-3.3c0-0.6-0.5-1-1-1
	H27.9c-0.6,0-1,0.5-1,1v3.3c0,0.6,0.5,1,1,1h36.3C64.7,58.2,65.2,57.8,65.2,57.2z M65.2,45.4v-3.3c0-0.6-0.5-1-1-1H27.9
	c-0.6,0-1,0.5-1,1v3.3c0,0.6,0.5,1,1,1h36.3C64.7,46.4,65.2,46,65.2,45.4z"/>
</svg>
