<?xml version="1.0" encoding="utf-8"?>
<!-- Generator: Adobe Illustrator 28.0.0, SVG Export Plug-In . SVG Version: 6.00 Build 0)  -->
<svg version="1.1" id="Layer_1" xmlns="http://www.w3.org/2000/svg" xmlns:xlink="http://www.w3.org/1999/xlink" x="0px" y="0px"
	 viewBox="0 0 473.3 165.2" style="enable-background:new 0 0 473.3 165.2;" xml:space="preserve">
<style type="text/css">
	.st0{fill:#8CC63F;}
	.st1{fill:#FFFFFF;}
	.st2{display:none;fill:#FFFFFF;}
</style>
<path class="st0" d="M459.3,128.9H150.1c-3,0-5.4-2.4-5.4-5.4V45.7c0-3,2.4-5.4,5.4-5.4h309.2c3,0,5.4,2.4,5.4,5.4v77.8
	C464.7,126.5,462.3,128.9,459.3,128.9z"/>
<circle class="st1" cx="85" cy="82.5" r="81.3"/>
<path class="st0" d="M85,159.9c-42.6,0-77.3-34.7-77.3-77.3S42.4,5.2,85,5.2s77.3,34.7,77.3,77.3S127.6,159.9,85,159.9z M85,35.8
	c-25.8,0-46.7,21-46.7,46.7c0,25.8,21,46.7,46.7,46.7s46.7-21,46.7-46.7S110.8,35.8,85,35.8z"/>
<path class="st2" d="M208.6,95.2V70h9.4c2.1,0,4,0.3,5.5,1c1.5,0.7,2.7,1.7,3.5,3c0.8,1.3,1.2,2.8,1.2,4.7c0,1.8-0.4,3.3-1.2,4.6
	c-0.8,1.3-2,2.3-3.5,3c-1.5,0.7-3.4,1-5.5,1h-8l1.2-1.3v9.2H208.6z M211.3,86.2l-1.2-1.3h7.9c2.5,0,4.4-0.5,5.7-1.6
	c1.3-1.1,2-2.6,2-4.6c0-2-0.7-3.6-2-4.7c-1.3-1.1-3.2-1.7-5.7-1.7h-7.9l1.2-1.3V86.2z M239.2,95.4c-1.4,0-2.6-0.2-3.7-0.7
	s-1.8-1.1-2.4-1.9c-0.6-0.8-0.8-1.8-0.8-2.9c0-1,0.2-1.9,0.7-2.7c0.5-0.8,1.2-1.5,2.3-1.9s2.5-0.7,4.3-0.7h6.5v1.9h-6.4
	c-1.8,0-3.1,0.3-3.8,1c-0.7,0.6-1.1,1.5-1.1,2.4c0,1.1,0.4,1.9,1.3,2.6c0.8,0.6,2,1,3.5,1c1.4,0,2.7-0.3,3.7-1s1.8-1.6,2.3-2.9
	l0.6,1.8c-0.5,1.2-1.3,2.2-2.5,3C242.5,95.1,241,95.4,239.2,95.4z M245.8,95.2v-4.2l-0.1-0.7v-7c0-1.6-0.4-2.8-1.3-3.7
	c-0.9-0.9-2.2-1.3-4-1.3c-1.2,0-2.4,0.2-3.5,0.6s-2,0.9-2.8,1.6l-1.2-1.9c1-0.8,2.1-1.4,3.5-1.9c1.3-0.4,2.8-0.7,4.2-0.7
	c2.4,0,4.3,0.6,5.7,1.8c1.3,1.2,2,3.1,2,5.5v11.7H245.8z M255.2,95.2V76.3h2.4v5.1l-0.3-0.9c0.5-1.4,1.4-2.5,2.7-3.3
	c1.2-0.8,2.8-1.1,4.6-1.1v2.5c-0.1,0-0.2,0-0.3,0c-0.1,0-0.2,0-0.3,0c-2,0-3.6,0.6-4.7,1.8c-1.1,1.2-1.7,2.9-1.7,5.2v9.6H255.2z
	 M266.6,78.5v-2.1h11.7v2.1H266.6z M275.6,95.4c-1.8,0-3.1-0.5-4.1-1.4c-1-1-1.4-2.3-1.4-4.1V72.2h2.6v17.6c0,1.1,0.3,2,0.8,2.6
	c0.6,0.6,1.4,0.9,2.4,0.9c1.1,0,2.1-0.3,2.8-1l0.9,1.8c-0.5,0.5-1.1,0.8-1.8,1S276.3,95.4,275.6,95.4z M285.5,72.2
	c-0.5,0-1-0.2-1.3-0.5c-0.4-0.4-0.5-0.8-0.5-1.3s0.2-0.9,0.5-1.3c0.4-0.3,0.8-0.5,1.3-0.5s1,0.2,1.3,0.5s0.5,0.8,0.5,1.3
	c0,0.5-0.2,1-0.5,1.3C286.5,72,286.1,72.2,285.5,72.2z M284.2,95.2V76.3h2.6v18.9H284.2z M301.7,95.4c-1.9,0-3.5-0.4-5-1.2
	c-1.5-0.8-2.6-2-3.5-3.4c-0.8-1.5-1.3-3.1-1.3-5c0-1.9,0.4-3.6,1.3-5c0.8-1.4,2-2.6,3.5-3.4c1.5-0.8,3.1-1.2,5-1.2
	c1.6,0,3.1,0.3,4.4,0.9c1.3,0.6,2.3,1.6,3.1,2.8l-1.9,1.3c-0.6-1-1.5-1.7-2.4-2.1s-2-0.7-3.1-0.7c-1.3,0-2.6,0.3-3.6,0.9
	c-1.1,0.6-1.9,1.5-2.6,2.6c-0.6,1.1-0.9,2.4-0.9,3.9s0.3,2.8,0.9,3.9c0.6,1.1,1.5,2,2.6,2.6c1.1,0.6,2.3,0.9,3.6,0.9
	c1.1,0,2.2-0.2,3.1-0.7c1-0.5,1.8-1.2,2.4-2.1l1.9,1.3c-0.7,1.2-1.8,2.2-3.1,2.8C304.8,95.1,303.3,95.4,301.7,95.4z M315.5,72.2
	c-0.5,0-1-0.2-1.3-0.5s-0.5-0.8-0.5-1.3s0.2-0.9,0.5-1.3c0.4-0.3,0.8-0.5,1.3-0.5c0.5,0,1,0.2,1.3,0.5c0.4,0.3,0.5,0.8,0.5,1.3
	c0,0.5-0.2,1-0.5,1.3S316,72.2,315.5,72.2z M314.2,95.2V76.3h2.6v18.9H314.2z M323.8,102.2V76.3h2.4V82l-0.3,3.8l0.4,3.8v12.6H323.8
	z M333.6,95.4c-1.6,0-3.1-0.4-4.4-1.1c-1.3-0.8-2.4-1.8-3.1-3.3c-0.8-1.4-1.2-3.2-1.2-5.2c0-2.1,0.4-3.8,1.2-5.2
	c0.8-1.4,1.8-2.5,3.1-3.3s2.8-1.1,4.5-1.1c1.8,0,3.4,0.4,4.8,1.2c1.4,0.8,2.5,1.9,3.4,3.4s1.2,3.1,1.2,5c0,1.9-0.4,3.6-1.2,5
	c-0.8,1.4-1.9,2.6-3.4,3.4C337,95,335.4,95.4,333.6,95.4z M333.4,93.2c1.3,0,2.5-0.3,3.6-0.9c1.1-0.6,1.9-1.5,2.5-2.6
	c0.6-1.1,0.9-2.4,0.9-3.9s-0.3-2.7-0.9-3.9c-0.6-1.1-1.5-2-2.5-2.6c-1.1-0.6-2.3-0.9-3.6-0.9c-1.3,0-2.5,0.3-3.6,0.9
	s-1.9,1.5-2.5,2.6c-0.6,1.1-0.9,2.4-0.9,3.9s0.3,2.8,0.9,3.9c0.6,1.1,1.5,2,2.5,2.6C330.9,92.9,332.1,93.2,333.4,93.2z M353.6,95.4
	c-1.4,0-2.6-0.2-3.7-0.7s-1.8-1.1-2.4-1.9c-0.6-0.8-0.8-1.8-0.8-2.9c0-1,0.2-1.9,0.7-2.7c0.5-0.8,1.2-1.5,2.3-1.9
	c1.1-0.5,2.5-0.7,4.3-0.7h6.5v1.9H354c-1.8,0-3.1,0.3-3.8,1c-0.7,0.6-1.1,1.5-1.1,2.4c0,1.1,0.4,1.9,1.3,2.6c0.8,0.6,2,1,3.5,1
	c1.4,0,2.7-0.3,3.7-1s1.8-1.6,2.3-2.9l0.6,1.8c-0.5,1.2-1.3,2.2-2.5,3C356.9,95.1,355.4,95.4,353.6,95.4z M360.1,95.2v-4.2l-0.1-0.7
	v-7c0-1.6-0.5-2.8-1.3-3.7c-0.9-0.9-2.2-1.3-4-1.3c-1.2,0-2.4,0.2-3.5,0.6c-1.1,0.4-2,0.9-2.8,1.6l-1.2-1.9c1-0.8,2.1-1.4,3.5-1.9
	c1.3-0.4,2.8-0.7,4.2-0.7c2.4,0,4.3,0.6,5.7,1.8c1.3,1.2,2,3.1,2,5.5v11.7H360.1z M379.1,76.2c1.5,0,2.9,0.3,4,0.9s2.1,1.5,2.7,2.7
	c0.7,1.2,1,2.7,1,4.5v11h-2.6V84.5c0-2-0.5-3.5-1.5-4.5c-1-1-2.4-1.5-4.2-1.5c-1.3,0-2.5,0.3-3.5,0.8c-1,0.5-1.8,1.3-2.3,2.3
	s-0.8,2.2-0.8,3.7v9.9h-2.6V76.3h2.4v5.2l-0.4-1c0.6-1.4,1.6-2.4,2.9-3.2C375.7,76.6,377.3,76.2,379.1,76.2z M390.9,78.5v-2.1h11.7
	v2.1H390.9z M399.8,95.4c-1.8,0-3.1-0.5-4.1-1.4s-1.4-2.3-1.4-4.1V72.2h2.6v17.6c0,1.1,0.3,2,0.8,2.6c0.6,0.6,1.4,0.9,2.4,0.9
	c1.1,0,2.1-0.3,2.8-1l0.9,1.8c-0.5,0.5-1.1,0.8-1.8,1S400.5,95.4,399.8,95.4z"/>
<path class="st2" d="M262.6,95.5c-1.9,0-3.6-0.3-5.3-1c-1.6-0.6-3-1.5-4.2-2.7c-1.2-1.2-2.1-2.5-2.8-4.1c-0.7-1.6-1-3.3-1-5.1
	c0-1.8,0.3-3.6,1-5.1c0.7-1.6,1.6-2.9,2.8-4.1s2.6-2,4.2-2.7c1.6-0.6,3.4-1,5.3-1c1.8,0,3.5,0.3,5.1,0.9c1.6,0.6,3,1.5,4.1,2.8
	l-1.7,1.7c-1-1.1-2.2-1.8-3.4-2.3c-1.2-0.5-2.6-0.7-4-0.7c-1.5,0-2.9,0.3-4.2,0.8c-1.3,0.5-2.4,1.2-3.4,2.2c-1,0.9-1.7,2.1-2.2,3.3
	c-0.5,1.3-0.8,2.6-0.8,4.2c0,1.5,0.3,2.9,0.8,4.2s1.3,2.4,2.2,3.3c1,0.9,2.1,1.7,3.4,2.2c1.3,0.5,2.7,0.8,4.2,0.8
	c1.4,0,2.8-0.2,4-0.7c1.2-0.5,2.4-1.2,3.4-2.3l1.7,1.7c-1.1,1.2-2.5,2.1-4.1,2.8C266.2,95.2,264.4,95.5,262.6,95.5z M284.7,95.4
	c-1.8,0-3.5-0.4-4.9-1.2s-2.6-2-3.4-3.4c-0.8-1.5-1.3-3.1-1.3-5c0-1.9,0.4-3.6,1.3-5c0.8-1.4,2-2.6,3.4-3.4c1.4-0.8,3.1-1.2,4.9-1.2
	c1.9,0,3.5,0.4,5,1.2c1.5,0.8,2.6,2,3.4,3.4s1.2,3.1,1.2,5c0,1.9-0.4,3.5-1.2,5c-0.8,1.5-2,2.6-3.4,3.4S286.5,95.4,284.7,95.4z
	 M284.7,93.2c1.4,0,2.6-0.3,3.6-0.9c1.1-0.6,1.9-1.5,2.5-2.6c0.6-1.1,0.9-2.4,0.9-3.9c0-1.5-0.3-2.8-0.9-3.9c-0.6-1.1-1.4-2-2.5-2.6
	c-1.1-0.6-2.3-0.9-3.6-0.9c-1.3,0-2.5,0.3-3.6,0.9c-1.1,0.6-1.9,1.5-2.5,2.6c-0.6,1.1-0.9,2.4-0.9,3.9c0,1.5,0.3,2.8,0.9,3.9
	c0.6,1.1,1.5,2,2.5,2.6C282.2,92.9,283.3,93.2,284.7,93.2z M304.9,95.4c-1.4,0-2.6-0.2-3.7-0.7s-1.8-1.1-2.4-1.9
	c-0.6-0.8-0.8-1.8-0.8-2.9c0-1,0.2-1.9,0.7-2.7c0.5-0.8,1.2-1.5,2.3-1.9c1.1-0.5,2.5-0.7,4.3-0.7h6.5v1.9h-6.4c-1.8,0-3.1,0.3-3.8,1
	c-0.7,0.6-1.1,1.5-1.1,2.4c0,1.1,0.4,1.9,1.3,2.6c0.8,0.6,2,1,3.5,1c1.4,0,2.7-0.3,3.7-1s1.8-1.6,2.3-2.9l0.6,1.8
	c-0.5,1.2-1.3,2.2-2.5,3C308.2,95.1,306.7,95.4,304.9,95.4z M311.4,95.2v-4.2l-0.1-0.7v-7c0-1.6-0.4-2.8-1.3-3.7
	c-0.9-0.9-2.2-1.3-4-1.3c-1.2,0-2.4,0.2-3.5,0.6c-1.1,0.4-2,0.9-2.8,1.6l-1.2-1.9c1-0.8,2.1-1.4,3.5-1.9c1.3-0.4,2.8-0.7,4.2-0.7
	c2.4,0,4.3,0.6,5.7,1.8c1.3,1.2,2,3.1,2,5.5v11.7H311.4z M328.6,95.4c-1.9,0-3.5-0.4-5-1.2c-1.5-0.8-2.6-2-3.5-3.4
	c-0.8-1.5-1.3-3.1-1.3-5c0-1.9,0.4-3.6,1.3-5c0.8-1.4,2-2.6,3.5-3.4c1.5-0.8,3.1-1.2,5-1.2c1.6,0,3.1,0.3,4.4,0.9
	c1.3,0.6,2.3,1.6,3.1,2.8l-1.9,1.3c-0.6-1-1.5-1.7-2.4-2.1s-2-0.7-3.1-0.7c-1.3,0-2.6,0.3-3.6,0.9c-1.1,0.6-1.9,1.5-2.6,2.6
	c-0.6,1.1-0.9,2.4-0.9,3.9s0.3,2.8,0.9,3.9c0.6,1.1,1.5,2,2.6,2.6c1.1,0.6,2.3,0.9,3.6,0.9c1.1,0,2.2-0.2,3.1-0.7
	c1-0.5,1.8-1.2,2.4-2.1l1.9,1.3c-0.7,1.2-1.8,2.2-3.1,2.8C331.7,95.1,330.3,95.4,328.6,95.4z M350.7,76.2c1.5,0,2.9,0.3,4.1,0.9
	c1.2,0.6,2.1,1.5,2.7,2.7c0.7,1.2,1,2.7,1,4.5v11h-2.6V84.5c0-2-0.5-3.5-1.5-4.5c-1-1-2.4-1.5-4.2-1.5c-1.3,0-2.5,0.3-3.5,0.8
	c-1,0.5-1.8,1.3-2.3,2.3s-0.8,2.2-0.8,3.7v9.9h-2.6V68.5h2.6v13l-0.5-1c0.6-1.4,1.6-2.4,2.9-3.2C347.3,76.6,348.9,76.2,350.7,76.2z"
	/>
<path class="st1" d="M217.9,95.2L229.4,70h2.6l11.5,25.2h-2.8l-10.6-23.7h1.1l-10.6,23.7H217.9z M222.4,88.5l0.8-2.2h14.7l0.8,2.2
	H222.4z M247.2,102.2V76.3h2.4V82l-0.3,3.8l0.4,3.8v12.6H247.2z M257,95.4c-1.6,0-3.1-0.4-4.4-1.1c-1.3-0.8-2.4-1.8-3.1-3.3
	c-0.8-1.4-1.2-3.2-1.2-5.2c0-2.1,0.4-3.8,1.2-5.2c0.8-1.4,1.8-2.5,3.1-3.3c1.3-0.7,2.8-1.1,4.5-1.1c1.8,0,3.4,0.4,4.8,1.2
	c1.4,0.8,2.5,1.9,3.4,3.4c0.8,1.5,1.2,3.1,1.2,5c0,1.9-0.4,3.6-1.2,5s-1.9,2.6-3.4,3.4C260.4,95,258.8,95.4,257,95.4z M256.8,93.2
	c1.3,0,2.5-0.3,3.6-0.9c1.1-0.6,1.9-1.5,2.5-2.6s0.9-2.4,0.9-3.9s-0.3-2.7-0.9-3.9c-0.6-1.1-1.5-2-2.5-2.6c-1.1-0.6-2.3-0.9-3.6-0.9
	c-1.3,0-2.6,0.3-3.6,0.9c-1.1,0.6-1.9,1.5-2.5,2.6c-0.6,1.1-0.9,2.4-0.9,3.9s0.3,2.8,0.9,3.9s1.5,2,2.5,2.6
	C254.2,92.9,255.4,93.2,256.8,93.2z M271.6,102.2V76.3h2.4V82l-0.3,3.8l0.4,3.8v12.6H271.6z M281.4,95.4c-1.6,0-3.1-0.4-4.4-1.1
	c-1.3-0.8-2.4-1.8-3.1-3.3c-0.8-1.4-1.2-3.2-1.2-5.2c0-2.1,0.4-3.8,1.2-5.2c0.8-1.4,1.8-2.5,3.1-3.3c1.3-0.7,2.8-1.1,4.5-1.1
	c1.8,0,3.4,0.4,4.8,1.2c1.4,0.8,2.5,1.9,3.4,3.4c0.8,1.5,1.2,3.1,1.2,5c0,1.9-0.4,3.6-1.2,5c-0.8,1.4-1.9,2.6-3.4,3.4
	C284.8,95,283.2,95.4,281.4,95.4z M281.2,93.2c1.3,0,2.5-0.3,3.6-0.9c1.1-0.6,1.9-1.5,2.5-2.6s0.9-2.4,0.9-3.9s-0.3-2.7-0.9-3.9
	c-0.6-1.1-1.5-2-2.5-2.6c-1.1-0.6-2.3-0.9-3.6-0.9c-1.3,0-2.6,0.3-3.6,0.9c-1.1,0.6-1.9,1.5-2.5,2.6c-0.6,1.1-0.9,2.4-0.9,3.9
	s0.3,2.8,0.9,3.9s1.5,2,2.5,2.6C278.6,92.9,279.8,93.2,281.2,93.2z M296,95.2V76.3h2.4v5.1l-0.3-0.9c0.5-1.4,1.4-2.5,2.7-3.3
	c1.2-0.8,2.8-1.1,4.6-1.1v2.5c-0.1,0-0.2,0-0.3,0c-0.1,0-0.2,0-0.3,0c-2,0-3.6,0.6-4.7,1.8s-1.7,2.9-1.7,5.2v9.6H296z M315.8,95.4
	c-1.4,0-2.6-0.2-3.7-0.7c-1-0.5-1.8-1.1-2.4-1.9s-0.8-1.8-0.8-2.9c0-1,0.2-1.9,0.7-2.7c0.5-0.8,1.2-1.5,2.3-1.9
	c1.1-0.5,2.5-0.7,4.3-0.7h6.5v1.9h-6.4c-1.8,0-3.1,0.3-3.8,1c-0.7,0.6-1.1,1.5-1.1,2.4c0,1.1,0.4,1.9,1.3,2.6c0.8,0.6,2,1,3.5,1
	c1.4,0,2.7-0.3,3.7-1c1-0.7,1.8-1.6,2.3-2.9l0.6,1.8c-0.5,1.2-1.3,2.2-2.5,3C319.1,95.1,317.6,95.4,315.8,95.4z M322.3,95.2v-4.2
	l-0.1-0.7v-7c0-1.6-0.5-2.8-1.3-3.7c-0.9-0.9-2.2-1.3-4-1.3c-1.2,0-2.4,0.2-3.5,0.6c-1.1,0.4-2,0.9-2.8,1.6l-1.2-1.9
	c1-0.8,2.1-1.4,3.5-1.9c1.3-0.4,2.8-0.7,4.2-0.7c2.4,0,4.3,0.6,5.7,1.8s2,3.1,2,5.5v11.7H322.3z M333,72.2c-0.5,0-1-0.2-1.3-0.5
	c-0.4-0.4-0.5-0.8-0.5-1.3s0.2-0.9,0.5-1.3s0.8-0.5,1.3-0.5c0.5,0,1,0.2,1.3,0.5c0.4,0.3,0.5,0.8,0.5,1.3c0,0.5-0.2,1-0.5,1.3
	C334,72,333.5,72.2,333,72.2z M331.7,95.2V76.3h2.6v18.9H331.7z M346.4,95.4c-1.6,0-3-0.2-4.4-0.7c-1.4-0.4-2.5-1-3.3-1.7l1.2-2
	c0.8,0.6,1.8,1.1,3,1.5c1.2,0.4,2.5,0.6,3.8,0.6c1.8,0,3.1-0.3,3.9-0.8s1.2-1.3,1.2-2.2c0-0.7-0.2-1.2-0.7-1.6
	c-0.4-0.4-1-0.7-1.7-0.9c-0.7-0.2-1.5-0.4-2.4-0.5c-0.9-0.1-1.8-0.3-2.6-0.5c-0.9-0.2-1.7-0.5-2.4-0.8c-0.7-0.4-1.3-0.9-1.7-1.5
	c-0.4-0.6-0.7-1.5-0.7-2.6c0-1,0.3-2,0.9-2.8c0.6-0.8,1.4-1.5,2.5-1.9s2.5-0.7,4.1-0.7c1.2,0,2.4,0.2,3.7,0.5c1.2,0.3,2.2,0.8,3,1.3
	l-1.1,2.1c-0.8-0.6-1.7-1-2.7-1.2s-1.9-0.4-2.9-0.4c-1.7,0-3,0.3-3.8,0.9c-0.8,0.6-1.2,1.3-1.2,2.2c0,0.7,0.2,1.3,0.7,1.7
	s1,0.7,1.8,1s1.5,0.4,2.4,0.6c0.9,0.1,1.8,0.3,2.6,0.5s1.7,0.5,2.4,0.8c0.7,0.3,1.3,0.8,1.8,1.5c0.4,0.6,0.7,1.5,0.7,2.5
	c0,1.1-0.3,2.1-0.9,2.9c-0.6,0.8-1.5,1.4-2.7,1.9C349.5,95.2,348.1,95.4,346.4,95.4z M367,95.4c-2,0-3.7-0.4-5.2-1.2
	c-1.5-0.8-2.7-2-3.5-3.4c-0.8-1.5-1.3-3.1-1.3-5s0.4-3.5,1.2-5c0.8-1.4,1.9-2.6,3.3-3.4s3-1.2,4.7-1.2c1.8,0,3.4,0.4,4.7,1.2
	c1.4,0.8,2.5,1.9,3.3,3.4c0.8,1.5,1.2,3.1,1.2,5c0,0.1,0,0.2,0,0.4c0,0.1,0,0.3,0,0.4H359v-1.9h15.1l-1,0.8c0-1.4-0.3-2.6-0.9-3.7
	s-1.4-1.9-2.4-2.5c-1-0.6-2.2-0.9-3.5-0.9c-1.3,0-2.5,0.3-3.5,0.9c-1,0.6-1.8,1.4-2.4,2.5s-0.9,2.3-0.9,3.7v0.4c0,1.4,0.3,2.7,1,3.8
	s1.5,1.9,2.7,2.6s2.4,0.9,3.9,0.9c1.2,0,2.2-0.2,3.2-0.6c1-0.4,1.9-1,2.6-1.9l1.4,1.7c-0.8,1-1.9,1.8-3.2,2.3
	C369.9,95.2,368.5,95.4,367,95.4z M380.7,95.2V76.3h2.4v5.1l-0.3-0.9c0.5-1.4,1.4-2.5,2.7-3.3c1.2-0.8,2.8-1.1,4.6-1.1v2.5
	c-0.1,0-0.2,0-0.3,0c-0.1,0-0.2,0-0.3,0c-2,0-3.6,0.6-4.7,1.8s-1.7,2.9-1.7,5.2v9.6H380.7z"/>
</svg>
