<?xml version="1.0" encoding="utf-8"?>
<!-- Generator: Adobe Illustrator 28.0.0, SVG Export Plug-In . SVG Version: 6.00 Build 0)  -->
<svg version="1.1" id="Layer_1" xmlns="http://www.w3.org/2000/svg" xmlns:xlink="http://www.w3.org/1999/xlink" x="0px" y="0px"
	 viewBox="0 0 585 585" style="enable-background:new 0 0 585 585;" xml:space="preserve">
<style type="text/css">
	.st0{fill:#8CC63F;}
	.st1{fill:#FFFFFF;}
	.st2{fill:#86BD40;}
</style>
<g>
	<path class="st0" d="M570,449.2H140.8c-3,0-5.4-2.4-5.4-5.4V366c0-3,2.4-5.4,5.4-5.4H570c3,0,5.4,2.4,5.4,5.4v77.8
		C575.4,446.8,573,449.2,570,449.2z"/>
	<circle class="st1" cx="88.7" cy="404.9" r="81.3"/>
	<path class="st0" d="M88.7,482.2c-42.6,0-77.3-34.7-77.3-77.3s34.7-77.3,77.3-77.3s77.3,34.7,77.3,77.3S131.3,482.2,88.7,482.2z
		 M88.7,350c-30.3,0-54.8,24.6-54.8,54.8c0,30.3,24.6,54.8,54.8,54.8s54.8-24.6,54.8-54.8S119,350,88.7,350z"/>
	<path class="st2" d="M75.7,372.5c-0.7-0.7-1.7-0.7-2.3-0.1l0.6-0.6v-1.1H52.5v21.4H74v-15.6l1.7-1.7
		C76.4,374.2,76.4,373.2,75.7,372.5z M71.5,389.7H55v-16.5h16.5v1.1l-8.3,8.1l-3.2-3.2c-0.7-0.7-1.7-0.7-2.3,0
		c-0.7,0.7-0.7,1.8,0,2.3l4.3,4.3c0.1,0.1,0.2,0.1,0.2,0.2c0.1,0.1,0.2,0.1,0.3,0.1c0.2,0.1,0.4,0.1,0.7,0.1c0.4,0,0.8-0.1,1.1-0.4
		l0,0l7.1-7L71.5,389.7L71.5,389.7z M122.7,387.2H80c-0.4,0-0.8-0.3-0.8-0.8v-2.7c0-0.4,0.3-0.8,0.8-0.8h42.6c0.4,0,0.8,0.3,0.8,0.8
		v2.7C123.4,386.9,123.1,387.2,122.7,387.2z M75.7,396.4c-0.7-0.7-1.7-0.7-2.3-0.1l0.6-0.6v-1.1H52.5v21.5H74v-15.6l1.7-1.7
		C76.4,398.2,76.4,397.1,75.7,396.4z M71.5,413.7H55v-16.6h16.5v1.1l-8.3,8.1l-3.2-3.1c-0.7-0.7-1.7-0.7-2.3,0
		c-0.7,0.7-0.7,1.7,0,2.3l4.3,4.3c0.1,0.1,0.2,0.1,0.2,0.2c0.1,0.1,0.2,0.1,0.3,0.1c0.2,0.1,0.4,0.1,0.7,0.1c0.4,0,0.8-0.1,1.1-0.4
		l0,0l7.1-7L71.5,413.7C71.4,413.7,71.5,413.7,71.5,413.7z M122.7,411.3H80c-0.4,0-0.8-0.3-0.8-0.8v-2.7c0-0.4,0.3-0.8,0.8-0.8h42.6
		c0.4,0,0.8,0.3,0.8,0.8v2.7C123.4,410.8,123.1,411.3,122.7,411.3z M75.7,420.5c-0.7-0.7-1.7-0.7-2.3-0.1l0.6-0.6v-1.1H52.5v21.5H74
		v-15.7l1.7-1.7C76.4,422.2,76.4,421.1,75.7,420.5z M71.5,437.6H55v-16.5h16.5v1.1l-8.3,8.1l-3.2-3.2c-0.7-0.7-1.7-0.7-2.3,0
		c-0.7,0.7-0.7,1.7,0,2.3l4.3,4.3c0.1,0.1,0.2,0.1,0.2,0.2c0.1,0.2,0.2,0.2,0.3,0.2c0.2,0.1,0.4,0.1,0.7,0.1c0.4,0,0.8-0.1,1.1-0.4
		l0,0l7.1-7L71.5,437.6L71.5,437.6z M122.7,435.2H80c-0.4,0-0.8-0.3-0.8-0.8v-2.7c0-0.4,0.3-0.8,0.8-0.8h42.6c0.4,0,0.8,0.3,0.8,0.8
		v2.7C123.4,434.9,123.1,435.2,122.7,435.2z"/>
	<path class="st1" d="M358.9,410.5c-1.3,0-2.6-0.2-3.8-0.6s-2.1-0.9-2.9-1.5l1.1-2.4c0.7,0.5,1.5,1,2.5,1.3s2,0.5,3,0.5
		c0.9,0,1.6-0.1,2.1-0.3c0.5-0.2,0.9-0.5,1.2-0.8s0.4-0.7,0.4-1.1c0-0.5-0.2-0.9-0.6-1.2c-0.4-0.3-0.8-0.6-1.4-0.7
		c-0.6-0.2-1.2-0.4-1.9-0.5c-0.7-0.2-1.4-0.3-2.1-0.6c-0.7-0.2-1.4-0.5-2-0.9c-0.6-0.3-1.1-0.8-1.4-1.4c-0.4-0.6-0.5-1.3-0.5-2.2
		c0-0.9,0.2-1.7,0.7-2.5s1.2-1.4,2.2-1.8c1-0.5,2.3-0.7,3.8-0.7c1,0,2,0.1,3,0.4s1.9,0.6,2.6,1.1l-1,2.4c-0.8-0.4-1.5-0.8-2.3-1
		s-1.6-0.3-2.3-0.3c-0.8,0-1.5,0.1-2.1,0.3c-0.5,0.2-0.9,0.5-1.2,0.8c-0.2,0.3-0.4,0.7-0.4,1.1c0,0.5,0.2,0.9,0.5,1.2
		c0.4,0.3,0.8,0.6,1.4,0.7c0.6,0.2,1.2,0.3,2,0.5c0.7,0.2,1.4,0.3,2.1,0.6s1.4,0.5,1.9,0.8c0.6,0.3,1.1,0.8,1.4,1.4s0.5,1.3,0.5,2.2
		c0,0.9-0.2,1.7-0.7,2.5s-1.2,1.4-2.2,1.8C361.7,410.3,360.4,410.5,358.9,410.5z M373.9,410.5c-1.1,0-2-0.2-2.9-0.6
		c-0.8-0.4-1.5-1-2-1.9c-0.5-0.8-0.7-1.9-0.7-3.2v-7.3h3v6.9c0,1.1,0.3,2,0.8,2.6s1.3,0.9,2.2,0.9c0.7,0,1.3-0.1,1.8-0.4
		s0.9-0.7,1.2-1.3c0.3-0.6,0.4-1.3,0.4-2.1v-6.5h3v12.8h-2.9v-3.5l0.5,1.1c-0.4,0.8-1.1,1.4-1.9,1.9S374.9,410.5,373.9,410.5z
		 M384.8,410.3v-12.8h2.9v3.5l-0.3-1c0.4-0.9,1-1.5,1.8-2s1.8-0.7,3-0.7v2.9c-0.1,0-0.2,0-0.3,0c-0.1,0-0.2,0-0.3,0
		c-1.2,0-2.1,0.3-2.7,1c-0.7,0.7-1,1.7-1,3v6.2h-3.1V410.3z M398.3,410.3l-5.5-12.8h3.1l4.8,11.3h-1.6l4.9-11.3h2.9l-5.5,12.8H398.3
		z M414.8,410.5c-1.4,0-2.7-0.3-3.7-0.9c-1.1-0.6-1.9-1.3-2.5-2.3s-0.9-2.1-0.9-3.4s0.3-2.4,0.9-3.4s1.4-1.8,2.4-2.3
		s2.1-0.9,3.4-0.9c1.2,0,2.4,0.3,3.3,0.8c1,0.6,1.7,1.3,2.3,2.3c0.6,1,0.8,2.2,0.8,3.5c0,0.1,0,0.3,0,0.4s0,0.3,0,0.4h-10.7v-2h9.1
		l-1.2,0.6c0-0.7-0.1-1.4-0.4-1.9c-0.3-0.6-0.7-1-1.3-1.3c-0.5-0.3-1.2-0.5-1.9-0.5c-0.7,0-1.4,0.2-1.9,0.5c-0.6,0.3-1,0.8-1.3,1.3
		c-0.3,0.6-0.5,1.2-0.5,2v0.5c0,0.8,0.2,1.4,0.5,2s0.8,1.1,1.5,1.4c0.6,0.3,1.4,0.5,2.2,0.5c0.7,0,1.4-0.1,1.9-0.4s1.1-0.6,1.5-1.1
		l1.6,1.9c-0.6,0.7-1.3,1.2-2.2,1.5C416.9,410.3,415.9,410.5,414.8,410.5z M424.8,415.1c-0.6,0-1.3-0.1-1.9-0.3s-1.1-0.5-1.5-0.9
		l1.2-2.2c0.3,0.3,0.6,0.5,1,0.6s0.8,0.2,1.2,0.2c0.5,0,1-0.1,1.3-0.4s0.6-0.7,0.9-1.4l0.7-1.6l0.3-0.4l4.8-11.3h2.9l-6,13.9
		c-0.4,0.9-0.8,1.7-1.3,2.2s-1,0.9-1.6,1.2C426.1,415,425.5,415.1,424.8,415.1z M427.4,410.8l-5.8-13.3h3.1l4.7,11.1L427.4,410.8z
		 M293.2,410.5c-1.3,0-2.6-0.2-3.8-0.6s-2.1-0.9-2.9-1.5l1.1-2.4c0.7,0.5,1.5,1,2.5,1.3c1,0.4,2,0.5,3,0.5c0.9,0,1.6-0.1,2.1-0.3
		c0.5-0.2,0.9-0.5,1.2-0.8s0.4-0.7,0.4-1.1c0-0.5-0.2-0.9-0.6-1.2c-0.4-0.3-0.8-0.6-1.4-0.7c-0.6-0.2-1.2-0.4-1.9-0.5
		c-0.7-0.2-1.4-0.3-2.1-0.6c-0.7-0.2-1.4-0.5-2-0.9c-0.6-0.3-1.1-0.8-1.4-1.4c-0.4-0.6-0.5-1.3-0.5-2.2c0-0.9,0.2-1.7,0.7-2.5
		s1.2-1.4,2.2-1.8c1-0.5,2.3-0.7,3.8-0.7c1,0,2,0.1,3,0.4s1.9,0.6,2.6,1.1l-1,2.4c-0.8-0.4-1.5-0.8-2.3-1s-1.6-0.3-2.3-0.3
		c-0.8,0-1.5,0.1-2.1,0.3s-0.9,0.5-1.2,0.8c-0.2,0.3-0.4,0.7-0.4,1.1c0,0.5,0.2,0.9,0.5,1.2c0.4,0.3,0.8,0.6,1.4,0.7
		c0.6,0.2,1.2,0.3,2,0.5c0.7,0.2,1.4,0.3,2.1,0.6c0.7,0.2,1.4,0.5,1.9,0.8c0.6,0.3,1.1,0.8,1.4,1.4c0.4,0.6,0.5,1.3,0.5,2.2
		c0,0.9-0.2,1.7-0.7,2.5s-1.2,1.4-2.2,1.8C296,410.3,294.7,410.5,293.2,410.5z M301.1,400v-2.4h8.5v2.4H301.1z M307.6,410.5
		c-1.4,0-2.5-0.4-3.3-1.1s-1.2-1.8-1.2-3.2v-11.5h3v11.4c0,0.6,0.2,1.1,0.5,1.4s0.8,0.5,1.3,0.5c0.7,0,1.2-0.2,1.6-0.5l0.9,2.1
		c-0.4,0.3-0.8,0.5-1.3,0.6C308.6,410.4,308.1,410.5,307.6,410.5z M316.8,410.5c-1,0-1.8-0.2-2.5-0.5s-1.3-0.8-1.7-1.4
		c-0.4-0.6-0.6-1.2-0.6-2c0-0.7,0.2-1.4,0.5-1.9c0.3-0.6,0.9-1,1.7-1.4s1.8-0.5,3.1-0.5h3.7v2h-3.5c-1,0-1.7,0.2-2.1,0.5
		s-0.5,0.7-0.5,1.2s0.2,1,0.6,1.3s1,0.5,1.8,0.5c0.7,0,1.4-0.2,2-0.5s1-0.8,1.3-1.5l0.5,1.8c-0.3,0.8-0.8,1.3-1.5,1.8
		C318.9,410.3,318,410.5,316.8,410.5z M320.8,410.3v-2.6l-0.1-0.5v-4.5c0-0.9-0.3-1.6-0.8-2.1s-1.3-0.7-2.4-0.7
		c-0.7,0-1.4,0.1-2.1,0.3c-0.7,0.2-1.3,0.5-1.8,0.9l-1.2-2.2c0.7-0.5,1.5-0.9,2.5-1.2c0.9-0.3,1.9-0.4,3-0.4c1.9,0,3.3,0.4,4.3,1.3
		s1.5,2.3,1.5,4.1v7.5h-2.9V410.3z M327.5,410.3v-12.8h2.9v3.5l-0.3-1c0.4-0.9,1-1.5,1.8-2s1.8-0.7,3-0.7v2.9c-0.1,0-0.2,0-0.3,0
		c-0.1,0-0.2,0-0.3,0c-1.2,0-2.1,0.3-2.7,1c-0.7,0.7-1,1.7-1,3v6.2h-3.1V410.3z M335.9,400v-2.4h8.5v2.4H335.9z M342.4,410.5
		c-1.4,0-2.5-0.4-3.3-1.1s-1.2-1.8-1.2-3.2v-11.5h3v11.4c0,0.6,0.2,1.1,0.5,1.4s0.8,0.5,1.3,0.5c0.7,0,1.2-0.2,1.6-0.5l0.9,2.1
		c-0.4,0.3-0.8,0.5-1.3,0.6C343.4,410.4,342.9,410.5,342.4,410.5z"/>
	<path d="M353,179.7v81.7c0,3.2-2.7,5.9-5.9,5.9H214.2c-3.2,0-5.9-2.7-5.9-5.9V134c0-3.2,2.7-5.9,5.9-5.9H306v-6.2h-91.7
		c-6.7,0-12.1,5.4-12.1,12.1v127.5c0,6.7,5.4,12.1,12.1,12.1h132.8c6.7,0,12.1-5.4,12.1-12.1v-81.7L353,179.7L353,179.7z
		 M381.2,126.7l-25.3-25.2c-3.4-3.4-9-3.4-12.4,0L253.9,191c-1.4,1.4-2.3,3.2-2.5,5.1c-4.2,9.6-14.5,33.1-18.1,40.7l0,0
		c-0.2,0.4-0.4,0.8-0.6,1.2c-2.4,6.1-0.5,9.3,0.9,10.6c0.9,0.8,2.4,1.8,4.9,1.8c1.7,0,3.8-0.5,6.5-1.9c5.8-3,30.6-13.2,40.9-17.4
		c2-0.1,4-1,5.5-2.6L381,139C384.5,135.6,384.5,130.1,381.2,126.7z M247.8,240.5l-6.2-6.8c3.6-8.2,9.3-20.8,13.2-29.6l16.3,16.3
		l0.1,0.1l0.1,0.1l6.9,6.9C269.1,231.4,255.7,236.9,247.8,240.5z M376.7,134.7l-89.1,89.1l-0.5,0.5c-0.7,0.7-1.5,0.9-2.3,0.7l0,0
		c-0.5-0.1-0.9-0.3-1.2-0.7l-5.8-5.8l82.9-82.9c1.2-1.2,1.2-3.2,0-4.4c-1.2-1.2-3.2-1.2-4.4,0L273.4,214l-15.1-15.1
		c-0.4-0.4-0.7-0.9-0.7-1.4c0-0.1,0-0.2,0-0.4c0-0.7,0.3-1.3,0.8-1.8l89.5-89.5c0.5-0.5,1.1-0.8,1.8-0.8s1.3,0.3,1.8,0.8l25.2,25.3
		c0.5,0.5,0.8,1.1,0.8,1.8C377.4,133.5,377.3,134.2,376.7,134.7z M258.8,194.9c-0.2,0.6-0.7,1.4-1.1,2.6c0-0.1,0-0.2,0-0.4
		c0-0.7,0.3-1.3,0.8-1.8L258.8,194.9z M287.6,223.8l-0.5,0.5c-0.7,0.7-1.5,0.9-2.3,0.7C286.2,224.3,287.1,224,287.6,223.8z
		 M233.3,236.7c-0.2,0.4-0.4,0.8-0.6,1.2l-0.4-0.4L233.3,236.7z"/>
</g>
</svg>
