<?xml version="1.0" encoding="utf-8"?>
<!-- Generator: Adobe Illustrator 28.0.0, SVG Export Plug-In . SVG Version: 6.00 Build 0)  -->
<svg version="1.1" id="Layer_1" xmlns="http://www.w3.org/2000/svg" xmlns:xlink="http://www.w3.org/1999/xlink" x="0px" y="0px"
	 viewBox="0 0 585 585" style="enable-background:new 0 0 585 585;" xml:space="preserve">
<style type="text/css">
	.st0{fill:#8CC63F;}
	.st1{fill:#FFFFFF;}
	.st2{fill:#86BD40;}
	.st3{display:none;fill:#FFFFFF;}
</style>
<path d="M202.8,129v176h176V129H202.8z M372.2,298.3H209.8V135.9h162.4V298.3z M243.6,220.9c-1.7-1.7-1.7-4.4,0-6
	c1.7-1.7,4.4-1.7,6,0l21.3,26.9l64.4-69c1.7-1.6,4.4-1.6,6,0.1s1.6,4.4-0.1,6L274,250.8l-0.1,0.1c-0.8,0.8-1.9,1.2-3,1.2
	c-0.6,0-1.2-0.1-1.7-0.3c-0.2-0.1-0.5-0.2-0.7-0.3s-0.5-0.3-0.7-0.6L243.6,220.9z"/>
<path class="st0" d="M570.7,429.6H141.5c-3,0-5.4-2.4-5.4-5.4v-77.8c0-3,2.4-5.4,5.4-5.4h429.2c3,0,5.4,2.4,5.4,5.4v77.8
	C576.1,427.2,573.7,429.6,570.7,429.6z"/>
<circle class="st1" cx="88" cy="385.3" r="80.3"/>
<path class="st0" d="M87.9,461.6c-42.1,0-76.3-34.2-76.3-76.3S45.8,309,87.9,309s76.3,34.2,76.3,76.3S130,461.6,87.9,461.6z
	 M87.9,331.1c-29.9,0-54.2,24.3-54.2,54.2s24.3,54.2,54.2,54.2s54.2-24.3,54.2-54.2S117.8,331.1,87.9,331.1z"/>
<path class="st2" d="M75.6,352.4c-0.7-0.7-1.7-0.7-2.3-0.1l0.6-0.6v-1.1H52.4V372h21.5v-15.6l1.7-1.7
	C76.3,354.1,76.3,353.1,75.6,352.4z M71.4,369.6H54.9v-16.5h16.5v1.1l-8.3,8.1l-3.2-3.2c-0.7-0.7-1.7-0.7-2.3,0
	c-0.7,0.7-0.7,1.8,0,2.3l4.3,4.3c0.1,0.1,0.2,0.1,0.2,0.2c0.1,0.1,0.2,0.1,0.3,0.1c0.2,0.1,0.4,0.1,0.7,0.1c0.4,0,0.8-0.1,1.1-0.4
	l0,0l7.1-7L71.4,369.6L71.4,369.6z M122.6,367.1H79.9c-0.4,0-0.8-0.3-0.8-0.8v-2.7c0-0.4,0.3-0.8,0.8-0.8h42.6
	c0.4,0,0.8,0.3,0.8,0.8v2.7C123.3,366.8,123,367.1,122.6,367.1z M75.6,376.3c-0.7-0.7-1.7-0.7-2.3-0.1l0.6-0.6v-1.1H52.4V396h21.5
	v-15.6l1.7-1.7C76.3,378.1,76.3,377,75.6,376.3z M71.4,393.6H54.9V377h16.5v1.1l-8.3,8.1l-3.2-3.1c-0.7-0.7-1.7-0.7-2.3,0
	c-0.7,0.7-0.7,1.7,0,2.3l4.3,4.3c0.1,0.1,0.2,0.1,0.2,0.2c0.1,0.1,0.2,0.1,0.3,0.1c0.2,0.1,0.4,0.1,0.7,0.1c0.4,0,0.8-0.1,1.1-0.4
	l0,0l7.1-7L71.4,393.6C71.3,393.6,71.4,393.6,71.4,393.6z M122.6,391.2H79.9c-0.4,0-0.8-0.3-0.8-0.8v-2.7c0-0.4,0.3-0.8,0.8-0.8
	h42.6c0.4,0,0.8,0.3,0.8,0.8v2.7C123.3,390.7,123,391.2,122.6,391.2z M75.6,400.4c-0.7-0.7-1.7-0.7-2.3-0.1l0.6-0.6v-1.1H52.4v21.5
	h21.5v-15.7l1.7-1.7C76.3,402.1,76.3,401,75.6,400.4z M71.4,417.5H54.9V401h16.5v1.1l-8.3,8.1l-3.2-3.2c-0.7-0.7-1.7-0.7-2.3,0
	c-0.7,0.7-0.7,1.7,0,2.3l4.3,4.3c0.1,0.1,0.2,0.1,0.2,0.2c0.1,0.2,0.2,0.2,0.3,0.2c0.2,0.1,0.4,0.1,0.7,0.1c0.4,0,0.8-0.1,1.1-0.4
	l0,0l7.1-7L71.4,417.5L71.4,417.5z M122.6,415.1H79.9c-0.4,0-0.8-0.3-0.8-0.8v-2.7c0-0.4,0.3-0.8,0.8-0.8h42.6
	c0.4,0,0.8,0.3,0.8,0.8v2.7C123.3,414.8,123,415.1,122.6,415.1z"/>
<path class="st3" d="M231.5,395.5l7.6-16.8h3.1l7.6,16.8h-3.3l-6.5-15.1h1.2l-6.5,15.1H231.5z M235,391.6l0.9-2.4h9l0.8,2.4H235z
	 M251.5,400.2v-17.5h2.9v3l-0.1,3.4l0.2,3.4v7.6h-3V400.2z M258.6,395.7c-1.1,0-2-0.2-2.9-0.7s-1.5-1.2-2-2.2s-0.7-2.2-0.7-3.7
	s0.2-2.7,0.7-3.7s1.1-1.7,2-2.2s1.8-0.7,2.9-0.7c1.2,0,2.4,0.3,3.3,0.8c1,0.5,1.7,1.3,2.3,2.3c0.6,1,0.9,2.1,0.9,3.5
	c0,1.3-0.3,2.5-0.9,3.5s-1.3,1.7-2.3,2.3C261,395.4,259.9,395.7,258.6,395.7z M258.3,393.1c0.7,0,1.4-0.2,2-0.5s1-0.8,1.4-1.4
	s0.5-1.3,0.5-2.1c0-0.8-0.2-1.5-0.5-2.1s-0.8-1.1-1.4-1.4s-1.2-0.5-2-0.5c-0.7,0-1.3,0.2-1.9,0.5s-1,0.8-1.4,1.4
	c-0.3,0.6-0.5,1.3-0.5,2.1c0,0.8,0.2,1.5,0.5,2.1s0.8,1.1,1.4,1.4C257,392.9,257.6,393.1,258.3,393.1z M268,400.2v-17.5h2.9v3
	l-0.1,3.4l0.2,3.4v7.6h-3V400.2z M275.1,395.7c-1.1,0-2-0.2-2.9-0.7s-1.5-1.2-2-2.2s-0.7-2.2-0.7-3.7s0.2-2.7,0.7-3.7s1.1-1.7,2-2.2
	s1.8-0.7,2.9-0.7c1.2,0,2.4,0.3,3.3,0.8c1,0.5,1.7,1.3,2.3,2.3c0.6,1,0.9,2.1,0.9,3.5c0,1.3-0.3,2.5-0.9,3.5s-1.3,1.7-2.3,2.3
	C277.4,395.4,276.3,395.7,275.1,395.7z M274.7,393.1c0.7,0,1.4-0.2,2-0.5s1-0.8,1.4-1.4s0.5-1.3,0.5-2.1c0-0.8-0.2-1.5-0.5-2.1
	s-0.8-1.1-1.4-1.4s-1.2-0.5-2-0.5c-0.7,0-1.3,0.2-1.9,0.5s-1,0.8-1.4,1.4c-0.3,0.6-0.5,1.3-0.5,2.1c0,0.8,0.2,1.5,0.5,2.1
	s0.8,1.1,1.4,1.4S274,393.1,274.7,393.1z M284.5,395.5v-12.8h2.9v3.5l-0.3-1c0.4-0.9,1-1.5,1.8-2s1.8-0.7,3-0.7v2.9
	c-0.1,0-0.2,0-0.3,0c-0.1,0-0.2,0-0.3,0c-1.2,0-2.1,0.3-2.7,1c-0.7,0.7-1,1.7-1,3v6.2h-3.1V395.5z M300.3,395.7
	c-1.3,0-2.5-0.3-3.5-0.9s-1.8-1.3-2.4-2.3s-0.9-2.1-0.9-3.4s0.3-2.4,0.9-3.4s1.4-1.7,2.4-2.3c1-0.6,2.2-0.9,3.5-0.9s2.5,0.3,3.5,0.9
	s1.8,1.3,2.4,2.3s0.9,2.1,0.9,3.4s-0.3,2.4-0.9,3.4s-1.4,1.8-2.4,2.3C302.8,395.4,301.6,395.7,300.3,395.7z M300.3,393.1
	c0.7,0,1.4-0.2,2-0.5s1-0.8,1.4-1.4c0.3-0.6,0.5-1.3,0.5-2.1c0-0.8-0.2-1.5-0.5-2.1s-0.8-1.1-1.4-1.4s-1.2-0.5-1.9-0.5
	c-0.7,0-1.4,0.2-1.9,0.5c-0.6,0.3-1,0.8-1.4,1.4c-0.3,0.6-0.5,1.3-0.5,2.1c0,0.8,0.2,1.5,0.5,2.1s0.8,1.1,1.4,1.4
	C298.9,393,299.6,393.1,300.3,393.1z M313.4,395.5l-5.5-12.8h3.1l4.8,11.3h-1.5l4.9-11.3h2.9l-5.5,12.8H313.4z M329.9,395.7
	c-1.4,0-2.7-0.3-3.7-0.9c-1.1-0.6-1.9-1.3-2.5-2.3s-0.9-2.1-0.9-3.4s0.3-2.4,0.9-3.4s1.4-1.8,2.4-2.3s2.1-0.9,3.4-0.9
	c1.2,0,2.4,0.3,3.3,0.8c1,0.6,1.7,1.3,2.3,2.3c0.6,1,0.8,2.2,0.8,3.5c0,0.1,0,0.3,0,0.4s0,0.3,0,0.4h-10.7v-2h9.1l-1.2,0.6
	c0-0.7-0.1-1.4-0.4-1.9c-0.3-0.6-0.7-1-1.3-1.3c-0.5-0.3-1.2-0.5-1.9-0.5c-0.7,0-1.4,0.2-1.9,0.5c-0.6,0.3-1,0.8-1.3,1.3
	c-0.3,0.6-0.5,1.2-0.5,2v0.5c0,0.8,0.2,1.4,0.5,2s0.8,1.1,1.5,1.4s1.4,0.5,2.2,0.5c0.7,0,1.4-0.1,1.9-0.4c0.6-0.2,1.1-0.6,1.5-1.1
	l1.6,1.9c-0.6,0.7-1.3,1.2-2.2,1.5C332,395.5,331,395.7,329.9,395.7z M352.3,395.5v-16.8h2.6l10.5,13h-1.3v-13h3.1v16.8h-2.6
	l-10.5-13h1.3v13H352.3z M377.2,395.7c-1.3,0-2.5-0.3-3.5-0.9s-1.8-1.3-2.4-2.3s-0.9-2.1-0.9-3.4s0.3-2.4,0.9-3.4s1.4-1.7,2.4-2.3
	c1-0.6,2.2-0.9,3.5-0.9s2.5,0.3,3.5,0.9s1.8,1.3,2.4,2.3s0.9,2.1,0.9,3.4s-0.3,2.4-0.9,3.4s-1.4,1.8-2.4,2.3
	C379.7,395.4,378.5,395.7,377.2,395.7z M377.2,393.1c0.7,0,1.4-0.2,2-0.5s1-0.8,1.4-1.4c0.3-0.6,0.5-1.3,0.5-2.1
	c0-0.8-0.2-1.5-0.5-2.1s-0.8-1.1-1.4-1.4s-1.2-0.5-1.9-0.5c-0.7,0-1.4,0.2-1.9,0.5c-0.6,0.3-1,0.8-1.4,1.4c-0.3,0.6-0.5,1.3-0.5,2.1
	c0,0.8,0.2,1.5,0.5,2.1s0.8,1.1,1.4,1.4C375.9,393,376.5,393.1,377.2,393.1z M403.1,382.5c1,0,1.9,0.2,2.7,0.6s1.4,1,1.9,1.8
	s0.7,1.9,0.7,3.2v7.3h-3v-7c0-1.1-0.3-2-0.8-2.5c-0.5-0.6-1.2-0.8-2.1-0.8c-0.7,0-1.2,0.1-1.7,0.4s-0.9,0.7-1.2,1.3
	c-0.3,0.6-0.4,1.3-0.4,2.1v6.5h-3v-7c0-1.1-0.3-2-0.8-2.5c-0.5-0.6-1.2-0.8-2.1-0.8c-0.7,0-1.2,0.1-1.7,0.4s-0.9,0.7-1.2,1.3
	c-0.3,0.6-0.4,1.3-0.4,2.1v6.5h-3v-12.8h2.9v3.4l-0.5-1c0.4-0.8,1.1-1.4,1.9-1.9c0.8-0.4,1.8-0.7,2.8-0.7c1.2,0,2.2,0.3,3.1,0.9
	s1.5,1.5,1.8,2.7l-1.2-0.4c0.4-0.9,1.1-1.7,2-2.3S401.8,382.5,403.1,382.5z M413.7,380.6c-0.6,0-1-0.2-1.4-0.5
	c-0.4-0.4-0.5-0.8-0.5-1.3s0.2-0.9,0.5-1.2c0.4-0.4,0.8-0.5,1.4-0.5s1,0.2,1.4,0.5s0.5,0.7,0.5,1.3c0,0.5-0.2,0.9-0.5,1.3
	C414.8,380.4,414.3,380.6,413.7,380.6z M412.2,395.5v-12.8h3v12.8H412.2z M426.4,382.5c1,0,2,0.2,2.7,0.6s1.4,1,1.9,1.8
	s0.7,1.9,0.7,3.2v7.3h-3v-7c0-1.1-0.3-2-0.8-2.5c-0.5-0.6-1.3-0.8-2.3-0.8c-0.7,0-1.3,0.1-1.9,0.4s-1,0.7-1.3,1.3
	c-0.3,0.6-0.4,1.3-0.4,2.1v6.5h-3v-12.8h2.9v3.5l-0.5-1.1c0.4-0.8,1.1-1.4,1.9-1.9C424.3,382.7,425.3,382.5,426.4,382.5z
	 M439.5,395.7c-1,0-1.8-0.2-2.5-0.5s-1.3-0.8-1.7-1.4c-0.4-0.6-0.6-1.2-0.6-2c0-0.7,0.2-1.4,0.5-1.9c0.3-0.6,0.9-1,1.7-1.4
	c0.8-0.3,1.8-0.5,3.1-0.5h3.7v2h-3.5c-1,0-1.7,0.2-2.1,0.5s-0.5,0.7-0.5,1.2s0.2,1,0.6,1.3s1,0.5,1.8,0.5c0.7,0,1.4-0.2,2-0.5
	s1-0.8,1.3-1.5l0.5,1.8c-0.3,0.8-0.8,1.3-1.5,1.8S440.6,395.7,439.5,395.7z M443.5,395.5v-2.6l-0.1-0.5v-4.5c0-0.9-0.3-1.6-0.8-2.1
	s-1.3-0.7-2.4-0.7c-0.7,0-1.4,0.1-2.1,0.3c-0.7,0.2-1.3,0.5-1.8,0.9l-1.2-2.2c0.7-0.5,1.5-0.9,2.5-1.2c0.9-0.3,1.9-0.4,3-0.4
	c1.9,0,3.3,0.4,4.3,1.3s1.5,2.3,1.5,4.1v7.5h-2.9V395.5z M448.4,385.2v-2.4h8.5v2.4H448.4z M455,395.7c-1.4,0-2.5-0.4-3.3-1.1
	s-1.2-1.8-1.2-3.2v-11.5h3v11.4c0,0.6,0.2,1.1,0.5,1.4s0.8,0.5,1.3,0.5c0.7,0,1.2-0.2,1.6-0.5l0.9,2.1c-0.4,0.3-0.8,0.5-1.3,0.6
	C456,395.6,455.5,395.7,455,395.7z M461.8,380.6c-0.6,0-1-0.2-1.4-0.5c-0.4-0.4-0.5-0.8-0.5-1.3s0.2-0.9,0.5-1.2
	c0.4-0.4,0.8-0.5,1.4-0.5s1,0.2,1.4,0.5s0.5,0.7,0.5,1.3c0,0.5-0.2,0.9-0.5,1.3C462.9,380.4,462.4,380.6,461.8,380.6z M460.3,395.5
	v-12.8h3v12.8H460.3z M473,395.7c-1.3,0-2.5-0.3-3.5-0.9s-1.8-1.3-2.4-2.3s-0.9-2.1-0.9-3.4s0.3-2.4,0.9-3.4s1.4-1.7,2.4-2.3
	c1-0.6,2.2-0.9,3.5-0.9s2.5,0.3,3.5,0.9s1.8,1.3,2.4,2.3s0.9,2.1,0.9,3.4s-0.3,2.4-0.9,3.4s-1.4,1.8-2.4,2.3
	C475.5,395.4,474.3,395.7,473,395.7z M473,393.1c0.7,0,1.4-0.2,2-0.5s1-0.8,1.4-1.4c0.3-0.6,0.5-1.3,0.5-2.1c0-0.8-0.2-1.5-0.5-2.1
	s-0.8-1.1-1.4-1.4s-1.2-0.5-1.9-0.5c-0.7,0-1.4,0.2-1.9,0.5c-0.6,0.3-1,0.8-1.4,1.4c-0.3,0.6-0.5,1.3-0.5,2.1c0,0.8,0.2,1.5,0.5,2.1
	s0.8,1.1,1.4,1.4C471.7,393,472.3,393.1,473,393.1z M490,382.5c1,0,2,0.2,2.7,0.6s1.4,1,1.9,1.8s0.7,1.9,0.7,3.2v7.3h-3v-7
	c0-1.1-0.3-2-0.8-2.5c-0.5-0.6-1.3-0.8-2.3-0.8c-0.7,0-1.3,0.1-1.9,0.4s-1,0.7-1.3,1.3c-0.3,0.6-0.4,1.3-0.4,2.1v6.5h-3v-12.8h2.9
	v3.5L485,385c0.4-0.8,1.1-1.4,1.9-1.9C487.9,382.7,488.9,382.5,490,382.5z"/>
<path class="st1" d="M323.8,395.8c-1.3,0-2.6-0.2-3.8-0.6s-2.1-0.9-2.9-1.5l1.1-2.4c0.7,0.5,1.5,1,2.5,1.3s2,0.5,3,0.5
	c0.9,0,1.6-0.1,2.1-0.3c0.5-0.2,0.9-0.5,1.2-0.8s0.4-0.7,0.4-1.1c0-0.5-0.2-0.9-0.6-1.2c-0.4-0.3-0.8-0.6-1.4-0.7
	c-0.6-0.2-1.2-0.4-1.9-0.5c-0.7-0.2-1.4-0.3-2.1-0.6c-0.7-0.2-1.4-0.5-2-0.9c-0.6-0.3-1.1-0.8-1.4-1.4c-0.4-0.6-0.5-1.3-0.5-2.2
	c0-0.9,0.2-1.7,0.7-2.5c0.5-0.8,1.2-1.4,2.2-1.8c1-0.5,2.3-0.7,3.8-0.7c1,0,2,0.1,3,0.4c1,0.3,1.9,0.6,2.6,1.1l-1,2.4
	c-0.8-0.4-1.5-0.8-2.3-1c-0.8-0.2-1.6-0.3-2.3-0.3c-0.8,0-1.5,0.1-2.1,0.3c-0.5,0.2-0.9,0.5-1.2,0.8c-0.2,0.3-0.4,0.7-0.4,1.1
	c0,0.5,0.2,0.9,0.5,1.2c0.4,0.3,0.8,0.6,1.4,0.7c0.6,0.2,1.2,0.3,2,0.5c0.7,0.2,1.4,0.3,2.1,0.6s1.4,0.5,1.9,0.8
	c0.6,0.3,1.1,0.8,1.4,1.4s0.5,1.3,0.5,2.2c0,0.9-0.2,1.7-0.7,2.5s-1.2,1.4-2.2,1.8C326.6,395.6,325.3,395.8,323.8,395.8z
	 M338.8,395.8c-1.1,0-2-0.2-2.9-0.6c-0.8-0.4-1.5-1-2-1.9c-0.5-0.8-0.7-1.9-0.7-3.2v-7.3h3v6.9c0,1.1,0.3,2,0.8,2.6
	c0.5,0.6,1.3,0.9,2.2,0.9c0.7,0,1.3-0.1,1.8-0.4c0.5-0.3,0.9-0.7,1.2-1.3c0.3-0.6,0.4-1.3,0.4-2.1v-6.5h3v12.8h-2.9v-3.5l0.5,1.1
	c-0.4,0.8-1.1,1.4-1.9,1.9S339.8,395.8,338.8,395.8z M349.7,395.6v-12.8h2.9v3.5l-0.3-1c0.4-0.9,1-1.5,1.8-2s1.8-0.7,3-0.7v2.9
	c-0.1,0-0.2,0-0.3,0c-0.1,0-0.2,0-0.3,0c-1.2,0-2.1,0.3-2.7,1c-0.7,0.7-1,1.7-1,3v6.2H349.7z M363.2,395.6l-5.5-12.8h3.1l4.8,11.3
	H364l4.9-11.3h2.9l-5.5,12.8H363.2z M379.7,395.8c-1.4,0-2.7-0.3-3.7-0.9c-1.1-0.6-1.9-1.3-2.5-2.3c-0.6-1-0.9-2.1-0.9-3.4
	c0-1.3,0.3-2.4,0.9-3.4c0.6-1,1.4-1.8,2.4-2.3s2.1-0.9,3.4-0.9c1.2,0,2.4,0.3,3.3,0.8c1,0.6,1.7,1.3,2.3,2.3c0.6,1,0.8,2.2,0.8,3.5
	c0,0.1,0,0.3,0,0.4s0,0.3,0,0.4H375v-2h9.1l-1.2,0.6c0-0.7-0.1-1.4-0.4-1.9c-0.3-0.6-0.7-1-1.3-1.3c-0.5-0.3-1.2-0.5-1.9-0.5
	c-0.7,0-1.4,0.2-1.9,0.5c-0.6,0.3-1,0.8-1.3,1.3c-0.3,0.6-0.5,1.2-0.5,2v0.5c0,0.8,0.2,1.4,0.5,2c0.3,0.6,0.8,1.1,1.5,1.4
	c0.6,0.3,1.4,0.5,2.2,0.5c0.7,0,1.4-0.1,1.9-0.4s1.1-0.6,1.5-1.1l1.6,1.9c-0.6,0.7-1.3,1.2-2.2,1.5
	C381.8,395.6,380.8,395.8,379.7,395.8z M389.7,400.4c-0.6,0-1.3-0.1-1.9-0.3s-1.1-0.5-1.5-0.9l1.2-2.2c0.3,0.3,0.6,0.5,1,0.6
	s0.8,0.2,1.2,0.2c0.5,0,1-0.1,1.3-0.4c0.3-0.3,0.6-0.7,0.9-1.4l0.7-1.6l0.3-0.4l4.8-11.3h2.9l-6,13.9c-0.4,0.9-0.8,1.7-1.3,2.2
	s-1,0.9-1.6,1.2C391,400.3,390.4,400.4,389.7,400.4z M392.3,396.1l-5.8-13.3h3.1l4.7,11.1L392.3,396.1z"/>
</svg>
