<?xml version="1.0" encoding="utf-8"?>
<!-- Generator: Adobe Illustrator 28.0.0, SVG Export Plug-In . SVG Version: 6.00 Build 0)  -->
<svg version="1.1" id="Layer_1" xmlns="http://www.w3.org/2000/svg" xmlns:xlink="http://www.w3.org/1999/xlink" x="0px" y="0px"
	 viewBox="0 0 585 585" style="enable-background:new 0 0 585 585;" xml:space="preserve">
<style type="text/css">
	.st0{fill:#8CC63F;}
	.st1{fill:#FFFFFF;}
	.st2{fill:#86BD40;}
</style>
<path class="st0" d="M571.6,429.6H142.4c-3,0-5.4-2.4-5.4-5.4v-77.8c0-3,2.4-5.4,5.4-5.4h429.2c3,0,5.4,2.4,5.4,5.4v77.8
	C577,427.2,574.6,429.6,571.6,429.6z"/>
<circle class="st1" cx="88.9" cy="385.3" r="80.3"/>
<path class="st0" d="M88.8,461.6c-42.1,0-76.3-34.2-76.3-76.3S46.7,309,88.8,309s76.3,34.2,76.3,76.3S130.9,461.6,88.8,461.6z
	 M88.8,331.1c-29.9,0-54.2,24.3-54.2,54.2s24.3,54.2,54.2,54.2s54.2-24.3,54.2-54.2S118.7,331.1,88.8,331.1z"/>
<path class="st2" d="M76.5,352.4c-0.7-0.7-1.7-0.7-2.3-0.1l0.6-0.6v-1.1H53.3V372h21.5v-15.6l1.7-1.7
	C77.2,354.1,77.2,353.1,76.5,352.4z M72.3,369.6H55.8v-16.5h16.5v1.1l-8.3,8.1l-3.2-3.2c-0.7-0.7-1.7-0.7-2.3,0
	c-0.7,0.7-0.7,1.8,0,2.3l4.3,4.3c0.1,0.1,0.2,0.1,0.2,0.2c0.1,0.1,0.2,0.1,0.3,0.1c0.2,0.1,0.4,0.1,0.7,0.1c0.4,0,0.8-0.1,1.1-0.4
	l0,0l7.1-7L72.3,369.6L72.3,369.6z M123.5,367.1H80.8c-0.4,0-0.8-0.3-0.8-0.8v-2.7c0-0.4,0.3-0.8,0.8-0.8h42.6
	c0.4,0,0.8,0.3,0.8,0.8v2.7C124.2,366.8,123.9,367.1,123.5,367.1z M76.5,376.3c-0.7-0.7-1.7-0.7-2.3-0.1l0.6-0.6v-1.1H53.3V396h21.5
	v-15.6l1.7-1.7C77.2,378.1,77.2,377,76.5,376.3z M72.3,393.6H55.8V377h16.5v1.1l-8.3,8.1l-3.2-3.1c-0.7-0.7-1.7-0.7-2.3,0
	c-0.7,0.7-0.7,1.7,0,2.3l4.3,4.3c0.1,0.1,0.2,0.1,0.2,0.2c0.1,0.1,0.2,0.1,0.3,0.1c0.2,0.1,0.4,0.1,0.7,0.1c0.4,0,0.8-0.1,1.1-0.4
	l0,0l7.1-7L72.3,393.6C72.2,393.6,72.3,393.6,72.3,393.6z M123.5,391.2H80.8c-0.4,0-0.8-0.3-0.8-0.8v-2.7c0-0.4,0.3-0.8,0.8-0.8
	h42.6c0.4,0,0.8,0.3,0.8,0.8v2.7C124.2,390.7,123.9,391.2,123.5,391.2z M76.5,400.4c-0.7-0.7-1.7-0.7-2.3-0.1l0.6-0.6v-1.1H53.3
	v21.5h21.5v-15.7l1.7-1.7C77.2,402.1,77.2,401,76.5,400.4z M72.3,417.5H55.8V401h16.5v1.1l-8.3,8.1l-3.2-3.2c-0.7-0.7-1.7-0.7-2.3,0
	c-0.7,0.7-0.7,1.7,0,2.3l4.3,4.3c0.1,0.1,0.2,0.1,0.2,0.2c0.1,0.2,0.2,0.2,0.3,0.2c0.2,0.1,0.4,0.1,0.7,0.1c0.4,0,0.8-0.1,1.1-0.4
	l0,0l7.1-7L72.3,417.5L72.3,417.5z M123.5,415.1H80.8c-0.4,0-0.8-0.3-0.8-0.8v-2.7c0-0.4,0.3-0.8,0.8-0.8h42.6
	c0.4,0,0.8,0.3,0.8,0.8v2.7C124.2,414.8,123.9,415.1,123.5,415.1z"/>
<path class="st1" d="M348.7,395.8c-1.3,0-2.6-0.2-3.8-0.6s-2.1-0.9-2.9-1.5l1.1-2.4c0.7,0.5,1.5,1,2.5,1.3s2,0.5,3,0.5
	c0.9,0,1.6-0.1,2.1-0.3c0.5-0.2,0.9-0.5,1.2-0.8s0.4-0.7,0.4-1.1c0-0.5-0.2-0.9-0.6-1.2c-0.4-0.3-0.8-0.6-1.4-0.7
	c-0.6-0.2-1.2-0.4-1.9-0.5c-0.7-0.2-1.4-0.3-2.1-0.6c-0.7-0.2-1.4-0.5-2-0.9c-0.6-0.3-1.1-0.8-1.4-1.4c-0.4-0.6-0.5-1.3-0.5-2.2
	c0-0.9,0.2-1.7,0.7-2.5s1.2-1.4,2.2-1.8c1-0.5,2.3-0.7,3.8-0.7c1,0,2,0.1,3,0.4s1.9,0.6,2.6,1.1l-1,2.4c-0.8-0.4-1.5-0.8-2.3-1
	s-1.6-0.3-2.3-0.3c-0.8,0-1.5,0.1-2.1,0.3c-0.5,0.2-0.9,0.5-1.2,0.8c-0.2,0.3-0.4,0.7-0.4,1.1c0,0.5,0.2,0.9,0.5,1.2
	c0.4,0.3,0.8,0.6,1.4,0.7c0.6,0.2,1.2,0.3,2,0.5c0.7,0.2,1.4,0.3,2.1,0.6s1.4,0.5,1.9,0.8c0.6,0.3,1.1,0.8,1.4,1.4s0.5,1.3,0.5,2.2
	c0,0.9-0.2,1.7-0.7,2.5s-1.2,1.4-2.2,1.8C351.5,395.6,350.2,395.8,348.7,395.8z M363.7,395.8c-1.1,0-2-0.2-2.9-0.6
	c-0.8-0.4-1.5-1-2-1.9c-0.5-0.8-0.7-1.9-0.7-3.2v-7.3h3v6.9c0,1.1,0.3,2,0.8,2.6s1.3,0.9,2.2,0.9c0.7,0,1.3-0.1,1.8-0.4
	s0.9-0.7,1.2-1.3c0.3-0.6,0.4-1.3,0.4-2.1v-6.5h3v12.8h-2.9v-3.5l0.5,1.1c-0.4,0.8-1.1,1.4-1.9,1.9S364.7,395.8,363.7,395.8z
	 M374.6,395.6v-12.8h2.9v3.5l-0.3-1c0.4-0.9,1-1.5,1.8-2s1.8-0.7,3-0.7v2.9c-0.1,0-0.2,0-0.3,0c-0.1,0-0.2,0-0.3,0
	c-1.2,0-2.1,0.3-2.7,1c-0.7,0.7-1,1.7-1,3v6.2h-3.1V395.6z M388.1,395.6l-5.5-12.8h3.1l4.8,11.3h-1.6l4.9-11.3h2.9l-5.5,12.8H388.1z
	 M404.6,395.8c-1.4,0-2.7-0.3-3.7-0.9c-1.1-0.6-1.9-1.3-2.5-2.3s-0.9-2.1-0.9-3.4s0.3-2.4,0.9-3.4s1.4-1.8,2.4-2.3s2.1-0.9,3.4-0.9
	c1.2,0,2.4,0.3,3.3,0.8c1,0.6,1.7,1.3,2.3,2.3c0.6,1,0.8,2.2,0.8,3.5c0,0.1,0,0.3,0,0.4s0,0.3,0,0.4h-10.7v-2h9.1l-1.2,0.6
	c0-0.7-0.1-1.4-0.4-1.9c-0.3-0.6-0.7-1-1.3-1.3c-0.5-0.3-1.2-0.5-1.9-0.5c-0.7,0-1.4,0.2-1.9,0.5c-0.6,0.3-1,0.8-1.3,1.3
	c-0.3,0.6-0.5,1.2-0.5,2v0.5c0,0.8,0.2,1.4,0.5,2s0.8,1.1,1.5,1.4c0.6,0.3,1.4,0.5,2.2,0.5c0.7,0,1.4-0.1,1.9-0.4s1.1-0.6,1.5-1.1
	l1.6,1.9c-0.6,0.7-1.3,1.2-2.2,1.5C406.7,395.6,405.7,395.8,404.6,395.8z M414.6,400.4c-0.6,0-1.3-0.1-1.9-0.3s-1.1-0.5-1.5-0.9
	l1.2-2.2c0.3,0.3,0.6,0.5,1,0.6s0.8,0.2,1.2,0.2c0.5,0,1-0.1,1.3-0.4s0.6-0.7,0.9-1.4l0.7-1.6l0.3-0.4l4.8-11.3h2.9l-6,13.9
	c-0.4,0.9-0.8,1.7-1.3,2.2s-1,0.9-1.6,1.2C415.9,400.3,415.3,400.4,414.6,400.4z M417.2,396.1l-5.8-13.3h3.1l4.7,11.1L417.2,396.1z
	 M283,395.8c-1.3,0-2.6-0.2-3.8-0.6s-2.1-0.9-2.9-1.5l1.1-2.4c0.7,0.5,1.5,1,2.5,1.3c1,0.4,2,0.5,3,0.5c0.9,0,1.6-0.1,2.1-0.3
	c0.5-0.2,0.9-0.5,1.2-0.8s0.4-0.7,0.4-1.1c0-0.5-0.2-0.9-0.6-1.2c-0.4-0.3-0.8-0.6-1.4-0.7c-0.6-0.2-1.2-0.4-1.9-0.5
	c-0.7-0.2-1.4-0.3-2.1-0.6c-0.7-0.2-1.4-0.5-2-0.9c-0.6-0.3-1.1-0.8-1.4-1.4c-0.4-0.6-0.5-1.3-0.5-2.2c0-0.9,0.2-1.7,0.7-2.5
	s1.2-1.4,2.2-1.8c1-0.5,2.3-0.7,3.8-0.7c1,0,2,0.1,3,0.4s1.9,0.6,2.6,1.1l-1,2.4c-0.8-0.4-1.5-0.8-2.3-1s-1.6-0.3-2.3-0.3
	c-0.8,0-1.5,0.1-2.1,0.3s-0.9,0.5-1.2,0.8c-0.2,0.3-0.4,0.7-0.4,1.1c0,0.5,0.2,0.9,0.5,1.2c0.4,0.3,0.8,0.6,1.4,0.7
	c0.6,0.2,1.2,0.3,2,0.5c0.7,0.2,1.4,0.3,2.1,0.6c0.7,0.2,1.4,0.5,1.9,0.8c0.6,0.3,1.1,0.8,1.4,1.4c0.4,0.6,0.5,1.3,0.5,2.2
	c0,0.9-0.2,1.7-0.7,2.5s-1.2,1.4-2.2,1.8C285.8,395.6,284.5,395.8,283,395.8z M290.9,385.3v-2.4h8.5v2.4H290.9z M297.4,395.8
	c-1.4,0-2.5-0.4-3.3-1.1s-1.2-1.8-1.2-3.2V380h3v11.4c0,0.6,0.2,1.1,0.5,1.4s0.8,0.5,1.3,0.5c0.7,0,1.2-0.2,1.6-0.5l0.9,2.1
	c-0.4,0.3-0.8,0.5-1.3,0.6C298.4,395.7,297.9,395.8,297.4,395.8z M306.6,395.8c-1,0-1.8-0.2-2.5-0.5s-1.3-0.8-1.7-1.4
	c-0.4-0.6-0.6-1.2-0.6-2c0-0.7,0.2-1.4,0.5-1.9c0.3-0.6,0.9-1,1.7-1.4s1.8-0.5,3.1-0.5h3.7v2h-3.5c-1,0-1.7,0.2-2.1,0.5
	s-0.5,0.7-0.5,1.2s0.2,1,0.6,1.3s1,0.5,1.8,0.5c0.7,0,1.4-0.2,2-0.5s1-0.8,1.3-1.5l0.5,1.8c-0.3,0.8-0.8,1.3-1.5,1.8
	C308.7,395.6,307.8,395.8,306.6,395.8z M310.6,395.6V393l-0.1-0.5V388c0-0.9-0.3-1.6-0.8-2.1s-1.3-0.7-2.4-0.7
	c-0.7,0-1.4,0.1-2.1,0.3c-0.7,0.2-1.3,0.5-1.8,0.9l-1.2-2.2c0.7-0.5,1.5-0.9,2.5-1.2c0.9-0.3,1.9-0.4,3-0.4c1.9,0,3.3,0.4,4.3,1.3
	s1.5,2.3,1.5,4.1v7.5h-2.9V395.6z M317.3,395.6v-12.8h2.9v3.5l-0.3-1c0.4-0.9,1-1.5,1.8-2s1.8-0.7,3-0.7v2.9c-0.1,0-0.2,0-0.3,0
	c-0.1,0-0.2,0-0.3,0c-1.2,0-2.1,0.3-2.7,1c-0.7,0.7-1,1.7-1,3v6.2h-3.1V395.6z M325.7,385.3v-2.4h8.5v2.4H325.7z M332.2,395.8
	c-1.4,0-2.5-0.4-3.3-1.1s-1.2-1.8-1.2-3.2V380h3v11.4c0,0.6,0.2,1.1,0.5,1.4s0.8,0.5,1.3,0.5c0.7,0,1.2-0.2,1.6-0.5l0.9,2.1
	c-0.4,0.3-0.8,0.5-1.3,0.6C333.2,395.7,332.7,395.8,332.2,395.8z"/>
<path d="M355.6,206.6v85.5c0,3.4-2.8,6.2-6.2,6.2h-139c-3.4,0-6.2-2.8-6.2-6.2V158.8c0-3.4,2.8-6.2,6.2-6.2h96v-6.5h-96
	c-7,0-12.7,5.7-12.7,12.7v133.4c0,7,5.7,12.7,12.7,12.7h139c7,0,12.7-5.7,12.7-12.7v-85.5h-6.5V206.6z M385.1,151.1l-26.5-26.4
	c-3.6-3.6-9.4-3.6-13,0l-93.7,93.7c-1.5,1.5-2.4,3.4-2.6,5.3c-4.4,10-15.2,34.6-18.9,42.6l0,0c-0.2,0.4-0.4,0.8-0.6,1.3
	c-2.5,6.4-0.5,9.7,0.9,11.1c0.9,0.8,2.5,1.9,5.1,1.9c1.8,0,4-0.5,6.8-2c6.1-3.1,32-13.8,42.8-18.2c2.1-0.1,4.2-1,5.8-2.7l93.7-93.7
	C388.6,160.5,388.6,154.7,385.1,151.1z M245.5,270.2l-6.5-7.1c3.8-8.6,9.7-21.8,13.8-31l17.1,17.1l0.1,0.1l0.1,0.1l7.2,7.2
	C267.8,260.7,253.8,266.5,245.5,270.2z M380.4,159.5l-93.2,93.2l-0.5,0.5c-0.7,0.7-1.6,0.9-2.4,0.7l0,0c-0.5-0.1-0.9-0.3-1.3-0.7
	l-6.1-6.1l86.8-86.8c1.3-1.3,1.3-3.3,0-4.6s-3.4-1.3-4.6,0l-86.8,86.8l-15.8-15.8c-0.4-0.4-0.7-0.9-0.7-1.5c0-0.1,0-0.2,0-0.4
	c0-0.7,0.3-1.4,0.8-1.9l93.7-93.7c0.5-0.5,1.2-0.8,1.9-0.8c0.7,0,1.4,0.3,1.9,0.8l26.4,26.5c0.5,0.5,0.8,1.2,0.8,1.9
	C381.2,158.3,381,159,380.4,159.5z M257,222.5c-0.2,0.6-0.7,1.5-1.2,2.7c0-0.1,0-0.2,0-0.4c0-0.7,0.3-1.4,0.8-1.9L257,222.5z
	 M287.2,252.7l-0.5,0.5c-0.7,0.7-1.6,0.9-2.4,0.7C285.7,253.3,286.7,253,287.2,252.7z M230.4,266.3c-0.2,0.4-0.4,0.8-0.6,1.3
	l-0.4-0.4L230.4,266.3z"/>
</svg>
