<?xml version="1.0" encoding="utf-8"?>
<!-- Generator: Adobe Illustrator 28.0.0, SVG Export Plug-In . SVG Version: 6.00 Build 0)  -->
<svg version="1.1" id="Layer_1" xmlns="http://www.w3.org/2000/svg" xmlns:xlink="http://www.w3.org/1999/xlink" x="0px" y="0px"
	 viewBox="0 0 585 585" style="enable-background:new 0 0 585 585;" xml:space="preserve">
<style type="text/css">
	.st0{fill:#8CC63F;}
	.st1{fill:#FFFFFF;}
	.st2{fill:#86BD40;}
</style>
<path d="M202.8,129v176h176V129H202.8z M372.2,298.3H209.8V135.9h162.4V298.3z M243.6,220.9c-1.7-1.7-1.7-4.4,0-6
	c1.7-1.7,4.4-1.7,6,0l21.3,26.9l64.4-69c1.7-1.6,4.4-1.6,6,0.1s1.6,4.4-0.1,6L274,250.8l-0.1,0.1c-0.8,0.8-1.9,1.2-3,1.2
	c-0.6,0-1.2-0.1-1.7-0.3c-0.2-0.1-0.5-0.2-0.7-0.3s-0.5-0.3-0.7-0.6L243.6,220.9z"/>
<path class="st0" d="M570.7,429.6H141.5c-3,0-5.4-2.4-5.4-5.4v-77.8c0-3,2.4-5.4,5.4-5.4h429.2c3,0,5.4,2.4,5.4,5.4v77.8
	C576.1,427.2,573.7,429.6,570.7,429.6z"/>
<circle class="st1" cx="88" cy="385.3" r="80.3"/>
<path class="st0" d="M87.9,461.6c-42.1,0-76.3-34.2-76.3-76.3S45.8,309,87.9,309s76.3,34.2,76.3,76.3S130,461.6,87.9,461.6z
	 M87.9,331.1c-29.9,0-54.2,24.3-54.2,54.2s24.3,54.2,54.2,54.2s54.2-24.3,54.2-54.2S117.8,331.1,87.9,331.1z"/>
<path class="st2" d="M75.6,352.4c-0.7-0.7-1.7-0.7-2.3-0.1l0.6-0.6v-1.1H52.4V372h21.5v-15.6l1.7-1.7
	C76.3,354.1,76.3,353.1,75.6,352.4z M71.4,369.6H54.9v-16.5h16.5v1.1l-8.3,8.1l-3.2-3.2c-0.7-0.7-1.7-0.7-2.3,0
	c-0.7,0.7-0.7,1.8,0,2.3l4.3,4.3c0.1,0.1,0.2,0.1,0.2,0.2c0.1,0.1,0.2,0.1,0.3,0.1c0.2,0.1,0.4,0.1,0.7,0.1c0.4,0,0.8-0.1,1.1-0.4
	l0,0l7.1-7L71.4,369.6L71.4,369.6z M122.6,367.1H79.9c-0.4,0-0.8-0.3-0.8-0.8v-2.7c0-0.4,0.3-0.8,0.8-0.8h42.6
	c0.4,0,0.8,0.3,0.8,0.8v2.7C123.3,366.8,123,367.1,122.6,367.1z M75.6,376.3c-0.7-0.7-1.7-0.7-2.3-0.1l0.6-0.6v-1.1H52.4V396h21.5
	v-15.6l1.7-1.7C76.3,378.1,76.3,377,75.6,376.3z M71.4,393.6H54.9V377h16.5v1.1l-8.3,8.1l-3.2-3.1c-0.7-0.7-1.7-0.7-2.3,0
	c-0.7,0.7-0.7,1.7,0,2.3l4.3,4.3c0.1,0.1,0.2,0.1,0.2,0.2c0.1,0.1,0.2,0.1,0.3,0.1c0.2,0.1,0.4,0.1,0.7,0.1c0.4,0,0.8-0.1,1.1-0.4
	l0,0l7.1-7L71.4,393.6C71.3,393.6,71.4,393.6,71.4,393.6z M122.6,391.2H79.9c-0.4,0-0.8-0.3-0.8-0.8v-2.7c0-0.4,0.3-0.8,0.8-0.8
	h42.6c0.4,0,0.8,0.3,0.8,0.8v2.7C123.3,390.7,123,391.2,122.6,391.2z M75.6,400.4c-0.7-0.7-1.7-0.7-2.3-0.1l0.6-0.6v-1.1H52.4v21.5
	h21.5v-15.7l1.7-1.7C76.3,402.1,76.3,401,75.6,400.4z M71.4,417.5H54.9V401h16.5v1.1l-8.3,8.1l-3.2-3.2c-0.7-0.7-1.7-0.7-2.3,0
	c-0.7,0.7-0.7,1.7,0,2.3l4.3,4.3c0.1,0.1,0.2,0.1,0.2,0.2c0.1,0.2,0.2,0.2,0.3,0.2c0.2,0.1,0.4,0.1,0.7,0.1c0.4,0,0.8-0.1,1.1-0.4
	l0,0l7.1-7L71.4,417.5L71.4,417.5z M122.6,415.1H79.9c-0.4,0-0.8-0.3-0.8-0.8v-2.7c0-0.4,0.3-0.8,0.8-0.8h42.6
	c0.4,0,0.8,0.3,0.8,0.8v2.7C123.3,414.8,123,415.1,122.6,415.1z"/>
<path class="st1" d="M347.8,395.8c-1.3,0-2.6-0.2-3.8-0.6s-2.1-0.9-2.9-1.5l1.1-2.4c0.7,0.5,1.5,1,2.5,1.3s2,0.5,3,0.5
	c0.9,0,1.6-0.1,2.1-0.3c0.5-0.2,0.9-0.5,1.2-0.8s0.4-0.7,0.4-1.1c0-0.5-0.2-0.9-0.6-1.2c-0.4-0.3-0.8-0.6-1.4-0.7
	c-0.6-0.2-1.2-0.4-1.9-0.5c-0.7-0.2-1.4-0.3-2.1-0.6c-0.7-0.2-1.4-0.5-2-0.9c-0.6-0.3-1.1-0.8-1.4-1.4c-0.4-0.6-0.5-1.3-0.5-2.2
	c0-0.9,0.2-1.7,0.7-2.5s1.2-1.4,2.2-1.8c1-0.5,2.3-0.7,3.8-0.7c1,0,2,0.1,3,0.4s1.9,0.6,2.6,1.1l-1,2.4c-0.8-0.4-1.5-0.8-2.3-1
	s-1.6-0.3-2.3-0.3c-0.8,0-1.5,0.1-2.1,0.3c-0.5,0.2-0.9,0.5-1.2,0.8c-0.2,0.3-0.4,0.7-0.4,1.1c0,0.5,0.2,0.9,0.5,1.2
	c0.4,0.3,0.8,0.6,1.4,0.7c0.6,0.2,1.2,0.3,2,0.5c0.7,0.2,1.4,0.3,2.1,0.6s1.4,0.5,1.9,0.8c0.6,0.3,1.1,0.8,1.4,1.4s0.5,1.3,0.5,2.2
	c0,0.9-0.2,1.7-0.7,2.5s-1.2,1.4-2.2,1.8C350.6,395.6,349.3,395.8,347.8,395.8z M362.8,395.8c-1.1,0-2-0.2-2.9-0.6
	c-0.8-0.4-1.5-1-2-1.9c-0.5-0.8-0.7-1.9-0.7-3.2v-7.3h3v6.9c0,1.1,0.3,2,0.8,2.6s1.3,0.9,2.2,0.9c0.7,0,1.3-0.1,1.8-0.4
	s0.9-0.7,1.2-1.3c0.3-0.6,0.4-1.3,0.4-2.1v-6.5h3v12.8h-2.9v-3.5l0.5,1.1c-0.4,0.8-1.1,1.4-1.9,1.9S363.8,395.8,362.8,395.8z
	 M373.7,395.6v-12.8h2.9v3.5l-0.3-1c0.4-0.9,1-1.5,1.8-2s1.8-0.7,3-0.7v2.9c-0.1,0-0.2,0-0.3,0c-0.1,0-0.2,0-0.3,0
	c-1.2,0-2.1,0.3-2.7,1c-0.7,0.7-1,1.7-1,3v6.2h-3.1V395.6z M387.2,395.6l-5.5-12.8h3.1l4.8,11.3H388l4.9-11.3h2.9l-5.5,12.8H387.2z
	 M403.7,395.8c-1.4,0-2.7-0.3-3.7-0.9c-1.1-0.6-1.9-1.3-2.5-2.3s-0.9-2.1-0.9-3.4s0.3-2.4,0.9-3.4s1.4-1.8,2.4-2.3s2.1-0.9,3.4-0.9
	c1.2,0,2.4,0.3,3.3,0.8c1,0.6,1.7,1.3,2.3,2.3c0.6,1,0.8,2.2,0.8,3.5c0,0.1,0,0.3,0,0.4s0,0.3,0,0.4H399v-2h9.1l-1.2,0.6
	c0-0.7-0.1-1.4-0.4-1.9c-0.3-0.6-0.7-1-1.3-1.3c-0.5-0.3-1.2-0.5-1.9-0.5c-0.7,0-1.4,0.2-1.9,0.5c-0.6,0.3-1,0.8-1.3,1.3
	c-0.3,0.6-0.5,1.2-0.5,2v0.5c0,0.8,0.2,1.4,0.5,2s0.8,1.1,1.5,1.4c0.6,0.3,1.4,0.5,2.2,0.5c0.7,0,1.4-0.1,1.9-0.4s1.1-0.6,1.5-1.1
	l1.6,1.9c-0.6,0.7-1.3,1.2-2.2,1.5C405.8,395.6,404.8,395.8,403.7,395.8z M413.7,400.4c-0.6,0-1.3-0.1-1.9-0.3s-1.1-0.5-1.5-0.9
	l1.2-2.2c0.3,0.3,0.6,0.5,1,0.6s0.8,0.2,1.2,0.2c0.5,0,1-0.1,1.3-0.4s0.6-0.7,0.9-1.4l0.7-1.6l0.3-0.4l4.8-11.3h2.9l-6,13.9
	c-0.4,0.9-0.8,1.7-1.3,2.2s-1,0.9-1.6,1.2C415,400.3,414.4,400.4,413.7,400.4z M416.3,396.1l-5.8-13.3h3.1l4.7,11.1L416.3,396.1z
	 M282.1,395.8c-1.3,0-2.6-0.2-3.8-0.6s-2.1-0.9-2.9-1.5l1.1-2.4c0.7,0.5,1.5,1,2.5,1.3c1,0.4,2,0.5,3,0.5c0.9,0,1.6-0.1,2.1-0.3
	c0.5-0.2,0.9-0.5,1.2-0.8s0.4-0.7,0.4-1.1c0-0.5-0.2-0.9-0.6-1.2c-0.4-0.3-0.8-0.6-1.4-0.7c-0.6-0.2-1.2-0.4-1.9-0.5
	c-0.7-0.2-1.4-0.3-2.1-0.6c-0.7-0.2-1.4-0.5-2-0.9c-0.6-0.3-1.1-0.8-1.4-1.4c-0.4-0.6-0.5-1.3-0.5-2.2c0-0.9,0.2-1.7,0.7-2.5
	c0.5-0.8,1.2-1.4,2.2-1.8c1-0.5,2.3-0.7,3.8-0.7c1,0,2,0.1,3,0.4c1,0.3,1.9,0.6,2.6,1.1l-1,2.4c-0.8-0.4-1.5-0.8-2.3-1
	c-0.8-0.2-1.6-0.3-2.3-0.3c-0.8,0-1.5,0.1-2.1,0.3s-0.9,0.5-1.2,0.8c-0.2,0.3-0.4,0.7-0.4,1.1c0,0.5,0.2,0.9,0.5,1.2
	c0.4,0.3,0.8,0.6,1.4,0.7c0.6,0.2,1.2,0.3,2,0.5c0.7,0.2,1.4,0.3,2.1,0.6c0.7,0.2,1.4,0.5,1.9,0.8c0.6,0.3,1.1,0.8,1.4,1.4
	c0.4,0.6,0.5,1.3,0.5,2.2c0,0.9-0.2,1.7-0.7,2.5c-0.5,0.8-1.2,1.4-2.2,1.8C284.9,395.6,283.6,395.8,282.1,395.8z M290,385.3v-2.4
	h8.5v2.4H290z M296.5,395.8c-1.4,0-2.5-0.4-3.3-1.1s-1.2-1.8-1.2-3.2V380h3v11.4c0,0.6,0.2,1.1,0.5,1.4c0.3,0.3,0.8,0.5,1.3,0.5
	c0.7,0,1.2-0.2,1.6-0.5l0.9,2.1c-0.4,0.3-0.8,0.5-1.3,0.6C297.5,395.7,297,395.8,296.5,395.8z M305.7,395.8c-1,0-1.8-0.2-2.5-0.5
	c-0.7-0.3-1.3-0.8-1.7-1.4c-0.4-0.6-0.6-1.2-0.6-2c0-0.7,0.2-1.4,0.5-1.9c0.3-0.6,0.9-1,1.7-1.4s1.8-0.5,3.1-0.5h3.7v2h-3.5
	c-1,0-1.7,0.2-2.1,0.5s-0.5,0.7-0.5,1.2c0,0.5,0.2,1,0.6,1.3c0.4,0.3,1,0.5,1.8,0.5c0.7,0,1.4-0.2,2-0.5c0.6-0.3,1-0.8,1.3-1.5
	l0.5,1.8c-0.3,0.8-0.8,1.3-1.5,1.8C307.8,395.6,306.9,395.8,305.7,395.8z M309.7,395.6V393l-0.1-0.5v-4.5c0-0.9-0.3-1.6-0.8-2.1
	c-0.5-0.5-1.3-0.7-2.4-0.7c-0.7,0-1.4,0.1-2.1,0.3c-0.7,0.2-1.3,0.5-1.8,0.9l-1.2-2.2c0.7-0.5,1.5-0.9,2.5-1.2
	c0.9-0.3,1.9-0.4,3-0.4c1.9,0,3.3,0.4,4.3,1.3c1,0.9,1.5,2.3,1.5,4.1v7.5H309.7z M316.4,395.6v-12.8h2.9v3.5l-0.3-1
	c0.4-0.9,1-1.5,1.8-2c0.8-0.5,1.8-0.7,3-0.7v2.9c-0.1,0-0.2,0-0.3,0c-0.1,0-0.2,0-0.3,0c-1.2,0-2.1,0.3-2.7,1c-0.7,0.7-1,1.7-1,3
	v6.2H316.4z M324.8,385.3v-2.4h8.5v2.4H324.8z M331.3,395.8c-1.4,0-2.5-0.4-3.3-1.1c-0.8-0.7-1.2-1.8-1.2-3.2V380h3v11.4
	c0,0.6,0.2,1.1,0.5,1.4s0.8,0.5,1.3,0.5c0.7,0,1.2-0.2,1.6-0.5l0.9,2.1c-0.4,0.3-0.8,0.5-1.3,0.6
	C332.3,395.7,331.8,395.8,331.3,395.8z"/>
</svg>
