<?xml version="1.0" encoding="utf-8"?>
<!-- Generator: Adobe Illustrator 28.0.0, SVG Export Plug-In . SVG Version: 6.00 Build 0)  -->
<svg version="1.1" id="Layer_1" xmlns="http://www.w3.org/2000/svg" xmlns:xlink="http://www.w3.org/1999/xlink" x="0px" y="0px"
	 viewBox="0 0 66 66" style="enable-background:new 0 0 66 66;" xml:space="preserve">
<path d="M0.6,0.6v64.7h64.7V0.6H0.6z M61.5,61.5h-57v-57h57V61.5z M16.3,34.9c-1.5-1.5-1.5-3.8,0-5.2c1.5-1.5,3.8-1.5,5.2,0l7.2,7.2
	l18-19.5c1.5-1.4,3.8-1.4,5.2,0.1s1.4,3.8-0.1,5.2l-20.5,22l-0.1,0.1c-0.7,0.7-1.6,1-2.6,1c-0.5,0-1-0.1-1.5-0.3
	c-0.2-0.1-0.4-0.2-0.6-0.3s-0.4-0.3-0.6-0.5L16.3,34.9z"/>
</svg>
