<?xml version="1.0" encoding="utf-8"?>
<!-- Generator: Adobe Illustrator 28.0.0, SVG Export Plug-In . SVG Version: 6.00 Build 0)  -->
<svg version="1.1" id="Layer_1" xmlns="http://www.w3.org/2000/svg" xmlns:xlink="http://www.w3.org/1999/xlink" x="0px" y="0px"
	 viewBox="0 0 66 66" style="enable-background:new 0 0 66 66;" xml:space="preserve">
<style type="text/css">
	.st0{fill:#86BD40;}
</style>
<path class="st0" d="M21.9,3.3c-0.6-0.6-1.5-0.6-2.1-0.1l0.5-0.5v-1H1V21h19.4V6.9l1.5-1.5C22.5,4.8,22.5,3.9,21.9,3.3z M18.1,18.8
	H3.2V3.9h14.9v1l-7.5,7.3L7.7,9.3c-0.6-0.6-1.5-0.6-2.1,0C5,9.9,5,10.9,5.6,11.4l3.9,3.9c0.1,0.1,0.2,0.1,0.2,0.2
	c0.1,0.1,0.2,0.1,0.3,0.1c0.2,0.1,0.4,0.1,0.6,0.1c0.4,0,0.7-0.1,1-0.4l0,0L18,9v9.8H18.1z M64.3,16.6H25.8c-0.4,0-0.7-0.3-0.7-0.7
	v-2.4c0-0.4,0.3-0.7,0.7-0.7h38.5c0.4,0,0.7,0.3,0.7,0.7v2.4C65,16.3,64.7,16.6,64.3,16.6z M21.9,24.9c-0.6-0.6-1.5-0.6-2.1-0.1
	l0.5-0.5v-1H1v19.4h19.4V28.6l1.5-1.5C22.5,26.5,22.5,25.5,21.9,24.9z M18.1,40.5H3.2v-15h14.9v1l-7.5,7.3L7.7,31
	c-0.6-0.6-1.5-0.6-2.1,0s-0.6,1.5,0,2.1L9.5,37c0.1,0.1,0.2,0.1,0.2,0.2c0.1,0.1,0.2,0.1,0.3,0.1c0.2,0.1,0.4,0.1,0.6,0.1
	c0.4,0,0.7-0.1,1-0.4l0,0l6.4-6.3v9.8H18.1z M64.3,38.3H25.8c-0.4,0-0.7-0.3-0.7-0.7v-2.4c0-0.4,0.3-0.7,0.7-0.7h38.5
	c0.4,0,0.7,0.3,0.7,0.7v2.4C65,37.9,64.7,38.3,64.3,38.3z M21.9,46.6c-0.6-0.6-1.5-0.6-2.1-0.1l0.5-0.5v-1H1v19.4h19.4V50.2l1.5-1.5
	C22.5,48.2,22.5,47.2,21.9,46.6z M18.1,62.1H3.2V47.2h14.9v1l-7.5,7.3l-2.9-2.9c-0.6-0.6-1.5-0.6-2.1,0s-0.6,1.5,0,2.1l3.9,3.9
	c0.1,0.1,0.2,0.1,0.2,0.2C9.8,59,9.9,59,10,59c0.2,0.1,0.4,0.1,0.6,0.1c0.4,0,0.7-0.1,1-0.4l0,0l6.4-6.3v9.7H18.1z M64.3,59.9H25.8
	c-0.4,0-0.7-0.3-0.7-0.7v-2.4c0-0.4,0.3-0.7,0.7-0.7h38.5c0.4,0,0.7,0.3,0.7,0.7v2.4C65,59.6,64.7,59.9,64.3,59.9z"/>
</svg>
