<?xml version="1.0" encoding="utf-8"?>
<!-- Generator: Adobe Illustrator 28.0.0, SVG Export Plug-In . SVG Version: 6.00 Build 0)  -->
<svg version="1.1" id="Layer_1" xmlns="http://www.w3.org/2000/svg" xmlns:xlink="http://www.w3.org/1999/xlink" x="0px" y="0px"
	 viewBox="0 0 260 260" style="enable-background:new 0 0 260 260;" xml:space="preserve">
<style type="text/css">
	.st0{fill:#26890D;}
	.st1{fill-rule:evenodd;clip-rule:evenodd;fill:#FFFFFF;}
</style>
<rect class="st0" width="260" height="260"/>
<path class="st1" d="M97.6,201.2L97.6,201.2c0,0,0,0,1.2,0c0,1.4,0,1.4,1.2,1.4l0,0c1.2,1.4,1.2,1.4,2.3,1.4c1.2,0,1.2,0,2.3-1.4
	l0,0c1.2,0,1.2,0,1.2-1.4l0,0c0,0,0,0,1.2,0C211,60.7,211,60.7,211,60.7c2.3-2.9,2.3-7.2,0-10.1c-2.3-2.9-5.8-1.4-8.1,1.4
	C102.2,186.8,102.2,186.8,102.2,186.8C57,125.9,57,125.9,57,125.9c-1.2-2.9-5.8-2.9-8.1,0c-2.3,2.9-2.3,7.2,0,10.1L97.6,201.2z"/>
</svg>
