<?xml version="1.0" encoding="utf-8"?>
<!-- Generator: Adobe Illustrator 28.0.0, SVG Export Plug-In . SVG Version: 6.00 Build 0)  -->
<svg version="1.1" id="Layer_1" xmlns="http://www.w3.org/2000/svg" xmlns:xlink="http://www.w3.org/1999/xlink" x="0px" y="0px"
	 viewBox="0 0 188.4 39.2" style="enable-background:new 0 0 188.4 39.2;" xml:space="preserve">
<style type="text/css">
	.st0{fill:#86BC25;}
	.st1{fill:#FFFFFF;}
</style>
<path class="st0" d="M175,31.6c0-2.7,2.2-4.8,4.8-4.8c2.7,0,4.8,2.2,4.8,4.8s-2.2,4.8-4.8,4.8S175,34.3,175,31.6"/>
<path class="st1" d="M30.8,18.7c0,5.6-1.4,9.8-4.4,12.8S19.2,36,13.8,36H3.2V2.7h11.2c5.3,0,9.3,1.3,12.1,4.1
	C29.4,9.5,30.8,13.5,30.8,18.7 M21.6,19c0-3.1-0.6-5.3-1.8-6.8c-1.1-1.4-3-2.2-5.4-2.2H12v18.6h2c2.7,0,4.6-0.8,5.9-2.4
	C21,24.6,21.6,22.2,21.6,19 M59.9,2.6h8.3V36h-8.3V2.6z M95.6,23.5c0,4-1,7.2-3.2,9.5c-2.2,2.3-5.2,3.4-9,3.4
	c-3.7,0-6.6-1.1-8.8-3.5c-2.2-2.4-3.3-5.5-3.3-9.4c0-4,1-7.2,3.2-9.4c2.2-2.3,5.2-3.4,9-3.4c2.4,0,4.5,0.5,6.3,1.5
	c1.9,1,3.2,2.5,4.2,4.4C95.2,18.7,95.6,20.9,95.6,23.5 M79.9,23.5c0,2.2,0.3,3.7,0.8,4.8s1.4,1.6,2.8,1.6s2.2-0.5,2.8-1.6
	c0.5-1.1,0.8-2.8,0.8-4.8c0-2.2-0.3-3.7-0.8-4.8c-0.5-1-1.4-1.6-2.8-1.6c-1.2,0-2.2,0.5-2.8,1.6C80.2,19.8,79.9,21.3,79.9,23.5
	 M99,11.1h8.3v24.8H99V11.1z M99,2.6h8.3v5.6H99V2.6z M124.2,29.6c1.1,0,2.5-0.3,4-0.8v6.3c-1.1,0.5-2.2,0.8-3.2,1s-2.2,0.3-3.6,0.3
	c-2.8,0-4.8-0.7-6.1-2.2c-1.2-1.4-1.9-3.6-1.9-6.5V17.5h-2.9v-6.4h2.9V4.9l8.4-1.4v7.8h5.4v6.3h-5.4v9.6
	C122,28.9,122.7,29.6,124.2,29.6 M143.6,29.6c1.1,0,2.5-0.3,4-0.8v6.3c-1.1,0.5-2.2,0.8-3.2,1s-2.2,0.3-3.6,0.3
	c-2.8,0-4.8-0.7-6.1-2.2c-1.2-1.4-1.9-3.6-1.9-6.5V17.5h-2.9v-6.4h2.9V4.8l8.4-1.3v7.8h5.4v6.3h-5.4v9.6
	C141.3,28.9,142.1,29.6,143.6,29.6 M170,13.6c-2-2-4.8-2.9-8.4-2.9c-3.8,0-6.8,1.1-8.9,3.4c-2.1,2.3-3.1,5.5-3.1,9.7
	c0,4,1.1,7.2,3.3,9.4c2.3,2.2,5.4,3.3,9.4,3.3c2,0,3.6-0.1,5-0.4c1.3-0.3,2.8-0.7,4-1.4l-1.2-5.6c-0.9,0.4-1.9,0.7-2.7,0.9
	c-1.2,0.3-2.6,0.4-4,0.4c-1.6,0-2.9-0.4-3.8-1.1c-0.9-0.8-1.4-1.9-1.4-3.3h14.9v-3.9C173,18.4,171.9,15.6,170,13.6 M158.2,20.5
	c0.1-1.3,0.5-2.4,1.1-3s1.4-0.9,2.5-0.9c1,0,2,0.3,2.6,1c0.6,0.7,0.9,1.6,1,2.9H158.2z M53.7,13.6c-2.1-2-4.8-2.9-8.4-2.9
	c-3.8,0-6.8,1.1-8.9,3.4s-3.1,5.5-3.1,9.7c0,4,1.1,7.2,3.3,9.4c2.3,2.2,5.4,3.3,9.4,3.3c2,0,3.6-0.1,5-0.4c1.3-0.3,2.8-0.7,4-1.4
	L53.8,29c-0.9,0.4-1.9,0.7-2.7,0.9c-1.2,0.3-2.6,0.4-4,0.4c-1.6,0-2.9-0.4-3.8-1.1c-0.9-0.8-1.4-1.9-1.4-3.3h14.9v-3.8
	C56.7,18.4,55.6,15.6,53.7,13.6 M41.8,20.5c0.1-1.3,0.5-2.4,1.1-3s1.4-0.9,2.5-0.9s2,0.3,2.6,1c0.6,0.7,0.9,1.6,1,2.9H41.8z"/>
</svg>
