<?xml version="1.0" encoding="utf-8"?>
<!-- Generator: Adobe Illustrator 28.0.0, SVG Export Plug-In . SVG Version: 6.00 Build 0)  -->
<svg version="1.1" id="Layer_1" xmlns="http://www.w3.org/2000/svg" xmlns:xlink="http://www.w3.org/1999/xlink" x="0px" y="0px"
	 viewBox="0 0 610.7 39.2" style="enable-background:new 0 0 610.7 39.2;" xml:space="preserve">
<style type="text/css">
	.st0{display:none;}
	.st1{display:none;fill:#FFFFFF;}
	.st2{fill:#86BC25;}
	.st3{fill:#FFFFFF;}
	.st4{fill:#777777;}
</style>
<rect class="st0" width="610.7" height="39.2"/>
<path class="st1" d="M228.7,10.7c-2.8,2.8-4.1,6.8-4.1,12.1V34h33.3V23.4c0-5.4-1.5-9.6-4.5-12.6s-7.2-4.4-12.8-4.4
	C235.4,6.4,231.4,7.8,228.7,10.7z M248.1,17.3c1.6,1.3,2.4,3.2,2.4,5.9v2h-18.6v-2.4c0-2.4,0.8-4.3,2.2-5.4c1.5-1.2,3.7-1.8,6.8-1.8
	C244.1,15.6,246.5,16.2,248.1,17.3z"/>
<path class="st2" d="M175,31.6c0-2.7,2.2-4.8,4.8-4.8c2.7,0,4.8,2.2,4.8,4.8s-2.2,4.8-4.8,4.8S175,34.3,175,31.6"/>
<path class="st3" d="M30.8,18.6c0,5.6-1.4,9.8-4.4,12.8s-7.2,4.5-12.6,4.5H3.2V2.6h11.2c5.3,0,9.3,1.3,12.1,4.1
	C29.4,9.4,30.8,13.4,30.8,18.6 M21.6,18.9c0-3.1-0.6-5.3-1.8-6.8c-1.1-1.4-3-2.2-5.4-2.2H12v18.6h2c2.7,0,4.6-0.8,5.9-2.4
	C21,24.5,21.6,22.1,21.6,18.9 M59.9,2.5h8.3v33.4h-8.3C59.9,35.9,59.9,2.5,59.9,2.5z M95.6,23.4c0,4-1,7.2-3.2,9.5s-5.2,3.4-9,3.4
	c-3.7,0-6.6-1.1-8.8-3.5c-2.2-2.4-3.3-5.5-3.3-9.4c0-4,1-7.2,3.2-9.4c2.2-2.3,5.2-3.4,9-3.4c2.4,0,4.5,0.5,6.3,1.5
	c1.9,1,3.2,2.5,4.2,4.4C95.2,18.6,95.6,20.8,95.6,23.4 M79.9,23.4c0,2.2,0.3,3.7,0.8,4.8s1.4,1.6,2.8,1.6s2.2-0.5,2.8-1.6
	c0.5-1.1,0.8-2.8,0.8-4.8c0-2.2-0.3-3.7-0.8-4.8c-0.5-1-1.4-1.6-2.8-1.6c-1.2,0-2.2,0.5-2.8,1.6C80.2,19.7,79.9,21.2,79.9,23.4
	 M99,11h8.3v24.8H99V11z M99,2.5h8.3v5.6H99V2.5z M124.2,29.5c1.1,0,2.5-0.3,4-0.8V35c-1.1,0.5-2.2,0.8-3.2,1s-2.2,0.3-3.6,0.3
	c-2.8,0-4.8-0.7-6.1-2.2c-1.2-1.4-1.9-3.6-1.9-6.5V17.4h-2.9V11h2.9V4.8l8.4-1.4v7.8h5.4v6.3h-5.4v9.6
	C122,28.8,122.7,29.5,124.2,29.5 M143.6,29.5c1.1,0,2.5-0.3,4-0.8V35c-1.1,0.5-2.2,0.8-3.2,1s-2.2,0.3-3.6,0.3
	c-2.8,0-4.8-0.7-6.1-2.2c-1.2-1.4-1.9-3.6-1.9-6.5V17.4h-2.9V11h2.9V4.7l8.4-1.3v7.8h5.4v6.3h-5.4v9.6
	C141.3,28.8,142.1,29.5,143.6,29.5 M170,13.5c-2-2-4.8-2.9-8.4-2.9c-3.8,0-6.8,1.1-8.9,3.4c-2.1,2.3-3.1,5.5-3.1,9.7
	c0,4,1.1,7.2,3.3,9.4c2.3,2.2,5.4,3.3,9.4,3.3c2,0,3.6-0.1,5-0.4c1.3-0.3,2.8-0.7,4-1.4l-1.2-5.6c-0.9,0.4-1.9,0.7-2.7,0.9
	c-1.2,0.3-2.6,0.4-4,0.4c-1.6,0-2.9-0.4-3.8-1.1c-0.9-0.8-1.4-1.9-1.4-3.3h14.9V22C173,18.3,171.9,15.5,170,13.5 M158.2,20.4
	c0.1-1.3,0.5-2.4,1.1-3s1.4-0.9,2.5-0.9c1,0,2,0.3,2.6,1s0.9,1.6,1,2.9H158.2z M53.7,13.5c-2.1-2-4.8-2.9-8.4-2.9
	c-3.8,0-6.8,1.1-8.9,3.4s-3.1,5.5-3.1,9.7c0,4,1.1,7.2,3.3,9.4c2.3,2.2,5.4,3.3,9.4,3.3c2,0,3.6-0.1,5-0.4c1.3-0.3,2.8-0.7,4-1.4
	l-1.2-5.7c-0.9,0.4-1.9,0.7-2.7,0.9c-1.2,0.3-2.6,0.4-4,0.4c-1.6,0-2.9-0.4-3.8-1.1c-0.9-0.8-1.4-1.9-1.4-3.3h14.9V22
	C56.7,18.3,55.6,15.5,53.7,13.5 M41.8,20.4c0.1-1.3,0.5-2.4,1.1-3s1.4-0.9,2.5-0.9s2,0.3,2.6,1s0.9,1.6,1,2.9H41.8z"/>
<rect x="221.8" y="2.3" class="st4" width="1.6" height="34.2"/>
<path class="st3" d="M285.2,35.3l-3.7-9.5h-12l-3.7,9.5h-3.5L274,5.2h3.1l11.6,30.1H285.2z M280.5,22.7l-3.5-9.5
	c-0.1-0.2-0.2-0.6-0.4-1.2c-0.2-0.6-0.4-1.1-0.6-1.7s-0.3-1.1-0.5-1.5c-0.1,0.6-0.3,1.1-0.4,1.7c-0.2,0.6-0.3,1.1-0.5,1.5
	s-0.3,0.9-0.4,1.2l-3.6,9.5H280.5z M306.1,29.1c0,1.4-0.4,2.6-1.1,3.6c-0.7,1-1.7,1.7-3.1,2.2c-1.3,0.5-2.9,0.7-4.8,0.7
	c-1.6,0-2.9-0.1-4.1-0.4s-2.2-0.6-3-1v-3.1c0.9,0.5,2,0.9,3.3,1.2s2.6,0.6,3.9,0.6c1.9,0,3.3-0.3,4.2-0.9s1.3-1.5,1.3-2.6
	c0-0.6-0.2-1.2-0.5-1.6c-0.3-0.5-0.9-0.9-1.8-1.4s-2-0.9-3.4-1.5c-1.4-0.5-2.7-1.1-3.7-1.6c-1-0.5-1.9-1.2-2.4-2
	c-0.6-0.8-0.9-1.8-0.9-3c0-1.9,0.8-3.4,2.3-4.4c1.5-1,3.6-1.5,6.1-1.5c1.4,0,2.6,0.1,3.8,0.4s2.3,0.6,3.3,1.1l-1.1,2.7
	c-0.9-0.4-1.9-0.7-3-1s-2.1-0.4-3.2-0.4c-1.6,0-2.8,0.3-3.6,0.8c-0.8,0.5-1.3,1.2-1.3,2.1c0,0.7,0.2,1.3,0.6,1.7
	c0.4,0.5,1,0.9,1.9,1.3c0.9,0.4,2,0.9,3.4,1.4c1.4,0.5,2.6,1.1,3.7,1.6s1.8,1.2,2.4,2C305.9,26.9,306.1,27.9,306.1,29.1z
	 M325.3,29.1c0,1.4-0.4,2.6-1.1,3.6c-0.7,1-1.7,1.7-3.1,2.2c-1.3,0.5-2.9,0.7-4.8,0.7c-1.6,0-2.9-0.1-4.1-0.4s-2.2-0.6-3-1v-3.1
	c0.9,0.5,2,0.9,3.3,1.2s2.6,0.6,3.9,0.6c1.9,0,3.3-0.3,4.2-0.9s1.3-1.5,1.3-2.6c0-0.6-0.2-1.2-0.5-1.6c-0.3-0.5-0.9-0.9-1.8-1.4
	s-2-0.9-3.4-1.5c-1.4-0.5-2.7-1.1-3.7-1.6c-1-0.5-1.9-1.2-2.4-2c-0.6-0.8-0.9-1.8-0.9-3c0-1.9,0.8-3.4,2.3-4.4
	c1.5-1,3.6-1.5,6.1-1.5c1.4,0,2.6,0.1,3.8,0.4s2.3,0.6,3.3,1.1l-1.1,2.7c-0.9-0.4-1.9-0.7-3-1s-2.1-0.4-3.2-0.4
	c-1.6,0-2.8,0.3-3.6,0.8c-0.8,0.5-1.3,1.2-1.3,2.1c0,0.7,0.2,1.3,0.6,1.7c0.4,0.5,1,0.9,1.9,1.3c0.9,0.4,2,0.9,3.4,1.4
	c1.4,0.5,2.6,1.1,3.7,1.6s1.8,1.2,2.4,2C325,26.9,325.3,27.9,325.3,29.1z M338.6,12.4c1.9,0,3.6,0.4,4.9,1.3s2.4,2,3.1,3.6
	s1.1,3.3,1.1,5.3v2.1h-15.5c0,2.6,0.7,4.6,2,6s3.1,2.1,5.4,2.1c1.4,0,2.7-0.1,3.8-0.4s2.2-0.6,3.4-1.1v3c-1.1,0.5-2.3,0.9-3.4,1.1
	c-1.1,0.2-2.4,0.3-3.9,0.3c-2.2,0-4-0.4-5.6-1.3c-1.6-0.9-2.9-2.2-3.7-3.9s-1.3-3.8-1.3-6.3c0-2.4,0.4-4.5,1.2-6.3
	c0.8-1.8,2-3.1,3.4-4.1C334.8,12.9,336.6,12.4,338.6,12.4z M338.6,15.2c-1.8,0-3.3,0.6-4.3,1.8s-1.7,2.9-1.9,5h11.9
	c0-1.3-0.2-2.5-0.6-3.5s-1-1.8-1.8-2.4S339.8,15.2,338.6,15.2z M367.2,29.1c0,1.4-0.4,2.6-1.1,3.6c-0.7,1-1.7,1.7-3.1,2.2
	c-1.3,0.5-2.9,0.7-4.8,0.7c-1.6,0-2.9-0.1-4.1-0.4s-2.2-0.6-3-1v-3.1c0.9,0.5,2,0.9,3.3,1.2s2.6,0.6,3.9,0.6c1.9,0,3.3-0.3,4.2-0.9
	s1.3-1.5,1.3-2.6c0-0.6-0.2-1.2-0.5-1.6c-0.3-0.5-0.9-0.9-1.8-1.4s-2-0.9-3.4-1.5c-1.4-0.5-2.7-1.1-3.7-1.6c-1-0.5-1.9-1.2-2.4-2
	c-0.6-0.8-0.9-1.8-0.9-3c0-1.9,0.8-3.4,2.3-4.4c1.5-1,3.6-1.5,6.1-1.5c1.4,0,2.6,0.1,3.8,0.4s2.3,0.6,3.3,1.1l-1.1,2.7
	c-0.9-0.4-1.9-0.7-3-1s-2.1-0.4-3.2-0.4c-1.6,0-2.8,0.3-3.6,0.8c-0.8,0.5-1.3,1.2-1.3,2.1c0,0.7,0.2,1.3,0.6,1.7
	c0.4,0.5,1,0.9,1.9,1.3c0.9,0.4,2,0.9,3.4,1.4c1.4,0.5,2.6,1.1,3.7,1.6s1.8,1.2,2.4,2C366.9,26.9,367.2,27.9,367.2,29.1z
	 M386.4,29.1c0,1.4-0.4,2.6-1.1,3.6c-0.7,1-1.7,1.7-3.1,2.2c-1.3,0.5-2.9,0.7-4.8,0.7c-1.6,0-2.9-0.1-4.1-0.4s-2.2-0.6-3-1v-3.1
	c0.9,0.5,2,0.9,3.3,1.2s2.6,0.6,3.9,0.6c1.9,0,3.3-0.3,4.2-0.9s1.3-1.5,1.3-2.6c0-0.6-0.2-1.2-0.5-1.6c-0.3-0.5-0.9-0.9-1.8-1.4
	s-2-0.9-3.4-1.5c-1.4-0.5-2.7-1.1-3.7-1.6c-1-0.5-1.9-1.2-2.4-2c-0.6-0.8-0.9-1.8-0.9-3c0-1.9,0.8-3.4,2.3-4.4
	c1.5-1,3.6-1.5,6.1-1.5c1.4,0,2.6,0.1,3.8,0.4s2.3,0.6,3.3,1.1l-1.1,2.7c-0.9-0.4-1.9-0.7-3-1s-2.1-0.4-3.2-0.4
	c-1.6,0-2.8,0.3-3.6,0.8c-0.8,0.5-1.3,1.2-1.3,2.1c0,0.7,0.2,1.3,0.6,1.7c0.4,0.5,1,0.9,1.9,1.3c0.9,0.4,2,0.9,3.4,1.4
	c1.4,0.5,2.6,1.1,3.7,1.6s1.8,1.2,2.4,2C386.1,26.9,386.4,27.9,386.4,29.1z M415.4,12.4c2.5,0,4.3,0.6,5.6,1.9s1.9,3.4,1.9,6.2v14.7
	h-3.4V20.7c0-1.8-0.4-3.2-1.2-4.1s-2-1.4-3.5-1.4c-2.2,0-3.8,0.6-4.7,1.9s-1.5,3.1-1.5,5.6v12.6h-3.4V20.7c0-1.2-0.2-2.2-0.5-3
	c-0.3-0.8-0.9-1.4-1.6-1.8s-1.6-0.6-2.6-0.6c-1.5,0-2.7,0.3-3.6,0.9s-1.6,1.5-2,2.7s-0.6,2.7-0.6,4.5v11.9H391V12.8h2.7l0.5,3.2h0.2
	c0.5-0.8,1-1.4,1.7-2s1.4-0.9,2.3-1.2s1.8-0.4,2.7-0.4c1.7,0,3.1,0.3,4.3,1c1.2,0.6,2,1.6,2.5,2.9h0.2c0.7-1.3,1.8-2.3,3-2.9
	S413.9,12.4,415.4,12.4z M437.7,12.4c1.9,0,3.6,0.4,4.9,1.3s2.4,2,3.1,3.6s1.1,3.3,1.1,5.3v2.1h-15.5c0,2.6,0.7,4.6,2,6
	s3.1,2.1,5.4,2.1c1.4,0,2.7-0.1,3.8-0.4s2.2-0.6,3.4-1.1v3c-1.1,0.5-2.3,0.9-3.4,1.1c-1.1,0.2-2.4,0.3-3.9,0.3c-2.2,0-4-0.4-5.6-1.3
	c-1.6-0.9-2.9-2.2-3.7-3.9s-1.3-3.8-1.3-6.3c0-2.4,0.4-4.5,1.2-6.3c0.8-1.8,2-3.1,3.4-4.1C434,12.9,435.7,12.4,437.7,12.4z
	 M437.7,15.2c-1.8,0-3.3,0.6-4.3,1.8s-1.7,2.9-1.9,5h11.9c0-1.3-0.2-2.5-0.6-3.5s-1-1.8-1.8-2.4S439,15.2,437.7,15.2z M462.5,12.4
	c2.7,0,4.7,0.7,6,2s2.1,3.4,2.1,6.3v14.6h-3.4V20.9c0-1.9-0.4-3.3-1.3-4.2s-2.2-1.4-3.9-1.4c-2.5,0-4.2,0.7-5.2,2.1
	s-1.5,3.5-1.5,6.1v11.8h-3.4V12.8h2.7l0.5,3.2h0.2c0.5-0.8,1.1-1.5,1.8-2s1.6-1,2.5-1.2S461.5,12.4,462.5,12.4z M484,32.9
	c0.6,0,1.1,0,1.7-0.1s1.1-0.2,1.4-0.3V35c-0.4,0.2-0.9,0.3-1.7,0.5s-1.4,0.2-2.1,0.2c-1.2,0-2.3-0.2-3.2-0.6s-1.7-1.1-2.3-2.1
	s-0.9-2.4-0.9-4.1V15.5h-3.2v-1.7l3.2-1.3l1.4-4.9h2.1v5.2h6.6v2.7h-6.6v13.2c0,1.4,0.3,2.5,1,3.2S482.9,32.9,484,32.9z M509.3,5.3
	c3.9,0,6.7,0.8,8.5,2.3c1.8,1.5,2.7,3.7,2.7,6.5c0,1.3-0.2,2.5-0.6,3.6c-0.4,1.1-1.1,2.1-2,3s-2.2,1.6-3.7,2.1s-3.4,0.7-5.5,0.7
	h-3.7v11.8h-3.5v-30H509.3z M509,8.3h-4v12.2h3.3c1.9,0,3.5-0.2,4.8-0.6s2.2-1.1,2.9-2s1-2.1,1-3.7c0-2-0.6-3.5-1.9-4.5
	S511.7,8.3,509,8.3z M544.7,24c0,1.8-0.2,3.5-0.7,4.9s-1.2,2.7-2.1,3.7s-2,1.8-3.3,2.3s-2.7,0.8-4.3,0.8c-1.5,0-2.9-0.3-4.1-0.8
	c-1.3-0.5-2.3-1.3-3.2-2.3c-0.9-1-1.6-2.2-2.1-3.7s-0.7-3.1-0.7-4.9c0-2.5,0.4-4.6,1.3-6.3s2-3,3.6-4c1.6-0.9,3.4-1.4,5.5-1.4
	c2.1,0,3.8,0.5,5.4,1.4c1.5,0.9,2.7,2.2,3.6,4C544.3,19.5,544.7,21.5,544.7,24z M527.6,24c0,1.8,0.2,3.4,0.7,4.7s1.2,2.4,2.2,3.1
	s2.3,1.1,3.9,1.1c1.6,0,2.8-0.4,3.8-1.1c1-0.7,1.7-1.8,2.2-3.1s0.7-2.9,0.7-4.7c0-1.8-0.2-3.3-0.7-4.6s-1.2-2.3-2.2-3
	s-2.3-1.1-3.9-1.1c-2.3,0-4.1,0.8-5.1,2.3C528.2,19.1,527.6,21.3,527.6,24z M560,12.4c0.5,0,0.9,0,1.4,0.1s0.9,0.1,1.3,0.2l-0.4,3.2
	c-0.4-0.1-0.8-0.2-1.2-0.2s-0.9-0.1-1.3-0.1c-0.9,0-1.8,0.2-2.6,0.5c-0.8,0.4-1.5,0.9-2.1,1.6s-1.1,1.5-1.4,2.4s-0.5,2-0.5,3.2v12.1
	h-3.4V12.8h2.8l0.4,4.1h0.1c0.5-0.8,1-1.6,1.7-2.3s1.4-1.2,2.3-1.7C558,12.6,558.9,12.4,560,12.4z M573.4,32.9c0.6,0,1.1,0,1.7-0.1
	s1.1-0.2,1.4-0.3V35c-0.4,0.2-0.9,0.3-1.7,0.5s-1.4,0.2-2.1,0.2c-1.2,0-2.3-0.2-3.2-0.6s-1.7-1.1-2.3-2.1s-0.9-2.4-0.9-4.1V15.5
	h-3.2v-1.7l3.2-1.3l1.4-4.9h2.1v5.2h6.6v2.7h-6.6v13.2c0,1.4,0.3,2.5,1,3.2S572.3,32.9,573.4,32.9z M588.7,12.4c2.7,0,4.7,0.6,6,1.8
	s1.9,3.1,1.9,5.8v15.3h-2.5l-0.7-3.3h-0.2c-0.6,0.8-1.3,1.5-2,2.1s-1.5,1-2.4,1.3s-2,0.4-3.3,0.4c-1.4,0-2.6-0.2-3.6-0.7
	s-1.9-1.2-2.5-2.2s-0.9-2.2-0.9-3.7c0-2.2,0.9-4,2.7-5.2s4.5-1.9,8.1-2l3.9-0.2v-1.4c0-1.9-0.4-3.3-1.3-4.1s-2-1.2-3.5-1.2
	c-1.2,0-2.3,0.2-3.4,0.5s-2.1,0.7-3,1.2l-1-2.6c1-0.5,2.2-1,3.5-1.3S587.2,12.4,588.7,12.4z M593.2,24.2l-3.4,0.1
	c-2.8,0.1-4.8,0.6-5.9,1.4s-1.7,1.9-1.7,3.4c0,1.3,0.4,2.2,1.2,2.9s1.8,0.9,3.1,0.9c2,0,3.6-0.6,4.9-1.7s1.9-2.8,1.9-5V24.2z
	 M606.2,35.3h-3.4V3.4h3.4V35.3z"/>
</svg>
