<?xml version="1.0" encoding="utf-8"?>
<!-- Generator: Adobe Illustrator 28.0.0, SVG Export Plug-In . SVG Version: 6.00 Build 0)  -->
<svg version="1.1" id="Layer_1" xmlns="http://www.w3.org/2000/svg" xmlns:xlink="http://www.w3.org/1999/xlink" x="0px" y="0px"
	 viewBox="0 0 254 254" style="enable-background:new 0 0 254 254;" xml:space="preserve">
<style type="text/css">
	.st0{fill-rule:evenodd;clip-rule:evenodd;fill:#FFFFFF;}
</style>
<path class="st0" d="M245.1,105.7C138.8,19.4,138.8,19.4,138.8,19.4c-6.4-6.1-16.8-6.1-23.2,0C9.3,105.7,9.3,105.7,9.3,105.7
	c-4.3,3.1-6.4,7.2-6.4,12.2c-1.1,4.1,1.1,9.1,4.3,12.2c4.3,5,11.6,8.1,19,6.1c0,91.5,0,91.5,0,91.5c0,7.2,5.2,12.2,12.7,12.2
	c60,0,60,0,60,0c3.2,0,5.2-2,5.2-4.1c0-82.4,0-82.4,0-82.4c46.3,0,46.3,0,46.3,0c0,82.4,0,82.4,0,82.4c0,2,2,4.1,5.2,4.1
	c60,0,60,0,60,0c7.3,0,12.7-5,12.7-12.2c0-91.5,0-91.5,0-91.5c7.3,2,14.8-1,19-6.1c3.2-3.1,5.2-8.1,4.3-12.2
	C251.4,112.9,249.2,108.8,245.1,105.7z M239.8,124c-3.2,3.1-8.4,4.1-11.6,1c-2-1-2-1-2-1c-1.1-2-3.2-2-5.2-1c-1.1,1-2,2-2,4.1
	c0,100.7,0,100.7,0,100.7c0,2-2,3.1-3.2,3.1c-55.7,0-55.7,0-55.7,0c0-81.4,0-81.4,0-81.4c0-3.1-2-5-4.3-5c-56.9,0-56.9,0-56.9,0
	c-2,0-5.2,2-5.2,5c0,81.4,0,81.4,0,81.4c-54.7,0-54.7,0-54.7,0c-1.1,0-3.2-1-3.2-3.1c0-100.7,0-100.7,0-100.7c0-2-1.1-3.1-3.2-4.1
	c-1.1-1-3.2-1-5.2,1c-1.1,1-1.1,1-1.1,1c-3.2,3.1-8.4,2-11.6-1c-1.1-1-2-3.1-2-5c0-2,1.1-4.1,3.2-6.1
	c106.4-86.4,106.4-86.4,106.4-86.4c3.2-2,7.3-2,10.5,0c106.4,86.4,106.4,86.4,106.4,86.4c1.1,2,2,4.1,3.2,6.1
	C242,121.1,240.8,123,239.8,124z"/>
</svg>
