<?xml version="1.0" encoding="utf-8"?>
<!-- Generator: Adobe Illustrator 28.0.0, SVG Export Plug-In . SVG Version: 6.00 Build 0)  -->
<svg version="1.1" id="Layer_1" xmlns="http://www.w3.org/2000/svg" xmlns:xlink="http://www.w3.org/1999/xlink" x="0px" y="0px"
	 viewBox="0 0 254 254" style="enable-background:new 0 0 254 254;" xml:space="preserve">
<style type="text/css">
	.st0{fill-rule:evenodd;clip-rule:evenodd;fill:#FFFFFF;}
</style>
<path class="st0" d="M252.4,16.9c-1.1-1.1-2-2.3-3.2-2.3c0,0-1-1.1-2-1.1c-58.6,0-58.6,0-58.6,0c-3.2,0-5.2,3.4-5.2,5.6
	c0,3.4,2,5.6,5.2,5.6c47.2,0,47.2,0,47.2,0c-93.3,99.9-93.3,99.9-93.3,99.9c-2,2.3-2,5.6,0,7.9c1.1,1.1,2,1.1,3.2,1.1
	c1.1,0,3.2,0,4.2-1.1c93.1-99.9,93.1-99.9,93.1-99.9c0,50.6,0,50.6,0,50.6c0,3.4,2,5.6,4.2,5.6c3.2,0,5.2-2.3,5.2-5.6
	c0-64.1,0-64.1,0-64.1S252.4,18,252.4,16.9z M216.4,82.1c-3.2,0-5.2,3.4-5.2,5.6c0,143.1,0,143.1,0,143.1c-199.6,0-199.6,0-199.6,0
	c0-171.2,0-171.2,0-171.2c172.3,0,172.3,0,172.3,0c2,0,5.2-2.3,5.2-5.6s-3.2-5.6-5.2-5.6c-176.5,0-176.5,0-176.5,0
	c-3.2,0-5.2,2.3-5.2,5.6c0,182.5,0,182.5,0,182.5c0,2.3,2,4.5,5.2,4.5c209,0,209,0,209,0c2,0,4.2-2.3,4.2-4.5
	c0-148.8,0-148.8,0-148.8C220.6,85.5,218.5,82.1,216.4,82.1z"/>
</svg>
