<?xml version="1.0" encoding="utf-8"?>
<!-- Generator: Adobe Illustrator 28.0.0, SVG Export Plug-In . SVG Version: 6.00 Build 0)  -->
<svg version="1.1" id="Layer_1" xmlns="http://www.w3.org/2000/svg" xmlns:xlink="http://www.w3.org/1999/xlink" x="0px" y="0px"
	 viewBox="0 0 260 260" style="enable-background:new 0 0 260 260;" xml:space="preserve">
<style type="text/css">
	.st0{fill:#0076A8;}
	.st1{fill-rule:evenodd;clip-rule:evenodd;fill:#FFFFFF;}
</style>
<rect class="st0" width="260" height="260"/>
<path class="st1" d="M188,84.4c-24.4,24.4-24.4,24.4-24.4,24.4c-1.6,1.6-1.6,4.1,0,5.7c0.8,0.8,1.6,0.8,2.4,0.8c1.6,0,2.4,0,3.3-0.8
	c30.9-30.9,30.9-30.9,30.9-30.9c0.8-0.8,0.8-1.6,0.8-3.3c0-0.8,0-1.6-0.8-2.4C169.3,47,169.3,47,169.3,47c-1.6-1.6-4.1-1.6-5.7,0
	c-1.6,1.6-1.6,4.1,0,5.7C188,76.2,188,76.2,188,76.2c-108.3,0-108.3,0-108.3,0C59.3,76.2,43,93.3,43,113.7c0,32.6,0,32.6,0,32.6
	c0,1.6,1.6,4.1,4.1,4.1c1.6,0,4.1-2.4,4.1-4.1c0-32.6,0-32.6,0-32.6c0-16.3,13-29.3,28.5-29.3C79.7,84.4,188,84.4,188,84.4z
	 M213,110.3c-2.4,0-4,1.6-4,4.1c0,32.5,0,32.5,0,32.5c0,15.4-12.9,29.2-29.1,29.2c-105.1,0-105.1,0-105.1,0
	C99,151.7,99,151.7,99,151.7c1.6-1.6,1.6-4.1,0-5.7c-1.6-1.6-4-1.6-5.7,0c-30.7,30.9-30.7,30.9-30.7,30.9s-0.8,0.8-0.8,1.6
	c-0.8,0.8-0.8,1.6,0,2.4c0,0.8,0.8,0.8,0.8,1.6c30.7,31,30.7,31,30.7,31c0.8,0.8,1.6,0.8,2.4,0.8c1.6,0,2.4,0,3.2-0.8
	c1.6-1.6,1.6-4.1,0-5.7c-24.2-24.4-24.2-24.4-24.2-24.4c105.1,0,105.1,0,105.1,0c20.2,0,37.2-16.2,37.2-36.6c0-32.5,0-32.5,0-32.5
	C217,111.9,214.6,110.3,213,110.3z"/>
</svg>
